<svg width="70" height="70" viewBox="0 0 70 70" fill="none" xmlns="http://www.w3.org/2000/svg">
<path d="M35 70C54.33 70 70 54.33 70 35C70 15.67 54.33 0 35 0C15.67 0 0 15.67 0 35C0 54.33 15.67 70 35 70Z" fill="#9DD9DB"/>
<path fill-rule="evenodd" clip-rule="evenodd" d="M51.3239 37.9551C51.2057 36.9622 50.9338 36.0284 50.4847 35.1418C50.1064 34.3853 49.3736 33.4988 49.3381 33.4634C48.2979 32.2695 47.0095 31.4657 45.4847 31.0402C44.3499 30.721 43.1797 30.6383 42.0095 30.8392C40.7211 31.052 39.5272 31.5248 38.487 32.3286C36.3476 33.9716 37.8369 32.766 35.6974 34.4326C35.3546 34.6927 33.7589 35.7565 32.8606 36.6548C32.0804 37.2695 31.8913 38.3688 32.5887 39.1844C33.6407 40.4255 34.5036 41.5603 35.3901 42.6832C34.8582 43.1206 35.662 42.5414 33.5816 44.1726C32.8842 44.7163 32.1395 45.1537 31.2293 45.2482C29.7282 45.4019 28.5107 44.8818 27.5769 43.7116C26.5721 42.4586 25.6147 41.1702 24.61 39.9054C23.9007 39.0189 23.4989 38.0378 23.487 36.8794C23.487 35.8865 23.7589 34.9646 24.3499 34.1726C25.3074 32.8605 26.6194 32.1986 28.2624 32.2341C29.3972 32.2577 30.3783 32.6123 31.2412 33.3452C31.6667 33.6998 32.2814 34.4445 32.3286 34.5036C33.2979 34.0071 35.201 32.0804 32.1986 29.8936C31.4894 29.4208 30.5201 29.1608 30.2837 29.1017C29.2081 28.8061 28.1206 28.7352 27.0213 28.8771C25.8156 29.0307 24.7045 29.4563 23.6998 30.13C21.7376 31.4539 20.5792 33.2861 20.1537 35.6028C20 36.513 20.0355 37.435 20.201 38.3452C20.4374 39.6218 20.9338 40.7565 21.7258 41.7731C22.8369 43.227 23.9717 44.6572 25.0828 46.0993C26.1348 47.4823 27.4705 48.4279 29.1844 48.8061C30.8984 49.1844 32.5414 48.9716 34.0308 48.0733C34.8346 47.5768 36.2175 46.4184 38.8771 44.3381C39.2435 44.0544 39.4445 43.6407 39.5036 43.2033V43.1797C39.5036 43.156 39.5036 43.1442 39.5036 43.1206C39.5154 42.9078 39.5036 42.6832 39.4327 42.4823C39.3263 42.175 39.1608 41.9149 38.9717 41.7139C37.8842 40.4255 37.2104 39.4563 36.3594 38.3688C38.4279 36.7612 37.9197 37.104 40.1419 35.3664C40.9338 34.74 41.7613 34.279 42.7896 34.1844C44.2435 34.0426 45.4847 34.4681 46.5485 35.461C46.6076 35.5083 47.2459 36.1702 47.5769 36.9622C47.8251 37.5414 47.9315 38.1442 47.9433 38.7825C47.9551 39.5627 47.766 40.2837 47.4114 40.9574C47.0568 41.643 46.513 42.175 45.9102 42.6478C43.1088 44.8227 40.3192 47.0095 37.5178 49.1844C36.5249 49.9527 35.5674 50.7802 34.4445 51.3475C33.1206 52.0213 31.7613 52.1513 30.3546 51.714C29.9291 51.5839 29.5154 51.383 29.0899 51.2057C29.0899 51.2175 29.0899 51.253 29.1017 51.2648C29.6572 51.8558 30.1892 52.4705 30.7684 53.026C31.3594 53.6052 32.0568 54.0426 32.8251 54.3144C34.2081 54.7872 35.5201 54.5745 36.7849 53.9007C37.636 53.4515 38.3688 52.8251 39.1372 52.2341C42.1041 49.9291 45.0473 47.6241 48.0142 45.331C49.279 44.3499 50.2601 43.156 50.8156 41.6549C51.2766 40.4492 51.4303 39.2199 51.3003 37.9314" fill="white"/>
<path d="M56.1343 40.3074C59.3494 40.3783 62.5409 40.8866 65.7442 40.8157C66.5244 40.8039 67.5527 40.5793 68.0019 39.8583C68.4156 39.1845 67.6473 38.7708 67.0563 38.7826C63.8412 38.8417 60.6497 38.3453 57.4464 38.2743C56.678 38.2625 55.626 38.5226 55.1887 39.2318C54.7513 39.941 55.5551 40.2956 56.1343 40.3074Z" fill="white"/>
<path d="M19.3024 29.8937C16.6192 28.5461 14.0423 27.0331 11.3591 25.6856C10.709 25.3547 9.78703 25.5911 9.14873 25.8393C8.99507 25.8984 7.57663 26.584 8.144 26.8795C10.8272 28.227 13.4041 29.74 16.0873 31.0875C16.7374 31.4185 17.6594 31.1821 18.2977 30.9339C18.4513 30.8748 19.8698 30.1892 19.3024 29.8937Z" fill="white"/>
<path d="M29.6809 21.1584C29.6809 18.6407 29.2318 16.1466 28.7471 13.688C28.7117 13.4989 28.2625 13.487 28.1561 13.487C27.7542 13.487 27.2932 13.5698 26.9032 13.6762C26.5131 13.7825 26.0876 13.9244 25.7329 14.1372C25.5911 14.2199 25.2838 14.3972 25.3192 14.61C25.8039 17.0686 26.2412 19.5745 26.253 22.0804C26.253 22.2695 26.785 22.2814 26.8441 22.2814C27.2459 22.2814 27.7069 22.1986 28.097 22.0922C28.4871 21.9858 28.9126 21.844 29.2672 21.6312C29.4445 21.5249 29.6809 21.3948 29.6809 21.1584Z" fill="white"/>
<path d="M42.7893 22.435C43.0611 21.3594 43.1912 20.2482 43.4749 19.1844L43.3803 19.5272C43.5576 18.8771 43.794 18.2506 44.0895 17.6478C44.4678 16.8913 43.7467 16.1821 43.0139 16.1111C42.151 16.0166 41.1935 16.383 40.7916 17.1868C39.9288 18.9244 39.7514 20.8156 39.3023 22.6714C39.2195 23.0024 39.4914 23.4043 39.7278 23.5816C40.0351 23.818 40.5316 23.9125 40.9098 23.8771C41.359 23.8298 41.8436 23.6998 42.1983 23.3925C42.5174 23.1206 42.6829 22.8369 42.7893 22.435Z" fill="white"/>
<path d="M53.1201 29.7873C55.366 27.9906 57.4227 25.9812 59.6568 24.1845C59.8104 24.0545 60.0941 23.818 60.035 23.5698C59.9759 23.3216 59.5977 23.2389 59.4085 23.227C58.6284 23.1443 57.6118 23.3807 56.9854 23.8771C54.7395 25.6738 52.6828 27.6833 50.4487 29.48C50.2951 29.61 50.0114 29.8464 50.0705 30.0946C50.1296 30.3429 50.5078 30.4256 50.697 30.4374C51.4771 30.5202 52.4936 30.2838 53.1201 29.7873Z" fill="white"/>
</svg>
