<svg width="19" height="21" viewBox="0 0 19 21" fill="none" xmlns="http://www.w3.org/2000/svg">
<g clip-path="url(#clip0_2245_123)">
<path d="M0.656717 21.0001C0.568337 20.9971 0.481456 20.9763 0.401283 20.9389C0.32111 20.9015 0.249294 20.8482 0.190138 20.7822C0.130982 20.7163 0.0857043 20.639 0.057017 20.5551C0.0283297 20.4712 0.0168236 20.3823 0.0231885 20.2938C0.192241 17.8823 1.26626 15.6248 3.02869 13.9765C4.79113 12.3282 7.11089 11.4116 9.52026 11.4116C11.9296 11.4116 14.2494 12.3282 16.0118 13.9765C17.7743 15.6248 18.8483 17.8823 19.0173 20.2938C19.0238 20.3842 19.0116 20.475 18.9815 20.5605C18.9513 20.646 18.904 20.7244 18.8423 20.7907C18.7806 20.8569 18.706 20.9098 18.6231 20.9458C18.5402 20.9818 18.4507 21.0003 18.3603 21.0001H0.656717Z" fill="#61C5C3"/>
<path d="M9.49668 9.69955C12.1662 9.69955 14.3303 7.52823 14.3303 4.84978C14.3303 2.17132 12.1662 0 9.49668 0C6.82716 0 4.66309 2.17132 4.66309 4.84978C4.66309 7.52823 6.82716 9.69955 9.49668 9.69955Z" fill="#61C5C3"/>
</g>
<defs>
<clipPath id="clip0_2245_123">
<rect width="19" height="21" fill="white"/>
</clipPath>
</defs>
</svg>
