<svg width="38" height="30" viewBox="0 0 38 30" fill="none" xmlns="http://www.w3.org/2000/svg">
<path d="M31.069 21.6982C30.3076 21.6971 29.563 21.9219 28.9293 22.3441C28.2957 22.7663 27.8016 23.367 27.5094 24.0701C27.2173 24.7732 27.1402 25.5472 27.2881 26.2941C27.436 27.041 27.8021 27.7273 28.34 28.2661C28.878 28.8048 29.5638 29.1719 30.3105 29.3209C31.0572 29.4698 31.8312 29.394 32.5348 29.1028C33.2384 28.8117 33.8397 28.3185 34.2629 27.6855C34.686 27.0524 34.9119 26.3082 34.9119 25.5468C34.9119 24.527 34.5072 23.549 33.7867 22.8274C33.0661 22.1059 32.0887 21.6997 31.069 21.6982ZM31.069 27.9146C30.5968 27.9157 30.135 27.7767 29.7419 27.5151C29.3489 27.2534 29.0423 26.881 28.8611 26.445C28.6799 26.009 28.6322 25.5291 28.7241 25.0659C28.8159 24.6028 29.0432 24.1773 29.377 23.8435C29.7109 23.5096 30.1363 23.2824 30.5995 23.1905C31.0626 23.0987 31.5426 23.1464 31.9786 23.3276C32.4146 23.5088 32.787 23.8153 33.0486 24.2084C33.3102 24.6014 33.4493 25.0633 33.4482 25.5354C33.4512 25.8501 33.3919 26.1621 33.2737 26.4537C33.1556 26.7453 32.9809 27.0106 32.7597 27.2344C32.5386 27.4582 32.2753 27.636 31.9851 27.7576C31.695 27.8792 31.3836 27.9422 31.069 27.9429V27.9146Z" fill="#61C5C3"/>
<path d="M17.6926 21.6982C16.9327 21.7005 16.1904 21.9277 15.5594 22.3512C14.9284 22.7746 14.4368 23.3755 14.1468 24.0779C13.8567 24.7803 13.7812 25.5529 13.9296 26.2982C14.078 27.0436 14.4437 27.7283 14.9807 28.266C15.5177 28.8038 16.2018 29.1706 16.9469 29.32C17.692 29.4695 18.4647 29.3951 19.1676 29.1061C19.8704 28.817 20.472 28.3264 20.8964 27.696C21.3208 27.0656 21.5491 26.3237 21.5524 25.5637C21.5539 25.0561 21.4552 24.5533 21.2618 24.084C21.0684 23.6147 20.7842 23.1883 20.4256 22.8291C20.067 22.4699 19.6409 22.1851 19.1719 21.9911C18.7029 21.797 18.2002 21.6975 17.6926 21.6982ZM17.6926 27.9146C17.2205 27.9157 16.7586 27.7767 16.3656 27.5151C15.9725 27.2534 15.666 26.881 15.4848 26.445C15.3036 26.009 15.2559 25.5291 15.3477 25.0659C15.4395 24.6028 15.6668 24.1773 16.0007 23.8435C16.3345 23.5096 16.76 23.2824 17.2231 23.1905C17.6863 23.0987 18.1662 23.1464 18.6022 23.3276C19.0382 23.5088 19.4106 23.8153 19.6723 24.2084C19.9339 24.6014 20.0729 25.0633 20.0718 25.5354C20.0748 25.8501 20.0155 26.1621 19.8973 26.4537C19.7792 26.7453 19.6045 27.0106 19.3833 27.2344C19.1622 27.4582 18.899 27.636 18.6088 27.7576C18.3186 27.8792 18.0073 27.9422 17.6926 27.9429V27.9146Z" fill="#61C5C3"/>
<path d="M33.6523 15.7132L36.9639 5.54094C37.0103 5.45036 37.028 5.34786 37.0149 5.24696C37.0018 5.14607 36.9584 5.05152 36.8904 4.97581C36.8119 4.89643 36.7174 4.83471 36.6131 4.79475C36.5088 4.7548 36.3972 4.73753 36.2858 4.74411H9.72485L9.56662 4.17898L8.49288 0.460458C8.437 0.31808 8.33744 0.197076 8.20849 0.114831C8.07953 0.032585 7.92783 -0.00667005 7.77517 0.00270575H0.99366C0.817842 -0.0131085 0.642856 0.0408425 0.506467 0.152914C0.370078 0.264986 0.283223 0.426191 0.264648 0.601739C0.284594 0.776264 0.372034 0.936057 0.508269 1.04695C0.644505 1.15784 0.818721 1.21102 0.99366 1.19512H7.21004L8.15945 4.43329L13.3304 20.9463C13.3835 21.0898 13.4814 21.2123 13.6097 21.2958C13.738 21.3793 13.8897 21.4192 14.0424 21.4097H34.3869C34.4761 21.4292 34.5684 21.4285 34.6572 21.4076C34.746 21.3867 34.8291 21.3462 34.9001 21.289C34.9712 21.2318 35.0286 21.1593 35.068 21.0771C35.1074 20.9948 35.1278 20.9047 35.1278 20.8135C35.1278 20.7222 35.1074 20.6321 35.068 20.5499C35.0286 20.4676 34.9712 20.3952 34.9001 20.338C34.8291 20.2808 34.746 20.2402 34.6572 20.2193C34.5684 20.1984 34.4761 20.1977 34.3869 20.2172H14.6075L13.9237 17.7816L32.9741 16.0862C33.1102 16.0907 33.2451 16.0585 33.3644 15.9929C33.4838 15.9272 33.5832 15.8306 33.6523 15.7132ZM13.3756 16.5157L10.1091 6.08346L35.3476 5.99869L32.4768 14.9164L13.3756 16.5157Z" fill="#61C5C3"/>
</svg>
