<svg width="36" height="29" viewBox="0 0 36 29" fill="none" xmlns="http://www.w3.org/2000/svg">
<path d="M9.74846 19.4788C7.82219 19.4806 5.93865 18.9111 4.33602 17.8425C2.73339 16.7738 1.48365 15.2538 0.744842 13.4749C0.00603459 11.6959 -0.188658 9.73784 0.185382 7.84823C0.559421 5.95862 1.48539 4.22237 2.84621 2.85902C4.20702 1.49567 5.94155 0.566471 7.83046 0.188916C9.71937 -0.188638 11.6778 0.00241218 13.4581 0.737908C15.2385 1.4734 16.7607 2.72031 17.8324 4.32095C18.9041 5.92159 19.477 7.80407 19.4788 9.73034C19.4788 12.3127 18.4542 14.7895 16.63 16.6172C14.8057 18.4448 12.3308 19.474 9.74846 19.4788ZM9.74846 1.12343C8.04439 1.12164 6.37805 1.62521 4.96016 2.57045C3.54228 3.5157 2.43653 4.86017 1.78276 6.43384C1.12898 8.00752 0.956534 9.73972 1.28723 11.4114C1.61792 13.0831 2.43689 14.6192 3.64059 15.8254C4.84429 17.0316 6.37865 17.8538 8.04963 18.188C9.72062 18.5223 11.4532 18.3535 13.0282 17.703C14.6033 17.0525 15.9501 15.9496 16.8983 14.5337C17.8465 13.1178 18.3536 11.4525 18.3554 9.74846C18.3578 8.61581 18.137 7.49377 17.7058 6.44642C17.2745 5.39907 16.6412 4.44692 15.842 3.64433C15.0428 2.84174 14.0933 2.20443 13.0477 1.76878C12.0022 1.33313 10.8811 1.10769 9.74846 1.10531V1.12343Z" fill="#61C5C3"/>
<path d="M35.4425 28.9103C35.5335 28.9093 35.6228 28.8866 35.7032 28.844C35.7836 28.8015 35.8526 28.7404 35.9046 28.6657C35.9811 28.5542 36.0134 28.4181 35.9949 28.2841C35.9765 28.15 35.9088 28.0277 35.8049 27.9409L17.2412 14.949C17.1215 14.8936 16.9862 14.882 16.8589 14.9163C16.7316 14.9506 16.6205 15.0286 16.5449 15.1366C16.4693 15.2446 16.434 15.3757 16.4454 15.5071C16.4568 15.6384 16.514 15.7616 16.607 15.855L35.1526 28.8469C35.2406 28.897 35.3417 28.9191 35.4425 28.9103Z" fill="#61C5C3"/>
</svg>
