<svg width="30" height="28" viewBox="0 0 30 28" fill="none" xmlns="http://www.w3.org/2000/svg">
<path d="M28.988 13.956C28.988 21.1112 22.7225 26.9119 14.994 26.9119C7.26552 26.9119 1 21.1112 1 13.956C1 6.80076 7.26552 1 14.994 1C22.7225 1 28.988 6.80076 28.988 13.956Z" stroke="#61C5C3" stroke-width="0.75" stroke-miterlimit="10" stroke-linecap="square"/>
<path d="M22.4346 13.956C22.4346 21.1112 17.8541 26.9119 14.9941 26.9119C12.1342 26.9119 7.55371 21.1112 7.55371 13.956C7.55371 6.80076 12.4721 1 14.9941 1C17.5161 1 22.4346 6.80076 22.4346 13.956Z" stroke="#61C5C3" stroke-width="0.75" stroke-miterlimit="10" stroke-linecap="square"/>
<path d="M14.9941 1V26.6258" stroke="#61C5C3" stroke-width="0.75" stroke-miterlimit="10" stroke-linecap="square"/>
<path d="M4.95898 9.09863H27.248" stroke="#61C5C3" stroke-width="0.75" stroke-miterlimit="10" stroke-linecap="square"/>
<path d="M24.9961 18.8149H2.73926" stroke="#61C5C3" stroke-width="0.75" stroke-miterlimit="10" stroke-linecap="square"/>
</svg>
