<svg width="70" height="70" viewBox="0 0 70 70" fill="none" xmlns="http://www.w3.org/2000/svg">
<path d="M35 70C54.33 70 70 54.33 70 35C70 15.67 54.33 0 35 0C15.67 0 0 15.67 0 35C0 54.33 15.67 70 35 70Z" fill="#9DD9DB"/>
<path fill-rule="evenodd" clip-rule="evenodd" d="M24.4561 39.0189V39.4208C24.4561 42.2459 24.4561 45.0591 24.4561 47.8842C24.4561 48.3688 24.3143 48.5107 23.8178 48.5107C19.5861 48.5107 15.3545 48.5107 11.1228 48.5107C10.579 48.5107 10.4727 48.4043 10.4727 47.8605V28.7116C10.4727 28.227 10.5909 28.1088 11.0873 28.1088C15.3308 28.1088 19.5743 28.1088 23.8178 28.1088C24.3616 28.1088 24.4679 28.2152 24.4679 28.7707C24.4679 30.7802 24.4679 32.7896 24.4679 34.7991V35.1537C26.8084 32.5887 29.598 31.8558 32.8958 32.9433C32.8958 32.8251 32.9195 32.7187 32.9195 32.6123C32.9195 30.9575 32.8722 29.3026 32.9195 27.6478C33.0613 23.6643 34.8226 20.5556 38.1677 18.3688C39.2552 17.6596 40.449 17.1631 41.702 16.9149C42.5531 16.7494 43.4277 16.6903 44.2906 16.6549C45.6263 16.5958 46.9502 16.4303 48.2386 16.0757C50.2717 15.5083 52.0802 14.5509 53.7114 13.227C53.7587 13.1915 53.8178 13.1561 53.8651 13.1088C54.2197 12.8487 54.5625 13.0024 54.5861 13.4397C54.6098 13.8416 54.5861 14.2435 54.5861 14.6454C54.5861 16.4421 54.5861 18.227 54.5861 20.0237C54.5861 20.1419 54.598 20.2601 54.6098 20.4256C55.0471 20.2719 55.4609 20.1419 55.8746 20C57.1512 19.5627 58.4278 19.1253 59.7044 18.688C60.0235 18.5816 60.2717 18.7471 60.2835 19.078C60.3072 20.8038 60.2954 22.5178 60.0235 24.2199C59.7516 25.9102 59.3379 27.565 58.7351 29.1608C57.8249 31.5485 56.572 33.7471 54.9644 35.7447C53.345 37.766 51.4419 39.4799 49.267 40.8984C48.6641 41.2884 48.014 41.6312 47.3876 41.9977C47.3048 42.0449 47.2339 42.0922 47.1039 42.175C47.2457 42.175 47.3285 42.1868 47.4112 42.1868C49.0779 42.1868 50.7564 42.1631 52.423 42.1868C54.2552 42.2104 55.8391 41.6312 57.1748 40.3665C57.3284 40.2246 57.5176 40.1655 57.6831 40.2837C57.8013 40.3665 57.9195 40.5438 57.9195 40.6738C57.9076 42.9788 57.2221 45.0709 55.7564 46.8795C54.9171 47.9078 53.9597 48.818 52.7776 49.4681C51.4065 50.2246 49.9408 50.6974 48.3687 50.7329C47.3048 50.7565 46.241 50.7683 45.1772 50.7683C44.9171 50.7683 44.7162 50.8393 44.5034 50.9811C43.546 51.6667 42.4939 52.1868 41.371 52.5532C40.0471 52.9788 38.676 53.1442 37.2812 53.0851C33.6051 52.9315 30.6263 51.3948 28.2859 48.5816C27.4348 47.5532 26.7965 46.4067 26.3237 45.1655C25.91 44.0544 25.6736 42.9078 25.6145 41.7258C25.5791 41.0048 25.5791 40.2955 25.5791 39.5745C25.5791 39.3972 25.5318 39.3026 25.3426 39.2672C25.0471 39.2081 24.7753 39.1135 24.4443 39.0189H24.4561ZM59.4561 19.6336C58.7469 19.87 58.085 20.0946 57.4348 20.3192C56.3946 20.6856 55.3545 21.0639 54.3025 21.4066C52.8131 21.9031 51.3355 22.4232 49.9053 23.0733C47.8485 24.0071 45.9218 25.1655 44.1133 26.5248C42.1866 27.9669 40.4845 29.6336 38.9124 31.4539C37.8486 32.6951 36.7611 33.9362 35.6854 35.1655C35.4727 35.4137 35.3072 35.4374 35.0353 35.2601C34.9053 35.1773 34.7753 35.0828 34.6571 34.9882C33.7942 34.3972 32.9549 33.7944 31.9266 33.5107C30.7327 33.1797 29.5625 33.1797 28.3686 33.5107C26.962 33.9007 25.8273 34.7045 24.9644 35.8747C24.5743 36.4185 24.0897 36.8204 23.4869 37.0804C23.1677 37.2104 22.8722 37.3877 22.5649 37.5414C22.5649 37.565 22.5649 37.5887 22.5767 37.6241C22.7776 37.6714 22.9786 37.7187 23.1913 37.7778C24.1015 38.0379 25.0117 38.3097 25.9218 38.5698C26.3001 38.6762 26.371 38.7589 26.3828 39.149C26.3828 39.7045 26.3828 40.2719 26.3828 40.8275C26.371 42.1159 26.572 43.3688 26.9975 44.5863C27.4112 45.792 28.014 46.8913 28.806 47.896C30.65 50.2246 33.0495 51.6431 35.9691 52.1277C37.5058 52.3759 39.0306 52.2932 40.5436 51.8913C42.0093 51.5012 43.3214 50.8511 44.5034 49.9173C45.1653 49.3854 45.8155 48.8298 46.4656 48.2743C46.702 48.0733 46.962 48.0615 47.1157 48.2388C47.2694 48.4279 47.2339 48.6762 47.0093 48.8653C46.7493 49.0899 46.4892 49.3144 46.2292 49.539C46.111 49.6454 45.9809 49.7282 45.8509 49.8227C45.8746 49.8464 45.8982 49.87 45.9218 49.8937C49.4325 50.0591 51.7375 49.6691 54.3261 47.2104C55.9219 45.6974 56.7847 43.7944 57.0684 41.5603C56.962 41.6194 56.9029 41.6431 56.8556 41.6785C55.7209 42.4468 54.4916 42.9315 53.1204 42.9551C50.8627 42.9788 48.5932 42.9787 46.3356 42.9787C45.9455 42.9787 45.5554 42.9787 45.1535 42.9787C44.9171 42.9787 44.7871 42.8606 44.7398 42.636C44.7043 42.435 44.7871 42.305 44.9762 42.2104C45.4017 42.0095 45.8273 41.8085 46.2528 41.5958C47.5885 40.9338 48.8769 40.1891 50.0826 39.3026C51.4537 38.2861 52.6949 37.1159 53.8178 35.8274C54.1842 35.4137 54.5152 34.9646 54.8698 34.5272C54.4561 34.6809 54.1015 34.8818 53.7351 35.0828C51.9857 36.0166 50.1062 36.5367 48.1322 36.6194C46.7965 36.6785 45.4608 36.6431 44.1251 36.6549C43.8296 36.6549 43.5223 36.6549 43.2268 36.6549C42.9431 36.6549 42.7895 36.4894 42.7895 36.253C42.7895 36.0166 42.9313 35.8747 43.2268 35.8747C43.8296 35.8747 44.4207 35.8747 45.0235 35.8747C46.7256 35.8747 48.4396 35.9457 50.1299 35.5674C51.0873 35.3428 52.0093 35.0591 52.8958 34.6336C53.8296 34.1844 54.7162 33.6643 55.5199 33.0142C55.8509 32.7542 56.241 32.565 56.4419 32.1513C56.7729 31.4421 57.1866 30.7684 57.4821 30.0591C57.8958 29.078 58.2386 28.0615 58.5932 27.0568C58.6878 26.7731 58.7351 26.4776 58.8178 26.1348C58.3687 26.5248 57.9786 26.8913 57.553 27.2223C56.4892 28.0497 55.2717 28.6407 53.9479 28.7944C52.6358 28.948 51.3001 28.9007 49.9762 28.9244C49.728 28.9244 49.5507 28.7116 49.5862 28.4752C49.6334 28.2152 49.7989 28.1324 50.0471 28.1324C50.8273 28.1324 51.6193 28.1324 52.3994 28.1324C53.3805 28.1324 54.3261 27.9551 55.2363 27.6005C56.6547 27.0449 57.8131 26.1466 58.6996 24.9055C58.9242 24.5863 59.1961 24.2199 59.2433 23.8653C59.3734 22.7305 59.397 21.5721 59.4561 20.4256C59.468 20.1773 59.4561 19.9291 59.4561 19.6336ZM53.7824 14.2672C53.676 14.3263 53.6287 14.3381 53.5814 14.3735C52.7422 15.0118 51.8438 15.5438 50.8982 15.9929C49.9289 16.4539 48.9124 16.7967 47.8722 17.0568C46.5365 17.3877 45.1653 17.4823 43.7942 17.5178C42.0802 17.5532 40.4845 18.0142 38.9951 18.8535C37.3757 19.7518 36.111 21.0166 35.1653 22.6005C34.3497 23.9835 33.8296 25.461 33.7705 27.0568C33.6996 29.1135 33.7351 31.1702 33.7233 33.2152C33.7233 33.3097 33.806 33.4397 33.8888 33.5107C34.2788 33.7944 34.6807 34.0544 35.0826 34.3144C35.189 34.3854 35.2717 34.4327 35.3899 34.2908C35.8864 33.7116 36.3828 33.1442 36.8911 32.565C37.6712 31.6785 38.4514 30.7802 39.2434 29.8937C40.8155 28.1442 42.6003 26.6076 44.5152 25.2483C45.8155 24.3263 47.1748 23.5225 48.6051 22.8133C49.5389 22.3523 50.4963 21.9622 51.4656 21.5721C52.1393 21.3003 52.8249 21.0757 53.5105 20.8274C53.7115 20.7565 53.7942 20.6501 53.7942 20.4256C53.7942 18.4752 53.7942 16.5248 53.7942 14.5745C53.7942 14.4799 53.7942 14.3972 53.7824 14.2553V14.2672ZM11.3356 46.714C11.3356 46.714 11.371 46.7376 11.3947 46.7494C11.6665 46.3948 11.9384 46.0284 12.2102 45.6738C14.066 43.2861 15.9218 40.8866 17.7894 38.4989C17.8958 38.357 17.8958 38.2743 17.7894 38.1442C16.7138 36.7731 15.65 35.3901 14.5743 34.0071C13.8178 33.0379 13.0731 32.0568 12.3166 31.0757C12.0093 30.6738 11.6902 30.2837 11.3356 29.8345V46.7258V46.714ZM17.8958 39.7282C19.7871 42.0922 21.6665 44.4445 23.5932 46.8558V38.7825C22.8249 38.5579 22.0684 38.3334 21.3119 38.1206C21.0755 38.0615 20.9218 37.9078 20.9455 37.6951C20.9691 37.5414 21.111 37.3523 21.2528 37.2814C21.9384 36.9267 22.624 36.584 23.3332 36.2648C23.5578 36.1702 23.605 36.052 23.605 35.8274C23.605 33.9125 23.605 31.9977 23.605 30.0828C23.605 30 23.6051 29.9291 23.5932 29.7754C21.6665 32.1868 19.7871 34.539 17.9077 36.9031C18.1795 37.2577 18.4396 37.5887 18.6878 37.9078C18.9597 38.2624 18.9597 38.3806 18.6878 38.7234C18.4278 39.0544 18.1677 39.3735 17.8958 39.7282ZM23.0731 47.6714C23.0731 47.6714 23.1086 47.6241 23.1204 47.6005C21.2055 45.2128 19.2906 42.8251 17.3639 40.4137C15.4845 42.8369 13.6405 45.2246 11.7374 47.6714H23.0731ZM11.7256 28.948C13.6287 31.3948 15.4845 33.7825 17.3639 36.2057C19.3143 33.7707 21.2292 31.383 23.1795 28.948H11.7256Z" fill="white" stroke="white" stroke-width="0.75" stroke-miterlimit="10"/>
</svg>
