<svg width="70" height="70" viewBox="0 0 70 70" fill="none" xmlns="http://www.w3.org/2000/svg">
<path d="M35 70C54.33 70 70 54.33 70 35C70 15.67 54.33 0 35 0C15.67 0 0 15.67 0 35C0 54.33 15.67 70 35 70Z" fill="#9DD9DB"/>
<path fill-rule="evenodd" clip-rule="evenodd" d="M50.1777 35.0118C50.1777 37.0922 50.1304 39.1726 50.2014 41.2529C50.225 42.0922 49.9177 42.5532 49.2321 42.9314C46.5371 44.4326 43.842 45.9456 41.1706 47.4823C39.5512 48.4161 37.9437 49.3972 36.3598 50.3901C35.485 50.9338 34.7522 50.9811 33.7829 50.4019C30.0713 48.1915 26.3243 46.0638 22.5418 43.9953C20.6742 42.9669 19.6103 41.7967 19.8113 39.3972C20.0832 36.0638 19.9177 32.695 19.8704 29.3381C19.8586 28.1678 20.1895 27.3759 21.277 26.7849C25.1541 24.6454 29.1257 22.6477 32.7664 20.1537C34.8113 18.7589 36.1588 19.3735 37.8255 20.3664C41.6316 22.6241 45.4732 24.8109 49.2675 27.104C49.7167 27.3759 50.1068 28.1087 50.1304 28.6525C50.225 30.7801 50.1659 32.9078 50.1659 35.0355L50.1777 35.0118ZM34.0193 47.7541C34.0193 44.3026 34.0548 41.0402 33.9839 37.7896C33.9839 37.3168 33.511 36.7021 33.0855 36.4303C30.816 35.0118 28.4992 33.6643 26.1706 32.3404C24.9177 31.6194 23.6056 30.9811 22.1044 30.1891C22.1044 33.8061 22.0808 37.104 22.1399 40.4019C22.1399 40.7801 22.6245 41.2766 23.0028 41.513C25.3196 42.9433 27.66 44.3381 30.0241 45.6856C31.2888 46.4066 32.6009 47.0331 34.0075 47.7541H34.0193ZM36.277 47.7778C39.2912 46.0047 42.0453 44.2671 44.9177 42.7541C46.8444 41.7376 48.3692 40.8629 47.9791 38.1442C47.6127 35.6383 47.8964 33.0378 47.8964 30.26C46.4425 30.9338 45.1068 31.4421 43.8775 32.1395C41.478 33.5106 39.1375 34.9764 36.7971 36.4539C36.5134 36.6312 36.2888 37.1158 36.2888 37.4704C36.2534 40.8274 36.2652 44.1726 36.2652 47.7778H36.277ZM23.5465 28.0851C23.7475 28.3333 23.8775 28.6052 24.0903 28.7352C27.4354 30.6501 30.7806 32.5532 34.1612 34.409C34.5867 34.6454 35.3077 34.7518 35.686 34.539C36.9389 33.8771 38.0973 33.0378 39.4803 32.1395C35.7924 30 32.2699 27.9433 28.712 25.9338C28.3928 25.7565 27.8136 25.7447 27.4709 25.9102C26.1706 26.5603 24.9295 27.305 23.5229 28.0851H23.5465ZM46.3952 28.0969C43.4283 26.3357 40.5442 24.5981 37.6363 22.896C36.8089 22.4113 35.7569 21.5485 35.0595 21.7494C33.4638 22.2222 32.0217 23.2388 30.3432 24.1371C33.1564 25.7565 35.6978 27.1986 38.2037 28.6761C39.1139 29.208 39.9649 30.2009 40.8988 30.2955C42.991 30.4964 44.7995 29.5272 46.3834 28.1087L46.3952 28.0969Z" fill="white"/>
<path fill-rule="evenodd" clip-rule="evenodd" d="M17.7542 22.0566C19.5509 21.7493 21.0166 21.4301 22.4941 21.3001C22.9079 21.2646 23.6525 21.7847 23.7235 22.1512C23.8062 22.5649 23.357 23.4632 23.0379 23.5105C20.6384 23.9242 18.2152 24.1724 15.8038 24.468C14.8464 24.5862 14.5154 24.1961 14.4327 23.2032C14.2554 21.0046 13.889 18.8297 13.6171 16.6429C13.558 16.1819 13.6171 15.7209 13.6171 15.2954C15.1064 14.7516 15.6265 15.5081 15.8157 16.6665C15.993 17.7776 16.0993 18.8888 16.2412 20.059C17.4941 18.8769 18.6525 17.624 19.9646 16.5483C24.7991 12.5767 30.4138 10.7209 36.6076 11.2528C42.6951 11.7729 47.9315 14.3143 52.0686 18.9597C54.4445 21.6311 56.0757 24.6334 57.1159 28.085C58.2743 31.9384 58.3452 35.8273 57.506 39.6098C55.9575 46.4892 51.9741 51.6784 45.7093 55.1417C41.0993 57.6949 36.1585 58.1559 31.1585 57.5531C28.5107 57.2339 25.9693 55.8509 23.428 54.858C22.7187 54.5743 22.3641 53.806 23.0261 53.1677C23.3334 52.8722 24.1372 52.7304 24.5036 52.9313C28.9126 55.3545 33.5462 55.9455 38.4871 55.1772C43.5225 54.397 47.6715 51.962 50.8275 48.2032C55.0001 43.2268 56.5722 37.3521 55.4019 30.8155C54.2672 24.4207 50.9339 19.598 45.3783 16.3592C40.5911 13.5696 35.4611 12.6358 30.0001 14.007C25.1183 15.2245 21.1348 17.7895 17.7897 22.0566H17.7542Z" fill="white"/>
</svg>
