<svg width="70" height="70" viewBox="0 0 70 70" fill="none" xmlns="http://www.w3.org/2000/svg">
<path d="M35 70C54.33 70 70 54.33 70 35C70 15.67 54.33 0 35 0C15.67 0 0 15.67 0 35C0 54.33 15.67 70 35 70Z" fill="#9DD9DB"/>
<path fill-rule="evenodd" clip-rule="evenodd" d="M52.7897 37.5651C52.7897 41.5131 52.7543 45.4492 52.8252 49.3972C52.8252 49.8937 53.4753 50.3547 53.6881 50.8747C53.889 51.3476 53.9127 51.9031 54.0191 52.4232C53.4872 52.4232 52.837 52.6478 52.4588 52.4232C49.9765 50.922 48.4871 48.7353 48.0025 45.8393C47.7188 44.1608 47.3051 42.506 46.8441 40.8748C46.6786 40.2719 46.2058 39.7636 45.8749 39.2081C45.6976 39.2081 45.5084 39.2081 45.3311 39.2081C45.2129 39.9409 45.0238 40.662 44.9765 41.3949C44.5037 48.0852 45.1774 54.6691 46.785 61.1703C46.986 61.9741 46.8441 62.9079 46.655 63.7235C46.5959 64.0072 45.8867 64.3027 45.4848 64.2908C45.2366 64.279 44.8938 63.688 44.8347 63.3216C44.1845 59.4327 43.5817 55.532 42.9907 51.6312C42.8134 50.4847 42.0214 50.4847 41.1585 50.4847C35.4257 50.4847 29.7046 50.4847 23.9836 50.4847C21.3949 50.4847 15.9103 50.4965 13.3217 50.4847C11.2058 50.461 10.473 49.7045 10.4611 47.5769C10.4611 38.0024 10.473 28.4161 10.4375 18.8416C10.4375 17.2932 11.0049 16.6785 12.5652 16.6785C24.2909 16.714 38.9245 16.714 50.6503 16.6785C52.2224 16.6785 52.8134 17.2814 52.7897 18.8298C52.7425 23.1797 52.7188 27.5296 52.8134 31.8795C52.837 32.7778 53.2271 33.7826 53.7354 34.5391C56.3477 38.4634 59.0309 42.305 60.2484 46.974C60.9339 49.5745 60.6148 51.9504 59.5628 54.3381C58.4635 56.844 57.3524 59.3499 56.3477 61.9031C56.064 62.636 56.2176 63.5343 56.0049 64.3027C55.8867 64.74 55.4257 65.0828 55.1183 65.4729C54.7401 65.0946 54.0191 64.7045 54.0191 64.3381C54.0427 63.1679 54.1609 61.9268 54.5746 60.8393C55.5794 58.1797 56.6786 55.5438 57.8961 52.967C59.0309 50.5556 58.6999 48.1442 57.7779 45.922C56.5486 42.9788 54.8819 40.2128 53.4162 37.3641C53.2035 37.435 52.9907 37.506 52.7897 37.5651ZM50.2129 45.9693C50.3311 45.9693 50.4611 45.993 50.5793 46.0048C50.6384 45.5438 50.733 45.0946 50.733 44.6336C50.733 36.6549 50.7094 28.6762 50.7685 20.6974C50.7803 19.1372 50.2011 18.7589 48.7235 18.7589C38.2153 18.8062 24.7992 18.818 14.2909 18.7589C12.8016 18.7589 12.447 19.2317 12.4588 20.6502C12.5179 29.2908 12.4824 37.9315 12.4942 46.5721C12.4942 47.1041 12.5533 47.636 12.577 48.227C12.9434 48.2979 13.2035 48.3925 13.4635 48.3925C21.8323 48.3925 33.0971 48.3925 41.4659 48.4161C42.5297 48.4161 42.7425 47.896 42.7661 46.9859C42.8134 44.6218 42.8843 42.2695 43.0143 39.9055C43.0852 38.487 43.889 37.4941 45.2602 37.2223C46.6314 36.9504 47.5297 37.8015 48.1444 38.9362C48.4635 39.5154 48.7826 40.1064 48.9481 40.7329C49.4091 42.4705 49.7992 44.2317 50.2247 45.9811L50.2129 45.9693Z" fill="white"/>
<path fill-rule="evenodd" clip-rule="evenodd" d="M25.2839 28.4516C25.3549 27.1159 25.2485 26.0166 25.4967 25.0119C26.1232 22.5532 29.3383 21.5958 31.3596 23.227C31.9506 23.6998 32.3407 23.6171 32.8017 23.1561C33.9009 22.0331 35.2367 22.435 36.4069 22.7896C37.7071 23.1797 38.7355 24.1017 38.7237 25.662C38.7237 26.4894 38.6054 27.3168 38.5345 28.3452C39.1374 28.3452 39.8466 28.3807 40.544 28.3452C41.4187 28.2861 41.8324 28.688 41.8442 29.5272C41.856 30.5792 41.9151 31.6312 41.8088 32.6714C41.7733 33.0615 41.395 33.6525 41.0759 33.7234C40.2839 33.9007 40.2958 34.3736 40.2958 34.9646C40.2958 37.3878 40.2839 39.7991 40.2958 42.2223C40.2958 43.2743 39.9293 43.7116 38.7946 43.6998C34.1965 43.6407 29.6102 43.6525 25.0121 43.6998C23.8891 43.6998 23.4991 43.2152 23.4991 42.175C23.5109 39.7518 23.4991 37.3405 23.4991 34.9173C23.4991 34.3145 23.5109 33.7825 22.7071 33.7234C22.5062 33.7116 22.1515 33.4752 22.1397 33.3334C22.1161 31.8204 22.1397 30.3074 22.2107 28.7944C22.2107 28.6643 22.8135 28.4989 23.1445 28.4752C23.9364 28.4279 24.7402 28.4634 25.2721 28.4634L25.2839 28.4516ZM25.2248 37.8487C25.2248 38.9362 25.2248 40.0237 25.2248 41.1112C25.2248 41.8204 25.5085 42.1159 26.2414 42.0922C27.5298 42.045 28.8182 42.045 30.1066 42.0922C30.8631 42.1159 31.0995 41.7495 31.0995 41.0757C31.0995 38.9835 31.0995 36.8913 31.0995 34.7991C31.0995 34.1017 30.8631 33.7589 30.1185 33.7825C28.7946 33.818 27.4589 33.818 26.135 33.7825C25.4494 33.7707 25.1894 34.0544 25.2012 34.7163C25.2248 35.7684 25.2012 36.8086 25.2012 37.8606L25.2248 37.8487ZM38.6409 33.7944C36.8324 33.7944 35.1894 33.7589 33.5463 33.8298C33.3099 33.8298 32.8844 34.3026 32.8844 34.5627C32.8371 36.8204 32.8371 39.078 32.8844 41.3239C32.8844 41.584 33.3218 42.0331 33.5582 42.045C35.0002 42.1159 36.4541 42.1159 37.9081 42.045C38.1681 42.0331 38.6055 41.6076 38.6173 41.3712C38.6646 38.9244 38.6527 36.4658 38.6527 33.7944H38.6409ZM29.3974 28.3688C29.7166 28.3688 30.0357 28.3688 30.3667 28.3688C31.0404 28.3807 31.3241 28.0497 31.2414 27.3877C31.1705 26.8322 31.1705 26.253 31.0286 25.7211C30.7331 24.5627 29.9648 24.0544 28.7473 23.9835C27.5653 23.9126 27.1988 24.6572 26.9033 25.5201C26.3123 27.2695 27.3407 28.4161 29.3974 28.3688ZM32.8371 26.6667C32.8214 27.8015 33.3887 28.3649 34.5392 28.357C34.7757 28.357 35.0239 28.3688 35.2603 28.3334C36.3123 28.1915 37.2225 27.0922 37.1752 26.052C37.1161 24.9409 36.1941 24.0781 35.0357 24.0544C33.2863 24.019 32.8726 24.5154 32.8371 26.6667ZM27.4352 32.1159V32.1395C28.3927 32.1395 29.362 32.1277 30.3194 32.1395C31.0995 32.1513 31.1114 31.6312 31.0995 31.0875C31.0877 30.5674 31.1586 30 30.3549 30C28.4045 30 26.4423 30.0119 24.492 30C23.6882 30 23.7118 30.5201 23.7118 31.052C23.7118 31.5603 23.6173 32.1513 24.4447 32.1277C25.4376 32.1041 26.4423 32.1277 27.4471 32.1277L27.4352 32.1159ZM40.0593 30.0828H32.9199V32.0213H40.0593V30.0828Z" fill="white"/>
</svg>
