<svg width="70" height="70" viewBox="0 0 70 70" fill="none" xmlns="http://www.w3.org/2000/svg">
<path d="M35 70C54.33 70 70 54.33 70 35C70 15.67 54.33 0 35 0C15.67 0 0 15.67 0 35C0 54.33 15.67 70 35 70Z" fill="#9DD9DB"/>
<path fill-rule="evenodd" clip-rule="evenodd" d="M31.3946 32.6832C41.0754 33.9007 50.6617 35.1064 60.3071 36.3239C60.4844 34.9409 60.6499 33.5815 60.8272 32.1867C60.0825 32.0922 59.3733 31.9976 58.6641 31.9149C56.9265 31.7021 55.2007 31.5012 53.4631 31.2648C53.1676 31.2293 52.8958 31.052 52.6239 30.9456C52.5057 30.8983 52.3875 30.8747 52.3048 30.8392C52.3757 30.6265 52.4466 30.4373 52.5057 30.2482C52.6239 29.87 52.9549 29.6572 53.404 29.7045C55.0234 29.9054 56.6546 30.1064 58.274 30.3073C59.1724 30.4137 60.0707 30.5319 61.0163 30.6383C61.0873 30.1182 61.1345 29.6217 61.2055 29.1253C61.3237 28.2742 61.5482 27.4231 61.5482 26.5721C61.5482 25.9338 61.4182 25.2364 61.1345 24.6808C60.839 24.1135 60.2007 23.8298 59.527 23.7234C57.4584 23.4042 55.4017 23.0614 53.3331 22.7187C52.7421 22.6241 52.4348 22.1749 52.6121 21.6785C52.7421 21.3239 53.0731 21.1111 53.5104 21.182C55.709 21.5248 57.9076 21.8676 60.0943 22.2458C61.0991 22.4231 61.9383 22.9905 62.4702 23.8416C62.7894 24.3499 62.8839 25 63.0376 25.591C63.2386 26.4066 63.0021 27.1986 62.8958 28.0023C62.1865 33.8298 61.4537 39.6572 60.7326 45.4728C60.4135 48.0496 59.9407 52.3168 59.7516 53.9834C59.4679 56.182 59.0423 57.1631 57.2811 57.4113C56.3 57.5532 55.3662 57.4113 54.4088 57.2813C48.9951 56.5721 43.5695 55.922 38.144 55.2364C33.6523 54.6808 29.1487 54.1135 24.657 53.5579C20.5908 53.0496 16.5246 52.5413 12.4466 52.0331C12.0329 51.9858 11.631 51.8912 11.2173 51.8203C9.70428 51.5603 8.72319 50.5792 7.94305 49.3499C7.54116 48.7234 7.45842 48.0023 7.5648 47.2458C7.93123 44.6099 8.25038 41.9622 8.59317 39.3144C9.23147 34.3617 9.85795 29.3971 10.4962 24.4444C10.6617 23.1442 10.8154 21.8321 10.9927 20.5319C11.0754 19.9054 11.1936 19.2908 11.3237 18.6643C11.5364 17.6832 12.0802 16.9149 13.014 16.5366C13.4395 16.3711 13.9596 16.3357 14.4206 16.3711C16.7965 16.5839 19.1724 16.8439 21.5483 17.0922C22.2102 17.1631 22.5175 17.6596 22.2338 18.2742C22.0683 18.617 21.7256 18.6643 21.3828 18.6288C20.5908 18.5461 19.7988 18.4279 18.9951 18.357C17.4111 18.2033 15.8272 18.0496 14.2551 17.9196C13.4395 17.8487 12.9431 18.2742 12.8012 19.1607C12.5648 20.721 12.352 22.2813 12.1274 23.8416C12.092 24.0544 12.0802 24.2671 12.0447 24.5272C13.014 24.6335 13.9241 24.7399 14.8343 24.8345C18.1322 25.1891 21.4419 25.5555 24.7397 25.9101C24.9525 25.9338 25.1653 25.9338 25.3899 25.9338C26.0163 25.9574 26.3591 26.5484 26.0636 27.1158C25.9927 27.2458 25.9691 27.3995 25.8981 27.5886C21.2646 27.0922 16.5719 26.5839 11.8438 26.0756C11.6665 27.4231 11.501 28.7588 11.3237 30.13C17.8367 30.9456 24.326 31.7612 30.7445 32.565M11.1464 31.7021C11.1109 31.9385 11.0754 32.1158 11.0518 32.3049C10.8745 33.6643 10.709 35.0354 10.5317 36.3948C10.0589 40.0709 9.5979 43.747 9.11326 47.4231C9.04234 47.9669 9.13691 48.4279 9.44423 48.877C10.118 49.87 11.0754 50.3546 12.2338 50.4964C15.7799 50.9338 19.326 51.383 22.8721 51.8203C27.9194 52.4468 32.9785 53.0733 38.0258 53.6997C43.0613 54.3262 48.1085 54.9527 53.144 55.5792C53.8769 55.6737 56.6428 55.9811 57.2811 55.8274C57.6712 55.7328 57.813 55.6856 58.0494 55.0591C58.1558 54.7163 58.274 53.4515 58.2977 53.2506C58.8414 48.8061 59.2787 44.5153 59.8343 40.0591C59.9289 39.3262 60.0116 38.5934 60.1062 37.8369C43.7705 35.7801 27.4821 33.7352 11.1345 31.6785L11.1464 31.7021Z" fill="white"/>
<path fill-rule="evenodd" clip-rule="evenodd" d="M39.4799 38.2979C39.4444 38.026 39.3735 37.766 39.2553 37.5296C39.1489 37.3168 38.948 37.0804 38.948 37.0686C38.6643 36.7376 38.3097 36.5248 37.896 36.4066C37.5886 36.3239 37.2695 36.3002 36.9503 36.3475C36.5957 36.4066 36.2766 36.5366 35.9929 36.7494C35.4137 37.1986 35.8156 36.8676 35.2364 37.3168C35.1418 37.3877 34.7045 37.6832 34.4681 37.9196C34.2553 38.0851 34.208 38.3806 34.3971 38.6052C34.6808 38.948 34.9172 39.2553 35.1655 39.5626C35.0236 39.6809 35.2364 39.5272 34.669 39.9645C34.4799 40.1182 34.2789 40.2364 34.0307 40.26C33.617 40.2955 33.286 40.1537 33.0378 39.8463C32.7659 39.5035 32.5059 39.1489 32.2222 38.8061C32.0331 38.5579 31.9149 38.2979 31.9149 37.9787C31.9149 37.7069 31.9858 37.4586 32.1513 37.2459C32.4113 36.8913 32.7659 36.7021 33.2151 36.7139C33.5224 36.7139 33.7943 36.8203 34.0307 37.0213C34.1489 37.1158 34.3144 37.3168 34.3262 37.3404C34.5863 37.1986 35.1064 36.6785 34.2908 36.0875C34.1016 35.9574 33.8298 35.8865 33.7707 35.8747C33.4752 35.792 33.1796 35.7683 32.8841 35.8156C32.5532 35.8629 32.2577 35.9693 31.974 36.1584C31.4421 36.513 31.1229 37.0213 31.0047 37.6478C30.9574 37.896 30.9692 38.1442 31.0165 38.3924C31.0756 38.7352 31.2175 39.0544 31.4302 39.3262C31.7376 39.7163 32.0449 40.1064 32.3404 40.5083C32.6241 40.8865 32.9905 41.1466 33.4633 41.2411C33.9243 41.3475 34.3735 41.2884 34.7872 41.0402C35.0118 40.9102 35.3782 40.591 36.1111 40.0236C36.2057 39.9409 36.2648 39.8345 36.2766 39.7163C36.2766 39.7163 36.2766 39.7163 36.2766 39.7045C36.2766 39.6454 36.2766 39.5863 36.2529 39.5272C36.2293 39.4444 36.182 39.3735 36.1229 39.3144C35.8274 38.9598 35.6383 38.6998 35.4137 38.4043C35.9811 37.9669 35.8392 38.0615 36.4421 37.5887C36.6548 37.4232 36.8794 37.2931 37.1631 37.2695C37.565 37.234 37.896 37.3522 38.1915 37.6123C38.2033 37.6241 38.3806 37.8014 38.4752 38.026C38.5461 38.1797 38.5697 38.3452 38.5697 38.5225C38.5697 38.7352 38.5224 38.9244 38.4279 39.1135C38.3333 39.3026 38.1796 39.4444 38.0142 39.5745C37.2458 40.1655 36.4893 40.7683 35.7328 41.3593C35.461 41.5721 35.2009 41.7967 34.8936 41.9504C34.5272 42.1277 34.1607 42.1631 33.7825 42.0449C33.6643 42.0095 33.5579 41.9504 33.4397 41.9031C33.4397 41.9031 33.4397 41.9031 33.4397 41.9149C33.5934 42.0804 33.7352 42.2459 33.8889 42.3995C34.0544 42.5532 34.2435 42.6714 34.4562 42.7541C34.8345 42.8842 35.1891 42.8251 35.5319 42.6478C35.7683 42.5296 35.9692 42.3522 36.1702 42.1986C36.974 41.5721 37.7778 40.9456 38.5934 40.3191C38.9362 40.0473 39.208 39.7281 39.3617 39.3144C39.4917 38.9834 39.5272 38.6525 39.4917 38.2979" fill="white"/>
<path fill-rule="evenodd" clip-rule="evenodd" d="M51.3473 27.4705C50.2125 24.7281 49.1251 21.9622 48.0021 19.2199C47.7303 18.5461 47.2338 18.0733 48.0494 17.5177C48.3804 17.2931 49.0187 16.7376 48.8768 16.2766C48.5104 15.0473 47.9549 13.7707 47.4584 12.5887C47.0565 11.643 46.3591 11.3239 45.3899 11.7967C44.6215 12.1749 44.1014 12.234 43.4159 12.5059C43.0376 11.3002 42.7776 10.3073 42.3993 9.3617C41.6901 7.58866 40.1062 7.00946 38.4395 7.16312C36.9501 7.30497 35.2362 7.44681 34.5033 9.23168C34.2078 9.96454 33.7823 10.2482 32.8958 9.97636C29.8461 9.04256 26.631 11.6076 27.0447 14.6927C27.222 15.9456 27.8485 17.1513 28.3804 18.6998C27.7776 18.948 27.1274 19.1017 26.2527 19.5154C25.8863 19.6927 25.2835 20.1537 25.3307 20.3073C25.9218 22.0567 26.6073 23.7943 27.3284 25.4965C27.3993 25.6501 27.9076 25.7565 28.1558 25.6856C29.1133 25.3901 29.3733 26.1702 29.6452 26.8558C30.3189 28.5461 31.0045 30.2364 31.6901 31.9149L33.5341 32.1986C33.1676 31.2648 32.8012 30.3428 32.4348 29.409H32.4111C31.9265 28.2151 31.4655 27.0213 30.9572 25.8392C30.6381 25.0946 30.7799 24.409 31.5601 24.1135C33.0849 23.5343 34.6333 22.9551 36.1227 22.305C36.962 21.9385 37.7776 22.3522 38.0967 23.1442C39.0423 25.5319 40.1062 27.9551 41.0754 30.331C41.3828 31.0993 41.4064 31.6785 40.5317 31.9976C39.8816 32.234 39.2315 32.4823 38.5932 32.7423L42.1274 33.1915V33.2506C44.9998 32.0804 47.4348 30.9338 50.3189 29.7991C51.6192 29.2908 51.8437 28.6288 51.3473 27.435V27.4705ZM28.7232 14.6809C28.6523 13.5697 28.8887 12.3168 30.2716 11.844C31.6901 11.3593 33.3804 11.4894 34.066 12.7778C34.5151 13.617 34.6688 14.0189 34.8816 14.669C35.1771 15.5792 34.917 16.1229 34.1605 16.4657C33.6523 16.7021 33.4277 16.7612 33.0612 16.9031C30.7326 17.896 28.865 16.9267 28.7232 14.6572V14.6809ZM35.8272 20.6028C34.7279 21.0284 33.6404 21.4775 32.5412 21.9267C32.5412 21.9267 32.5412 21.9149 32.5412 21.9031C31.4064 22.3641 30.2598 22.8014 29.1251 23.2861C28.1913 23.6879 28.0376 22.9787 27.7894 22.3995C27.5411 21.7967 27.1274 21.0402 28.0376 20.6856C30.2716 19.8109 32.4939 18.9007 34.7161 17.9905C35.6381 17.6123 35.969 18.4515 36.2291 19.0426C36.501 19.6572 36.7255 20.26 35.8272 20.6028ZM35.9809 13.156C35.0234 10.6856 35.2244 9.81088 37.2338 9.04256C38.5695 8.53428 40.5553 9.14894 41.1227 10.4019C41.6664 11.5603 41.7728 13.0851 40.6381 13.7352C40.378 13.8771 39.3851 14.279 39.1133 14.3853C37.1629 15.1891 36.7374 15.0946 35.9809 13.156ZM38.7232 19.279C38.4395 18.5816 38.0376 17.6596 37.7185 16.8558C40.3898 15.7801 43.0258 14.7163 45.839 13.5697C46.1345 14.3144 46.5246 15.1891 46.8438 15.9929C44.1487 17.0804 41.4891 18.156 38.7232 19.2671V19.279ZM48.9951 28.3924C47.3757 29.1253 45.7326 29.7991 44.0423 30.3901C43.7586 30.4846 43.0612 30.1773 42.943 29.8818C41.8438 27.3404 40.8036 24.7754 39.8343 22.1868C39.7161 21.8913 39.988 21.1702 40.2598 21.052C42.092 20.2246 43.9832 19.5035 46.04 18.6761C47.2693 21.7139 48.4159 24.4917 49.4797 27.305C49.5861 27.5768 49.2669 28.2624 48.9832 28.3924H48.9951Z" fill="white"/>
<path d="M21.0285 47.0332C20.7211 47.0923 20.1538 47.1632 19.5982 47.0923C18.8299 46.9977 18.298 46.7258 17.9552 46.3003C17.6124 45.8866 17.4705 45.3074 17.5533 44.6927C17.7424 43.2979 18.8653 42.6242 20.2365 42.8015C20.7802 42.8724 21.1821 43.0379 21.3831 43.1561L21.0876 43.8889C20.8748 43.7589 20.5911 43.6407 20.1301 43.5816C19.3382 43.4752 18.6762 43.8535 18.558 44.7636C18.4516 45.6265 18.9244 46.2176 19.7046 46.3121C19.9174 46.3358 20.1065 46.3358 20.1774 46.3121L20.2956 45.4256L19.6455 45.3428L19.74 44.5982L21.3122 44.7991L21.0285 47.0213V47.0332Z" fill="white"/>
<path d="M23.7111 43.2979L23.1674 47.5059L22.21 47.3877L22.7537 43.1797L23.7111 43.2979Z" fill="white"/>
<path d="M24.9996 43.4634L27.5764 43.7943L27.4819 44.5745L25.8625 44.3617L25.7443 45.3192L27.2573 45.5083L27.1627 46.2766L25.6497 46.0875L25.4369 47.7778L24.4795 47.6596L25.0232 43.4515L24.9996 43.4634Z" fill="white"/>
<path d="M29.4678 44.8464L28.333 44.7045L28.4394 43.9008L31.6782 44.3145L31.5718 45.1182L30.4252 44.9764L29.9879 48.3807L29.0304 48.2625L29.4678 44.8582V44.8464Z" fill="white"/>
<path d="M36.9383 49.1607C36.7491 49.2199 36.3472 49.2671 35.839 49.208C34.3851 49.0189 33.7468 48.0142 33.9123 46.8203C34.1014 45.3901 35.2243 44.7163 36.5009 44.8818C36.9974 44.9409 37.352 45.0946 37.5175 45.2009L37.222 45.9338C37.0328 45.8274 36.7846 45.721 36.4418 45.6738C35.6853 45.5792 35.047 45.9574 34.917 46.8912C34.8106 47.7305 35.2361 48.3333 36.0872 48.4397C36.3709 48.4752 36.7019 48.4515 36.9028 48.4042L36.9501 49.1607H36.9383Z" fill="white"/>
<path d="M39.1959 48.4752L38.7585 49.5153L37.7656 49.3853L39.5978 45.3428L40.8507 45.5083L41.6191 49.8818L40.5907 49.7518L40.4016 48.6288L39.1959 48.4752ZM40.3543 47.896L40.2124 46.974C40.1652 46.7139 40.1297 46.3948 40.1061 46.1347H40.0942C39.9997 46.3711 39.8933 46.6903 39.7987 46.9149L39.4323 47.7778L40.3661 47.896H40.3543Z" fill="white"/>
<path d="M43.1793 45.8629C43.4866 45.8629 43.9476 45.8629 44.4559 45.9338C45.0823 46.0165 45.5079 46.1584 45.7797 46.4421C46.0043 46.6785 46.0989 46.9858 46.0516 47.3759C45.9807 47.9078 45.5552 48.2269 45.1769 48.3215V48.3451C45.4488 48.4988 45.5788 48.8061 45.6379 49.208C45.7088 49.7045 45.7679 50.26 45.827 50.4373L44.8578 50.3073C44.7987 50.1773 44.7514 49.8227 44.6923 49.2908C44.645 48.747 44.4795 48.5815 44.1013 48.5343L43.8176 48.4988L43.6048 50.1536L42.6592 50.0354L43.1911 45.8865L43.1793 45.8629ZM43.8885 47.7896L44.2667 47.8369C44.7396 47.896 45.0587 47.695 45.106 47.3286C45.1533 46.9385 44.9169 46.7139 44.4795 46.6548C44.2549 46.6194 44.1131 46.6312 44.0422 46.6312L43.8885 47.7896Z" fill="white"/>
<path d="M47.3405 46.3948C47.6951 46.3948 48.1561 46.4066 48.6407 46.4775C49.4445 46.5839 49.941 46.7848 50.3074 47.1513C50.6975 47.5295 50.9103 48.0851 50.8157 48.8298C50.7093 49.6335 50.3429 50.1536 49.8937 50.4491C49.4091 50.7565 48.7117 50.851 47.8842 50.7447C47.3878 50.6856 47.045 50.6028 46.8086 50.5437L47.3405 46.4066V46.3948ZM47.8488 49.9527C47.9315 49.9763 48.0615 50 48.1798 50.0118C49.0426 50.13 49.6691 49.7281 49.7873 48.7234C49.9055 47.8487 49.4564 47.3168 48.6407 47.2222C48.428 47.1986 48.2861 47.1986 48.2034 47.1986L47.8488 49.9527Z" fill="white"/>
</svg>
