<svg width="70" height="70" viewBox="0 0 70 70" fill="none" xmlns="http://www.w3.org/2000/svg">
<path d="M35 70C54.33 70 70 54.33 70 35C70 15.67 54.33 0 35 0C15.67 0 0 15.67 0 35C0 54.33 15.67 70 35 70Z" fill="#9DD9DB"/>
<path fill-rule="evenodd" clip-rule="evenodd" d="M38.381 48.6407C37.9318 48.1088 37.66 47.7778 37.3763 47.4587C36.8798 46.9149 36.7498 46.2885 36.7498 45.5556C36.7498 43.0379 35.1186 41.1584 33.0146 40.6738C30.3668 40.071 28.0382 41.3003 27.0926 43.6643C26.8798 44.2081 26.7025 44.8464 26.7616 45.4138C26.8798 46.5958 26.277 47.3759 25.5441 48.1443C25.4496 48.2388 25.3668 48.3334 25.1186 48.6052C25.8633 48.688 26.4306 48.818 26.998 48.8062C27.5654 48.7826 27.9909 48.8889 28.4519 49.2554C28.9838 49.6691 29.6694 49.8818 30.2132 50.2837C30.5678 50.5438 30.9697 50.9457 31.0406 51.3476C31.1233 51.7967 30.7805 52.2341 30.2132 52.3759C27.1753 53.1324 25.8278 55.3428 25.2723 58.2152C25.1422 58.9008 25.024 59.5745 24.894 60.2601C24.7876 60.8275 24.3503 61.1466 23.7474 61.0757C23.1564 61.0166 22.7663 60.6502 22.8136 60.071C22.8964 59.0781 23.0028 58.0852 23.2628 57.1277C23.7711 55.2246 24.5276 53.4279 26.0879 52.1041C26.4425 51.7967 26.8207 51.5131 27.2699 51.1466C26.5725 51.0402 25.9697 50.9575 25.3786 50.8511C24.1139 50.6147 22.9909 50.0237 21.9389 49.3145C21.4661 48.9953 21.1706 48.5816 21.3479 47.967C21.5252 47.3405 21.998 47.2105 22.5772 47.1986C23.7002 47.1632 24.433 46.4185 24.5394 45.3192C24.8349 42.0686 26.4306 39.6927 29.5512 38.688C33.05 37.5651 36.6789 39.0899 38.2155 42.4823C38.5938 43.2979 38.7593 44.2435 38.8775 45.1419C39.0311 46.383 39.7285 47.1513 41.0051 47.1986C41.537 47.2223 41.9744 47.3759 42.1399 47.9197C42.3054 48.4634 42.128 48.9244 41.6434 49.2435C41.3361 49.4445 41.0406 49.6573 40.7214 49.8346C39.3621 50.6265 37.8964 51.0639 36.0997 51.0757C36.6316 51.4776 37.0217 51.7258 37.3645 52.0331C38.9957 53.5107 39.8349 55.4256 40.3077 57.5178C40.485 58.2861 40.6269 59.0544 40.7096 59.8346C40.7924 60.6265 40.1895 61.1821 39.4212 61.0639C38.7829 60.9693 38.6292 60.4729 38.5228 59.9291C38.3219 58.8889 38.1328 57.8369 37.8373 56.8322C37.199 54.5982 35.8042 53.0497 33.4992 52.4469C32.9082 52.2932 32.4472 52.0213 32.4472 51.3712C32.4472 50.7211 32.8846 50.4492 33.4401 50.2246C34.0193 49.9882 34.5276 49.5391 35.095 49.2672C35.5087 49.0662 35.9578 48.9244 36.407 48.8417C37.0098 48.7353 37.6245 48.7235 38.381 48.6643V48.6407Z" fill="white"/>
<path fill-rule="evenodd" clip-rule="evenodd" d="M14.6218 41.9621C14.6218 44.007 15.9339 45.8746 17.8369 46.5957C18.3216 46.7848 18.8653 46.9621 18.9244 47.6122C18.9835 48.2623 18.6998 48.6642 18.0733 48.8297C16.4776 49.2434 15.1655 50.0709 14.3263 51.5248C13.4871 52.9668 13.0852 54.5389 12.9433 56.182C12.8606 57.1394 12.3287 57.6359 11.5603 57.4822C10.9811 57.364 10.6856 56.9621 10.7447 56.442C11.0521 53.416 11.7258 50.5318 14.1726 48.4042C14.48 48.1441 14.7755 47.8723 15.0828 47.6122C14.8109 47.3167 14.5391 47.0094 14.2672 46.7021C10.9102 42.8841 12.4941 36.7966 17.3287 35.1772C20.1183 34.2434 22.6478 34.8344 24.7755 36.9148C25.2956 37.4231 25.3783 38.156 24.9882 38.5815C24.5509 39.0425 23.8535 38.9952 23.2625 38.4396C22.2105 37.4586 21.0048 36.903 19.5154 36.9385C16.8677 36.9976 14.6454 39.2671 14.6454 41.9621H14.6218Z" fill="white"/>
<path fill-rule="evenodd" clip-rule="evenodd" d="M48.2504 47.6477C49.8461 48.6642 51.0045 49.9763 51.5719 51.6666C52.0684 53.1678 52.3639 54.7399 52.6594 56.2883C52.8012 57.0212 52.3402 57.4822 51.6783 57.5177C51.0636 57.5413 50.6263 57.0803 50.5435 56.3947C50.2835 54.3498 49.8816 52.3403 48.4986 50.6855C47.7185 49.7517 46.7019 49.208 45.5554 48.8888C44.9762 48.7233 44.527 48.4869 44.5033 47.8013C44.4797 47.1158 44.9407 46.8321 45.4844 46.6311C47.5057 45.8746 48.6286 44.3734 48.7823 42.2812C49.0542 38.6997 45.4726 35.9574 42.092 37.2694C41.3828 37.5413 40.7681 38.0614 40.1535 38.5342C39.5979 38.9597 38.9478 39.0307 38.5223 38.6169C38.1204 38.2151 38.1322 37.4586 38.5932 36.9857C42.0211 33.4633 47.9667 34.2671 50.2007 38.7351C51.6901 41.7021 50.9336 45.1772 48.6168 47.2812C48.5223 47.3758 48.4395 47.4704 48.2622 47.6595L48.2504 47.6477Z" fill="white"/>
<path fill-rule="evenodd" clip-rule="evenodd" d="M55.5441 33.4397C54.3503 33.4988 53.641 32.8841 53.5938 32.0921C53.5347 31.1583 53.8065 30.4137 54.5394 29.8463C55.6978 28.9716 56.9862 28.5933 58.4283 29.0543C59.0666 29.2671 59.4921 29.6926 59.6103 30.3546C59.7285 30.9574 59.4212 31.4302 58.9484 31.7612C57.8018 32.565 56.6316 33.3096 55.5323 33.4278L55.5441 33.4397ZM55.6978 32.6595C56.5961 32.6241 58.0382 31.8557 58.6056 31.0756C58.9484 30.6028 58.8656 30.2245 58.3574 29.9408C57.4235 29.4089 55.2604 29.9408 54.6812 30.851C54.1848 31.6075 54.2912 32.2458 54.9767 32.5413C55.1895 32.6359 55.4614 32.6241 55.6978 32.6713V32.6595Z" fill="white"/>
<path fill-rule="evenodd" clip-rule="evenodd" d="M52.8009 38.3688C51.7844 38.4397 51.1461 37.2695 51.6425 36.2766C52.2454 35.0591 53.8293 34.4562 55.0704 34.9527C55.626 35.1655 55.957 35.5319 55.9924 36.1229C56.0397 36.7139 55.8033 37.2577 55.2714 37.4941C54.4794 37.8487 53.6284 38.0851 52.7891 38.3688H52.8009ZM55.1059 36.513C55.1059 35.8038 54.6685 35.3546 54.1721 35.4728C53.6875 35.5792 53.1792 35.7565 52.7773 36.0402C52.4936 36.2411 52.3045 36.643 52.1981 36.9858C52.0799 37.3877 52.3636 37.6477 52.7773 37.5532C53.4156 37.4113 54.0539 37.2458 54.6567 37.0094C54.8813 36.9267 55.0232 36.6075 55.0941 36.5248L55.1059 36.513Z" fill="white"/>
<path d="M55.0001 9.19616C48.5698 7.96684 41.2412 8.23871 34.9292 9.96448C32.1277 10.7328 29.3263 11.9267 27.5296 14.2907C25.4847 16.9858 24.8582 20.851 25.272 24.1489C25.7329 27.7304 27.6124 30.0118 30.9339 31.3475C34.7755 32.8959 39.1136 32.9077 43.1561 32.2931C49.9528 31.2647 57.2932 27.955 61.2885 22.1158C63.3925 19.0543 63.1207 15.5437 60.0474 13.2505C56.9741 10.9574 52.4942 10.4136 48.7944 10.9928C47.6715 11.1702 48.1443 12.8723 49.2672 12.7068C54.279 11.9385 64.3736 14.7281 59.6573 21.3711C56.1821 26.2647 50.0592 29.1371 44.35 30.3073C38.6407 31.4775 28.2507 31.7966 27.0686 24.2789C26.6195 21.3947 27.1159 17.8841 28.8535 15.4846C30.3547 13.4042 32.8488 12.4113 35.2365 11.7375C41.253 10.0472 48.3689 9.73989 54.5273 10.9219C55.6384 11.1347 56.123 9.42074 55.0001 9.20798V9.19616Z" fill="white"/>
<path fill-rule="evenodd" clip-rule="evenodd" d="M51.7259 28.156C51.7259 28.156 51.6904 28.1323 51.6668 28.1205C49.5273 27.1512 47.4706 26.0401 45.5557 24.6572C44.6573 24.007 43.7944 23.3096 43.2271 22.3404C42.8133 21.6312 42.6597 21.0401 43.6644 20.4964C44.2318 20.1891 44.8583 19.9999 45.4729 19.799C46.5368 19.4562 47.636 19.2198 48.558 18.4869C49.3973 17.825 49.7637 16.8439 49.4327 15.8746C49.1254 14.9527 48.3216 14.5981 47.506 14.3735C45.402 13.7825 43.2389 13.7588 41.0758 13.7706C40.8275 13.7706 40.5557 13.8061 40.5557 14.1371C40.5557 14.468 40.8157 14.4917 41.0758 14.5035C42.2578 14.539 43.4516 14.5508 44.6337 14.6335C45.8039 14.7163 46.9623 14.8817 48.0379 15.4018C48.889 15.8037 49.1018 16.7257 48.5226 17.4822C47.967 18.2033 47.175 18.5224 46.3594 18.7943C45.3547 19.1252 44.35 19.4326 43.3807 19.8345C42.3996 20.2482 42.0568 21.0283 42.3405 22.0685C42.5769 22.9787 43.2152 23.6288 43.8772 24.2316C45.0947 25.3664 46.4895 26.2529 47.9197 27.0449C48.8417 27.5531 49.7992 28.0496 50.7803 28.546C51.0758 28.3687 51.4067 28.2505 51.7613 28.1678L51.7259 28.156Z" fill="white" stroke="white" stroke-width="0.29" stroke-miterlimit="10"/>
<path fill-rule="evenodd" clip-rule="evenodd" d="M42.6002 16.0875C42.0683 16.0875 41.5246 16.0875 40.9927 16.0875C40.7562 16.0875 40.508 16.0402 40.5553 15.7683C40.5789 15.6028 40.8153 15.3546 40.9572 15.3546C42.5529 15.2837 44.1487 15.2009 45.7208 15.6028C46.1581 15.721 46.5955 15.9811 46.9501 16.2884C47.4465 16.7139 47.3165 17.3404 46.7019 17.6005C46.2172 17.8132 45.6971 17.9905 45.1889 18.1087C43.5931 18.4634 41.9856 18.7589 40.4844 19.4208C39.6688 19.7754 38.8886 20.2009 38.4749 21.052C37.9903 22.0449 38.1676 23.0142 38.6522 23.948C39.3614 25.2837 40.4607 26.2648 41.6782 27.104C42.4229 27.6123 43.2267 28.0615 44.0068 28.5225C44.2314 28.6525 44.456 28.7943 44.3023 29.078C44.1605 29.3262 43.9123 29.3026 43.6759 29.1726C41.4891 28.0142 39.4324 26.6903 38.1203 24.4917C37.3283 23.1678 37.1038 21.7494 38.0139 20.3664C38.5813 19.4917 39.4796 19.0425 40.4016 18.6525C41.9501 18.0142 43.5813 17.7187 45.2007 17.3522C45.5317 17.2813 45.8508 17.1631 46.17 17.0567C46.2645 17.0213 46.3945 16.9267 46.3945 16.8558C46.3945 16.773 46.2882 16.643 46.2054 16.6194C45.5317 16.4303 44.8579 16.2175 44.1723 16.1111C43.664 16.0284 43.1321 16.0993 42.612 16.0993L42.6002 16.0875Z" fill="white" stroke="white" stroke-width="0.29" stroke-miterlimit="10"/>
<path fill-rule="evenodd" clip-rule="evenodd" d="M35.378 24.5508C35.6971 24.9764 36.0163 25.3664 36.3 25.7802C36.43 25.9693 36.4773 26.2175 36.5719 26.4421C36.3709 26.5248 36.1581 26.6194 35.9454 26.7021C35.8981 26.7258 35.839 26.714 35.7208 26.7376C36.1345 27.3168 36.5246 27.8369 36.9146 28.3688C36.9737 28.4516 37.0565 28.5225 37.0801 28.617C37.1274 28.7707 37.2102 28.9953 37.151 29.1017C37.0919 29.2199 36.8792 29.2908 36.7373 29.279C35.9808 29.2199 35.2243 29.1371 34.456 29.0662C34.3142 29.0544 34.1841 29.0662 33.9832 29.0662C33.9832 29.4208 33.9832 29.7281 33.9832 30.0473C33.9832 30.331 33.8532 30.4965 33.6168 30.5083C33.3567 30.5083 33.2149 30.3546 33.2267 30.0355C33.2385 29.7281 33.2267 29.4326 33.2267 29.0426C32.6948 29.078 32.2101 29.1017 31.7255 29.1371C31.3 29.1726 30.8863 29.2553 30.4607 29.279C30.3189 29.279 30.1061 29.2199 30.0352 29.1135C29.9761 29.0071 30.0116 28.7589 30.0943 28.6407C30.4726 28.0733 30.8863 27.5414 31.2882 26.9858C31.3354 26.9149 31.3709 26.844 31.4536 26.7258C31.2882 26.714 31.1818 26.7258 31.0872 26.6903C30.9217 26.6312 30.6971 26.5721 30.6499 26.4421C30.5908 26.3121 30.6735 26.052 30.7681 25.922C31.0872 25.461 31.43 25.0237 31.7728 24.5863C31.3354 24.2081 31.3236 24.0071 31.6782 23.5579C32.1865 22.9315 32.7066 22.305 33.2267 21.6903C33.4867 21.3712 33.7113 21.3712 33.9714 21.6785C34.5033 22.3286 35.0352 22.9787 35.5553 23.6289C35.8981 24.0662 35.8745 24.2081 35.3898 24.5627L35.378 24.5508ZM35.4371 25.922C35.0588 25.4137 34.7633 25.0118 34.456 24.5981C34.1802 24.2278 34.196 23.8731 34.5033 23.5343C34.2078 23.1797 33.9123 22.8251 33.5813 22.4232C33.2503 22.8369 32.9548 23.2033 32.6593 23.5816C33.0967 23.8771 33.1321 24.1017 32.8366 24.4799C32.4938 24.9291 32.151 25.3783 31.761 25.9102C31.9501 25.9102 32.0328 25.8865 32.0919 25.9102C32.2692 25.9693 32.5175 26.0166 32.5766 26.1466C32.6357 26.2884 32.5293 26.5485 32.4347 26.714C32.2456 27.0213 32.021 27.2813 31.8083 27.5768C31.631 27.8251 31.4536 28.0733 31.2763 28.3333H35.9217C35.8272 28.1915 35.7444 28.0615 35.6499 27.9315C35.3189 27.4823 34.9761 27.0331 34.657 26.5721C34.4206 26.2293 34.5624 25.9575 34.9525 25.922C35.0588 25.922 35.1771 25.922 35.4371 25.922Z" fill="white" stroke="white" stroke-width="0.3" stroke-miterlimit="10"/>
<path fill-rule="evenodd" clip-rule="evenodd" d="M33.5814 15.9575C33.4514 15.9575 33.3332 15.9575 33.2387 15.922C33.1205 15.8747 32.9431 15.8156 32.9195 15.7211C32.884 15.5792 32.9195 15.3783 32.9904 15.2601C33.2741 14.8582 33.5933 14.4918 33.8888 14.1017C33.4514 13.6998 33.4396 13.6407 33.806 13.1915C34.2316 12.6832 34.6571 12.175 35.0945 11.6549C35.3545 11.3475 35.52 11.3475 35.7682 11.6549C36.2174 12.1986 36.6666 12.7423 37.1275 13.2861C37.4112 13.6289 37.3994 13.7825 36.9857 14.0899C37.2221 14.3972 37.4822 14.6809 37.6949 15C37.8249 15.201 38.0023 15.4847 37.9668 15.6974C37.9432 15.8393 37.5885 15.922 37.3521 16.052C37.6358 16.4303 37.9432 16.8676 38.2623 17.2932C38.2978 17.3286 38.345 17.3641 38.3569 17.4114C38.4278 17.5887 38.4869 17.7778 38.546 17.9551C38.3687 18.0024 38.1796 18.1088 38.0023 18.097C37.3758 18.0615 36.7375 18.0024 36.111 17.9315C35.8155 17.896 35.7091 18.0142 35.7446 18.3215C35.7682 18.4752 35.78 18.6525 35.7446 18.7825C35.6973 18.9244 35.5673 19.0426 35.4727 19.1608C35.3545 19.0426 35.1654 18.9362 35.1417 18.7825C35.0826 18.5225 35.1299 18.2388 35.1299 17.9078C34.7398 17.9315 34.3971 17.9315 34.0543 17.9669C33.6642 18.0024 33.2859 18.0733 32.8959 18.0851C32.7304 18.0851 32.5649 18.0142 32.3994 17.9788C32.4467 17.7896 32.4349 17.565 32.5413 17.4114C32.8486 16.9622 33.1914 16.5485 33.5223 16.1111C33.546 16.0757 33.5696 16.0284 33.6051 15.9457L33.5814 15.9575ZM33.8888 15.201C34.007 15.2364 34.0424 15.2364 34.0779 15.2483C34.2552 15.3192 34.4325 15.3901 34.6216 15.461C34.5507 15.6383 34.4916 15.8275 34.4089 16.0048C34.3734 16.0757 34.3143 16.123 34.267 16.1821C33.9952 16.5485 33.7233 16.9267 33.4396 17.305H37.4822C37.1275 16.844 36.7729 16.4066 36.4656 15.9457C36.371 15.8038 36.3238 15.5792 36.3592 15.4256C36.371 15.3428 36.6075 15.3074 36.7493 15.2601C36.8084 15.2364 36.8911 15.2483 37.0448 15.2364C36.7375 14.8345 36.4656 14.4799 36.1937 14.1253C35.8746 13.7116 35.8746 13.5934 36.2528 13.2506C36.0046 12.9433 35.7446 12.636 35.4727 12.2932C35.1772 12.636 34.9171 12.9669 34.6335 13.2861C35.0353 13.5107 35.0708 13.7116 34.7989 14.0662C34.5034 14.4327 34.2197 14.7991 33.9006 15.201H33.8888Z" fill="white" stroke="white" stroke-width="0.26" stroke-miterlimit="10"/>
<path fill-rule="evenodd" clip-rule="evenodd" d="M54.1845 20.2364C54.5155 20.6737 54.8582 21.0993 55.1656 21.5603C55.2838 21.7376 55.402 22.0212 55.3547 22.2222C55.3311 22.3404 55.0001 22.3877 54.811 22.4468C54.7519 22.4704 54.6809 22.4704 54.5273 22.4941C54.8819 22.9905 55.201 23.4397 55.5202 23.877C55.6502 24.0662 55.8157 24.2317 55.9103 24.4326C55.9812 24.5981 56.0403 24.8463 55.9694 24.9882C55.9221 25.0945 55.6738 25.1655 55.5202 25.1418C54.74 25.0827 53.9599 24.9882 53.1798 24.8818C52.7779 24.8227 52.6478 24.9882 52.6951 25.4137C52.7188 25.6028 52.7424 25.8156 52.6833 25.9811C52.6124 26.1584 52.4469 26.3002 52.3287 26.4421C52.2105 26.2884 52.045 26.1465 51.9977 25.9692C51.9386 25.7683 51.9623 25.5201 51.9859 25.2955C52.0214 24.9527 51.8795 24.8345 51.584 24.8699C50.8039 24.9645 50.0237 25.0473 49.2436 25.1064C49.0426 25.1182 48.8299 25.0354 48.6526 24.9291C48.6053 24.8936 48.6526 24.5626 48.7353 24.4326C49.1727 23.7825 49.6455 23.156 50.1419 22.4586C49.9764 22.435 49.8464 22.4586 49.74 22.4113C49.5746 22.3522 49.35 22.2931 49.3027 22.1513C49.2436 22.0094 49.3145 21.7376 49.4091 21.5957C49.6928 21.182 50.0237 20.7919 50.3311 20.39C50.3783 20.3309 50.4138 20.26 50.4493 20.2009C49.9646 19.7636 49.9528 19.6454 50.3665 19.1253C50.8984 18.4752 51.4422 17.8369 51.9504 17.1631C52.2223 16.8085 52.4469 16.8558 52.7069 17.1631C53.2389 17.8132 53.759 18.4633 54.2909 19.1134C54.7282 19.6572 54.7282 19.7399 54.1845 20.2009V20.2364ZM51.3594 19.1962C51.8204 19.5035 51.8559 19.7281 51.5485 20.13C51.1939 20.591 50.8512 21.052 50.5438 21.4657C50.8275 21.6194 51.2176 21.7021 51.253 21.8676C51.3003 22.1158 51.123 22.435 50.9694 22.6832C50.6502 23.1796 50.2838 23.6406 49.8937 24.1962C51.4895 24.1962 53.0025 24.1962 54.5036 24.1962C54.5627 24.1962 54.61 24.1844 54.7519 24.1607C54.3618 23.617 53.9835 23.1442 53.6526 22.6359C53.5107 22.4231 53.3334 22.1276 53.3689 21.903C53.428 21.5366 53.7944 21.6194 54.0663 21.5957C54.0899 21.5957 54.1017 21.5484 54.149 21.4893C53.8299 21.0638 53.4871 20.6264 53.1679 20.1891C53.0616 20.0354 52.9315 19.8227 52.9433 19.6572C52.967 19.4917 53.1561 19.338 53.2743 19.1607C53.0497 18.8889 52.7897 18.5934 52.5533 18.2742C52.4114 18.0614 52.2932 18.0496 52.1396 18.2387C51.8913 18.5461 51.6431 18.8652 51.3712 19.208L51.3594 19.1962Z" fill="white" stroke="white" stroke-width="0.31" stroke-miterlimit="10"/>
</svg>
