<svg width="70" height="70" viewBox="0 0 70 70" fill="none" xmlns="http://www.w3.org/2000/svg">
<path d="M35 70C54.33 70 70 54.33 70 35C70 15.67 54.33 0 35 0C15.67 0 0 15.67 0 35C0 54.33 15.67 70 35 70Z" fill="#9DD9DB"/>
<path fill-rule="evenodd" clip-rule="evenodd" d="M49.0427 32.3759C48.96 32.104 48.8299 31.8558 48.0616 31.8321C45.9812 31.7494 44.681 30.5201 44.4091 28.3451C44.2791 27.2931 44.0663 25.9338 43.5344 24.7754C41.9978 21.3948 38.7826 19.2908 35.142 19.2908C34.1254 19.2908 33.0971 19.4563 32.1042 19.7754C28.1207 21.052 25.8985 24.0071 25.4848 28.5697C25.3075 30.5083 23.9718 31.7849 22.0687 31.844C21.2531 31.8676 21.0758 32.0449 20.9576 32.4468C20.8394 32.8487 20.8985 33.1915 21.525 33.617C23.2625 34.7754 24.681 35.4137 26.1467 35.6856C26.7141 35.792 27.2815 35.8747 27.8961 35.9693L30.2957 36.3357L28.5226 37.7778C28.1444 38.0851 27.8016 38.357 27.4706 38.6407C25.2129 40.5674 24.2673 43.2742 23.6881 45.4137C23.3217 46.7612 23.1798 48.2033 23.0734 49.4563C23.038 49.8581 23.2862 50.0946 23.7945 50.1537C24.2909 50.2128 24.5982 50 24.6928 49.539C24.7874 49.0307 24.8819 48.5224 24.9765 48.0142L25.2247 46.643C26.1585 41.7612 28.6053 38.8889 32.6952 37.8723C33.1325 37.7659 33.4162 37.4823 33.3571 37.1868C33.3098 36.9031 32.9434 36.4657 32.4588 36.1111C32.1396 35.8747 31.7614 35.6856 31.3595 35.4846C30.8867 35.2482 30.3902 35 29.941 34.6454C29.4919 34.2908 29.09 34.1489 28.499 34.1489H28.1089C27.577 34.1489 27.045 34.078 26.4777 33.9953C26.194 33.948 25.8867 33.9125 25.5557 33.8652L24.2436 33.7116L25.7448 32.0804C26.8441 30.9338 27.4115 30.0591 27.2815 28.7589C27.1987 27.9669 27.376 27.0331 27.8016 25.9693C28.9954 22.9669 31.7259 21.0993 34.9292 21.0993C35.5912 21.0993 36.2649 21.182 36.9505 21.3357C40.4138 22.1277 42.7425 25.1537 42.7543 28.8889C42.7543 29.9527 42.9552 30.5792 43.4635 31.1347C43.7354 31.4421 44.0072 31.7494 44.3382 32.1513L45.7448 33.818L44.4564 33.9243C44.1136 33.948 43.7826 33.9716 43.4753 33.9953C42.8252 34.0425 42.2578 34.078 41.7141 34.1726C41.1231 34.279 40.532 34.4563 40.0356 34.7045C39.7046 34.87 39.3855 35.0827 39.0663 35.2837C38.629 35.5674 38.168 35.8747 37.6479 36.0875C36.785 36.4421 36.6432 36.6785 36.655 37.0804C36.655 37.4232 36.7377 37.7305 37.6479 37.9669C41.0167 38.8534 43.2389 41.0875 44.2555 44.6217C44.6219 45.8983 44.8819 47.2104 45.1302 48.487L45.2484 49.0662C45.4138 49.9054 45.5793 50.0827 45.9694 50.1418C46.3122 50.1891 46.6195 50.1064 46.8087 49.8936C46.9741 49.7045 47.0451 49.4563 47.0214 49.1489C46.915 48.1678 46.7377 47.1158 46.4777 45.9456C45.7212 42.6477 44.4682 40.2955 42.5179 38.5343C42.2224 38.2624 41.8914 38.026 41.4895 37.7423C41.2649 37.5886 41.0403 37.4113 40.7803 37.2222L39.2082 36.0402L41.1704 36.0165C43.4871 35.9929 45.4611 35.461 47.376 34.3499C47.6952 34.1607 48.0025 33.9598 48.298 33.7589L48.6408 33.5343C49.09 33.2388 49.22 32.9078 49.0782 32.4232L49.0427 32.3759Z" fill="white"/>
<path fill-rule="evenodd" clip-rule="evenodd" d="M26.6435 19.1962C24.6813 17.2931 22.4827 16.3239 20.1068 16.3239C19.043 16.3239 17.9319 16.513 16.7971 16.8912C13.8302 17.8841 11.5726 20.2955 10.7451 23.3451C9.91771 26.4302 10.6624 29.7045 12.7664 32.0922C13.0383 32.3995 13.3101 32.695 13.582 33.0023L14.3622 33.877L12.5655 35.4373C9.17303 38.3688 8.34562 42.4231 7.95555 46.3593C7.94372 46.513 7.89644 46.9621 8.58202 47.104C9.44491 47.2813 9.69313 46.3948 9.74041 45.8629C9.96499 43.2269 10.6388 40.9811 11.7853 38.9952C12.991 36.903 14.8586 35.5555 17.4946 34.87C18.0737 34.7163 18.2629 34.4444 18.2038 33.8534C18.1565 33.416 17.8846 33.2742 17.1636 33.0023C14.1257 31.8558 12.1163 28.9834 12.1163 25.8038C12.1163 21.6903 15.5678 18.1324 19.6577 18.0378H19.8468C21.939 18.0378 23.7593 18.7943 25.4142 20.3428C25.9461 20.8392 26.5489 20.9574 26.9035 20.5792C27.2109 20.2482 27.0927 19.6099 26.6317 19.1607L26.6435 19.1962Z" fill="white"/>
<path fill-rule="evenodd" clip-rule="evenodd" d="M61.2053 47.8132L61.2408 47.1513C61.5245 47.1513 61.7609 47.0449 61.8909 46.8794C62.0446 46.6785 62.0327 46.4066 61.9973 46.2175C61.5836 44.0189 61.158 41.8203 60.4843 39.7636C59.775 37.6241 58.333 35.8747 56.0753 34.4444L55.3897 34.0071L56.1462 33.1915C56.2762 33.0496 56.3708 32.9551 56.4654 32.8605C59.5977 30 60.4488 25.3546 58.5575 21.5721C56.95 18.357 53.6994 16.3712 50.0942 16.3712C47.4937 16.3712 45.0469 17.3995 43.2266 19.279C42.8129 19.7045 42.8247 20.3546 43.1202 20.6383C43.463 20.9693 44.0186 20.8865 44.5505 20.4728L44.8341 20.2482C45.6379 19.6217 46.4772 18.9716 47.4583 18.5816C48.3448 18.2388 49.255 18.0615 50.1769 18.0615C52.281 18.0615 54.3259 18.9716 55.7916 20.5437C57.2691 22.1277 57.9902 24.1844 57.8247 26.3357C57.5765 29.5863 55.8152 31.9149 52.7301 33.0615C51.9027 33.3688 51.7609 33.6288 51.7845 34.0662C51.7963 34.5035 51.95 34.7399 52.7774 34.9764C54.6923 35.5083 56.1699 36.4066 57.281 37.7305C59.4204 40.2955 59.976 43.4161 60.3306 46.1466C60.3661 46.383 60.5079 47.1513 61.2053 47.1513V47.8132Z" fill="white"/>
</svg>
