<svg width="70" height="70" viewBox="0 0 70 70" fill="none" xmlns="http://www.w3.org/2000/svg">
<g clip-path="url(#clip0_3195_1846)">
<path d="M35.0059 70.0118C54.3391 70.0118 70.0118 54.3391 70.0118 35.0059C70.0118 15.6727 54.3391 0 35.0059 0C15.6727 0 0 15.6727 0 35.0059C0 54.3391 15.6727 70.0118 35.0059 70.0118Z" fill="#9DD9DB"/>
<path fill-rule="evenodd" clip-rule="evenodd" d="M33.9299 52.4793C27.7468 52.4793 21.5519 52.3848 15.3688 52.5148C12.6497 52.5739 11.0892 50.3868 11.0892 48.4479C11.0537 41.1535 11.03 33.8592 11.1128 26.5648C11.1364 24.0821 12.8034 22.6398 15.2979 22.628C19.3175 22.6043 23.3489 22.628 27.3685 22.628C28.0542 22.628 28.7635 22.7698 28.9527 21.7176C29.0118 21.3984 29.7921 21.0319 30.265 21.0201C32.4757 20.9492 34.6865 20.9492 36.9091 21.0201C37.3938 21.0319 38.0677 21.3039 38.2805 21.6822C38.8007 22.5925 39.5337 22.6634 40.4322 22.6516C44.4045 22.628 48.3768 22.7225 52.3491 22.6161C55.1391 22.5334 56.6169 24.4841 56.6406 26.6239C56.7233 33.9183 56.7233 41.2127 56.6406 48.507C56.6169 50.6942 54.9855 52.5857 52.3373 52.5384C46.2015 52.4202 40.0657 52.503 33.9181 52.503M34.119 35.5734C32.9486 34.8168 31.8964 33.6937 32.594 31.8139C32.6649 31.6129 32.5585 31.3055 32.4639 31.0809C31.7191 29.2721 30.9034 27.4988 30.2059 25.6781C29.8394 24.7087 29.2601 24.4486 28.2788 24.4604C24.1055 24.5077 19.9204 24.4722 15.7471 24.4841C13.6546 24.4841 12.9925 25.0752 12.9807 27.1323C12.9453 34.0247 12.9453 40.9289 12.9807 47.8213C12.9807 50.0676 13.6428 50.6587 15.9008 50.6587C23.5499 50.6587 31.2108 50.6587 38.8598 50.6587C39.3327 50.6587 39.7938 50.5878 40.4558 50.5287C39.5455 48.2588 38.7416 46.2253 37.8904 44.2037C37.7958 43.9673 37.4766 43.7308 37.2283 43.6835C36.1525 43.4825 36.0816 42.7259 36.117 41.8629C36.1407 41.2718 36.117 40.6925 36.117 40.1959C34.852 39.5575 32.9368 40.8107 32.594 39.0846C32.4048 38.1389 33.4925 36.933 34.1309 35.5734M44.3099 31.7666C44.6646 31.7903 44.901 31.8257 45.1493 31.8257C46.1896 31.8257 47.3955 31.5775 47.8921 32.8306C48.3768 34.0601 47.2537 34.6276 46.5207 35.2187C45.6813 35.9044 46.1778 36.3182 46.6507 36.7911C48.4832 38.5881 48.4832 38.7654 46.5088 40.4087C47.8921 43.5771 49.2634 46.781 50.7058 49.973C50.8476 50.2922 51.3205 50.5996 51.6752 50.6587C53.7323 50.9306 54.7608 50.103 54.7727 48.0223C54.8081 41.0353 54.8081 34.0365 54.7727 27.0377C54.7727 25.1461 54.0515 24.5077 52.1954 24.4959C48.5186 24.4841 44.8537 24.4959 41.177 24.4959C40.7514 24.4959 40.3258 24.5786 39.6992 24.6614C40.3139 26.0564 40.846 27.2741 41.3661 28.48C43.7897 27.7588 44.0971 28.1135 44.3099 31.7784M42.0637 31.2583C41.3661 31.672 40.7277 32.3459 40.1248 32.3223C39.4509 32.2868 38.8007 31.6247 38.245 31.2937C38.0204 31.9912 37.9731 32.937 37.4766 33.3745C36.9801 33.8119 36.0343 33.7409 35.0885 33.9183C36.9209 35.2424 36.8736 36.6019 35.0767 37.9733C36.8815 38.1152 37.918 39.0019 38.1859 40.6334C40.6095 38.8009 40.6331 39.6876 42.1937 40.7989C42.0045 38.7654 42.7612 37.6423 45.1493 38.0088C42.9858 36.4837 43.6006 35.136 45.2439 33.8355C43.4075 33.6621 42.3513 32.7991 42.0755 31.2464M39.7819 41.8274C39.711 42.3358 39.4273 42.9624 39.6046 43.4116C40.3967 45.5633 41.307 47.6676 42.2173 49.7838C42.3592 50.1149 42.6902 50.5996 42.9503 50.6114C44.8537 50.6823 46.7689 50.6469 48.897 50.6469C47.3837 47.1475 46.0241 44.0145 44.8183 41.2127C44.2153 42.0166 43.6124 43.5062 42.9976 43.518C42.0164 43.518 41.0351 42.5368 39.7938 41.8156M31.0807 22.8289C32.2866 25.7963 33.3506 28.5273 34.521 31.211C34.6865 31.5775 35.3959 31.7075 35.9042 31.9676C36.117 30.6317 35.9752 29.3549 36.5426 28.6928C36.9446 28.2199 38.316 28.5746 39.309 28.5509C38.6234 26.9549 37.8549 25.1343 37.0392 23.3136C36.9446 23.1008 36.6254 22.8526 36.4008 22.8408C34.7102 22.8053 33.0314 22.8171 31.0807 22.8171" fill="white"/>
</g>
<defs>
<clipPath id="clip0_3195_1846">
<rect width="70" height="70" fill="white"/>
</clipPath>
</defs>
</svg>
