<svg width="70" height="70" viewBox="0 0 70 70" fill="none" xmlns="http://www.w3.org/2000/svg">
<path d="M35 70C54.3299 70 70 54.33 70 35C70 15.67 54.3299 0 35 0C15.67 0 0 15.67 0 35C0 54.33 15.67 70 35 70Z" fill="#9DD9DB"/>
<path fill-rule="evenodd" clip-rule="evenodd" d="M48.215 25.0118C48.1441 24.7872 48.0377 24.5863 47.3994 24.5627C45.6736 24.5036 44.598 23.4752 44.3734 21.6667C44.267 20.792 44.0897 19.669 43.6523 18.7116C42.3757 15.9102 39.7043 14.1608 36.6902 14.1608C35.8509 14.1608 34.9999 14.2908 34.1725 14.5627C30.8628 15.6147 29.0188 18.0733 28.676 21.8558C28.5341 23.4634 27.423 24.5272 25.8391 24.5627C25.1653 24.5745 25.0117 24.7281 24.9171 25.0591C24.8226 25.3901 24.8698 25.6856 25.3899 26.0284C26.832 26.9858 28.0141 27.5177 29.2197 27.7423C29.6925 27.8369 30.1653 27.896 30.6736 27.9787L32.6595 28.2861L31.1819 29.4799C30.8746 29.7281 30.5909 29.9527 30.3072 30.1891C28.4278 31.7849 27.6476 34.0307 27.1748 35.8038C26.8793 36.9149 26.7611 38.1206 26.6665 39.1489C26.6429 39.4799 26.8438 39.6809 27.2576 39.7281C27.6713 39.7754 27.9313 39.5981 28.0022 39.2199C28.085 38.7943 28.1559 38.3806 28.2386 37.9551L28.4514 36.8203C29.2197 32.766 31.2528 30.3901 34.6571 29.539C35.0235 29.4445 35.2481 29.208 35.2126 28.9716C35.1772 28.747 34.8699 28.3806 34.468 28.0851C34.1961 27.8842 33.8887 27.7305 33.5578 27.565C33.1559 27.3641 32.754 27.1631 32.3757 26.8676C32.0093 26.5721 31.6665 26.4539 31.1819 26.4539H30.8509C30.4136 26.4539 29.9644 26.3948 29.5034 26.3239C29.267 26.2884 29.007 26.253 28.7351 26.2175L27.6476 26.0993L28.8888 24.74C29.7989 23.7825 30.2717 23.0615 30.1653 21.9858C30.0944 21.3357 30.2481 20.5556 30.5909 19.669C31.5838 17.1749 33.8415 15.6265 36.5011 15.6265C37.0448 15.6265 37.6121 15.6856 38.1677 15.8156C41.04 16.4657 42.9668 18.9835 42.9786 22.0804C42.9786 22.9669 43.1441 23.487 43.5696 23.948C43.7942 24.1962 44.0188 24.4563 44.2907 24.7991L45.449 26.182L44.3734 26.2766C44.0897 26.3002 43.8178 26.3239 43.5578 26.3357C43.0141 26.3712 42.553 26.4066 42.0921 26.4775C41.5956 26.5603 41.111 26.714 40.6973 26.9267C40.4136 27.0686 40.1535 27.2341 39.8935 27.4114C39.5271 27.6478 39.1488 27.896 38.7233 28.0733C38.014 28.3688 37.8959 28.5697 37.8959 28.9007C37.8959 29.1844 37.9668 29.4326 38.7233 29.6336C41.5128 30.3664 43.3568 32.2222 44.2079 35.1537C44.5152 36.2175 44.728 37.305 44.9289 38.357L45.0235 38.8416C45.1654 39.539 45.2954 39.6809 45.6145 39.7281C45.8982 39.7754 46.1583 39.6927 46.3119 39.5154C46.4538 39.3617 46.5129 39.1489 46.4892 38.9007C46.4065 38.0851 46.2528 37.2222 46.0282 36.2411C45.4018 33.5106 44.3616 31.5603 42.7422 30.0946C42.494 29.87 42.2221 29.669 41.8911 29.4326C41.7138 29.3026 41.5129 29.1608 41.3001 28.9953L39.9999 28.0142L41.6311 27.9906C43.5578 27.9669 45.189 27.5296 46.7729 26.6076C47.033 26.4539 47.293 26.2884 47.5412 26.1229L47.8249 25.9338C48.1914 25.6856 48.3095 25.4137 48.1795 25.0118H48.215Z" fill="white"/>
<path fill-rule="evenodd" clip-rule="evenodd" d="M53.7119 41.4894C54.0546 41.3239 54.3383 41.2057 54.6102 41.052C56.4305 40.0355 57.3052 40.1301 58.2154 41.4303C59.2792 42.9551 59.0783 44.8464 57.648 45.922C53.5818 48.9717 49.492 51.974 45.4022 55C44.2438 55.8511 43.0026 56.6076 41.9388 57.5532C39.5865 59.6573 37.0925 60.1774 34.0783 59.019C30.414 57.6242 26.6551 56.4776 22.9435 55.2128C21.9625 54.8818 20.9695 54.5509 19.9885 54.2199C18.6646 53.7825 17.4471 53.9126 16.2178 54.6336C15.0594 55.3192 13.83 55.922 12.5771 56.4303C12.1279 56.6076 11.5251 56.383 10.9932 56.3357C11.3005 55.8984 11.5251 55.2955 11.9506 55.071C13.4518 54.2435 14.9766 53.4043 16.596 52.8487C17.6125 52.506 18.901 52.3523 19.8939 52.6596C25.1066 54.279 30.2839 56.0048 35.414 57.8487C37.1752 58.487 38.6527 58.1797 40.0003 57.1868C45.4376 53.2034 50.8395 49.1608 56.2414 45.1301C56.4896 44.9409 56.8797 44.74 56.9152 44.4918C57.0215 43.7471 56.9979 42.9788 57.0215 42.2105C56.4305 42.2577 55.7095 42.1159 55.2485 42.3877C50.3312 45.3665 45.4613 48.4516 40.5204 51.4185C40.0003 51.7376 39.0192 51.6667 38.4163 51.4067C37.1397 50.8629 35.9932 50.0119 34.7284 49.4208C33.9364 49.0544 33.0263 48.8889 32.1515 48.7234C31.395 48.5816 30.6031 48.6289 29.8466 48.487C29.5747 48.4398 29.3738 48.0733 29.1374 47.8487C29.3738 47.6123 29.5865 47.3168 29.8702 47.175C30.083 47.0686 30.4021 47.1632 30.674 47.1513C34.6693 47.1277 38.6646 47.1041 42.6598 47.0922C43.6409 47.0922 44.3502 46.8204 44.4447 45.7093C44.5275 44.87 44.3383 44.3736 43.3454 44.2435C37.4471 43.4989 31.5724 42.6005 25.6622 41.974C24.2674 41.8322 22.7426 42.4232 21.3478 42.8606C18.8182 43.6525 16.336 44.6336 13.8064 45.4374C13.3809 45.5792 12.8017 45.2719 12.3052 45.1773C12.6126 44.8227 12.8608 44.279 13.2509 44.1372C16.8679 42.8606 20.4731 41.513 24.161 40.4847C25.3785 40.1419 26.8324 40.6147 28.1799 40.7802C32.9081 41.3712 37.6125 42.0922 42.3525 42.5414C43.4636 42.6478 44.6575 41.9386 45.7922 41.5249C46.856 41.1466 47.8608 40.6265 48.9246 40.2601C51.5369 39.3617 51.7969 39.4327 53.7237 41.454L53.7119 41.4894ZM45.5913 43.2506C45.7331 44.3145 45.8513 45.1773 46.005 46.3357C48.2154 44.9528 50.2603 43.6762 52.317 42.3877C52.317 42.2459 52.317 42.0922 52.317 41.9504C51.7497 41.714 51.0877 41.1703 50.6267 41.3121C48.9128 41.8322 47.258 42.5887 45.5913 43.2506ZM41.7969 48.7944H36.9033C38.6212 49.9606 40.2524 49.9606 41.7969 48.7944Z" fill="white"/>
</svg>
