<svg width="70" height="70" viewBox="0 0 70 70" fill="none" xmlns="http://www.w3.org/2000/svg">
<path d="M35 70C54.33 70 70 54.33 70 35C70 15.67 54.33 0 35 0C15.67 0 0 15.67 0 35C0 54.33 15.67 70 35 70Z" fill="#9DD9DB"/>
<path fill-rule="evenodd" clip-rule="evenodd" d="M17.3164 55.3664C19.3968 55.3664 21.489 55.4255 23.5575 55.3309C24.6805 55.2836 24.6095 53.7825 23.5812 53.7352C21.8672 53.6406 20.1296 53.7352 18.4157 53.6879C16.0753 53.617 11.9263 54.1371 11.4535 53.1442C10.6734 52.4113 11.1107 48.6642 11.028 46.3238C10.9925 45.39 11.1462 44.3144 11.028 43.3924C10.9571 42.8368 9.5268 42.9905 9.50316 43.546C9.42041 46.9148 9.50316 50.2955 9.44405 53.6761C9.42041 55.0118 9.99961 55.4373 11.2644 55.39C13.2738 55.3309 15.2833 55.3782 17.2928 55.3664H17.3164Z" fill="white"/>
<path fill-rule="evenodd" clip-rule="evenodd" d="M17.3164 13.8416C19.3968 13.8416 21.489 13.7825 23.5575 13.877C24.6805 13.9243 24.6095 15.4255 23.5812 15.4728C21.8672 15.5674 20.1296 15.4728 18.4157 15.5201C16.0753 15.591 11.9263 15.0709 11.4535 16.0638C10.6734 16.7967 11.1107 20.5437 11.028 22.8841C10.9925 23.8179 11.1462 24.8936 11.028 25.8156C10.9571 26.3711 9.5268 26.2175 9.50316 25.6619C9.42041 22.2931 9.50316 18.9125 9.44405 15.5319C9.42041 14.1962 9.99961 13.7707 11.2644 13.8179C13.2738 13.877 15.2833 13.8298 17.2928 13.8416H17.3164Z" fill="white"/>
<path fill-rule="evenodd" clip-rule="evenodd" d="M53.593 13.8416C51.5126 13.8416 49.4204 13.7825 47.3519 13.877C46.2289 13.9243 46.2998 15.4255 47.3282 15.4728C49.0422 15.5674 50.7798 15.4728 52.4937 15.5201C54.8341 15.591 58.9831 15.0709 59.4559 16.0638C60.236 16.7967 59.7987 20.5437 59.8814 22.8841C59.9169 23.8179 59.7632 24.8936 59.8814 25.8156C59.9523 26.3711 61.3826 26.2175 61.4062 25.6619C61.489 22.2931 61.4062 18.9125 61.4653 15.5319C61.489 14.1962 60.9098 13.7707 59.645 13.8179C57.6355 13.877 55.6261 13.8298 53.6166 13.8416H53.593Z" fill="white"/>
<path fill-rule="evenodd" clip-rule="evenodd" d="M53.593 55.3664C51.5126 55.3664 49.4204 55.4255 47.3519 55.3309C46.2289 55.2836 46.2998 53.7825 47.3282 53.7352C49.0422 53.6406 50.7798 53.7352 52.4937 53.6879C54.8341 53.617 58.9831 54.1371 59.4559 53.1442C60.236 52.4113 59.7987 48.6642 59.8814 46.3238C59.9169 45.39 59.7632 44.3144 59.8814 43.3924C59.9523 42.8368 61.3826 42.9905 61.4062 43.546C61.489 46.9148 61.4062 50.2955 61.4653 53.6761C61.489 55.0118 60.9098 55.4373 59.645 55.39C57.6355 55.3309 55.6261 55.3782 53.6166 55.3664H53.593Z" fill="white"/>
<path d="M46.5127 30.5792C47.0091 20.3428 34.5978 16.0993 27.1392 21.8322C21.1226 26.4539 24.4796 34.7163 23.2503 40.8511C22.943 42.3759 25.2716 44.1135 26.6782 43.747C28.9713 43.1324 30.0352 41.5839 30.5434 39.2908C30.6853 38.6525 29.4796 39.078 29.385 39.539C27.411 44.8345 23.8295 41.253 24.7869 39.0898C24.9642 37.8014 24.976 37.305 24.8342 36.3002C24.4441 33.617 24.6333 31.3593 24.9642 28.6525C25.5552 23.9125 29.0068 21.0284 33.5812 20.591C40.1652 19.9645 45.6498 24.4681 45.3307 31.052C45.307 31.5721 46.489 31.0757 46.5127 30.5792Z" fill="white" stroke="white" stroke-width="0.43" stroke-miterlimit="10"/>
<path d="M26.6192 31.9504C30.449 31.9268 32.9903 28.5698 34.9643 25.6738C34.7043 25.461 34.456 25.2483 34.196 25.0355C36.0991 28.6289 39.1014 31.0875 43.1913 31.6431C43.4159 31.6785 42.8721 30.6383 42.4939 30.5911C39.1369 30.1301 37.6594 27.9315 34.917 25.2956C34.8461 25.2246 34.3024 24.4209 34.1487 24.6573C32.1984 27.506 29.7043 30.8748 25.9218 30.8984C25.6499 30.8984 26.2409 31.9622 26.6192 31.9504Z" fill="white" stroke="white" stroke-width="0.43" stroke-miterlimit="10"/>
<path d="M28.333 33.0851C29.0777 36.4539 29.3496 40.4492 32.5647 42.4823C34.7633 43.8771 37.7302 42.766 39.3614 41.0757C41.229 39.1371 41.7491 36.0166 41.4181 33.4516C41.3708 33.097 40.638 32.6005 40.6143 32.4823C41.0871 36.0757 39.7633 40.1419 36.2526 41.6667C34.0068 42.6478 31.7845 41.123 30.8507 38.7944C30.1652 37.0804 29.6214 35.201 29.2314 33.4043C29.1486 33.0497 28.3685 33.2388 28.333 33.097V33.0851Z" fill="white" stroke="white" stroke-width="0.43" stroke-miterlimit="10"/>
<path d="M44.858 32.7069C44.3616 36.0875 45.3663 40.5201 41.4774 42.0922C40.6145 42.4468 41.5956 43.7943 42.3876 43.4752C46.7493 41.7021 45.8155 37.0331 46.371 33.2151C46.4892 32.3641 44.9999 31.714 44.858 32.7069Z" fill="white" stroke="white" stroke-width="0.43" stroke-miterlimit="10"/>
<path d="M31.2881 43.7825C31.7963 47.3167 28.6167 49.7281 25.4843 50.3782C25.3306 50.4137 25.9689 51.8558 26.4299 51.7612C29.7514 51.0756 32.8129 48.4988 32.2928 44.8463C32.2337 44.4799 31.2171 43.3688 31.2881 43.7825Z" fill="white" stroke="white" stroke-width="0.43" stroke-miterlimit="10"/>
<path d="M35.0121 45.5319C36.4188 48.9716 38.5228 51.6312 42.5417 51.1347C42.9909 51.0756 44.232 50.2482 43.1563 50.3782C39.5866 50.8156 37.7426 47.8132 36.5724 44.929C36.4188 44.5508 34.8585 45.1536 35.0003 45.52L35.0121 45.5319Z" fill="white" stroke="white" stroke-width="0.43" stroke-miterlimit="10"/>
</svg>
