<svg width="70" height="70" viewBox="0 0 70 70" fill="none" xmlns="http://www.w3.org/2000/svg">
<path d="M35 70C54.33 70 70 54.33 70 35C70 15.67 54.33 0 35 0C15.67 0 0 15.67 0 35C0 54.33 15.67 70 35 70Z" fill="#9DD9DB"/>
<path fill-rule="evenodd" clip-rule="evenodd" d="M18.8888 27.5414C21.1701 28.5224 23.1087 29.3971 25.0708 30.2009C27.6359 31.2648 30.2245 32.2813 32.8013 33.3215C33.6642 33.6761 34.5153 34.3735 35.3545 34.3499C36.4893 34.3262 37.6595 33.8534 38.7351 33.3924C41.773 32.104 44.7635 30.721 47.7777 29.3853C48.9952 28.8416 50.2363 28.3333 51.8912 27.6359C49.8699 26.9149 51.9385 25.9338 52.8841 26.1347C55.2718 26.6312 55.9455 28.8534 57.2576 30.4019C58.1559 31.4657 58.8533 32.7187 59.6571 33.8771C60.2718 34.7518 60.059 35.5555 59.0779 36.0165C58.7943 36.1466 58.4988 36.2884 58.2032 36.3948C55.5791 37.2577 54.7281 39.0544 55.0945 41.7494C55.3309 43.4633 55.13 45.2364 55.1654 46.9858C55.1891 47.9905 54.9054 48.6997 53.9125 49.1844C48.1323 52.0213 42.3876 54.9645 36.572 57.7423C35.9574 58.0378 34.8581 57.6714 34.1134 57.3286C28.2269 54.5745 22.364 51.773 16.5248 48.9243C16.1229 48.7352 15.7801 48.0142 15.7683 47.5295C15.6973 44.7399 15.721 41.9503 15.7446 39.1607C15.7446 38.4279 15.6028 38.026 14.7753 37.7541C13.4515 37.3168 12.2222 36.6194 10.9692 35.9929C10.0945 35.5437 9.66895 35 10.4727 34.0071C12.2576 31.8085 13.9006 29.4917 15.7091 27.3168C16.1583 26.773 16.9739 26.4657 17.6831 26.2175C20.3664 25.2955 21.0637 26.8321 18.9124 27.5414H18.8888ZM35.2127 56.0165V38.5461C34.8463 38.8061 34.5626 38.9125 34.4207 39.1135C33.3096 40.7092 32.0567 42.234 31.182 43.9598C30.5555 45.1891 29.799 44.87 29.0661 44.539C26.312 43.286 23.617 41.9267 20.8865 40.6265C19.799 40.1064 18.676 39.6454 17.3522 39.0662C17.3522 41.9267 17.3167 44.4799 17.3876 47.0213C17.3876 47.3877 17.8368 47.9078 18.2032 48.0851C22.7777 50.2955 27.364 52.4586 31.9621 54.6217C32.955 55.0945 33.9834 55.4964 35.2245 56.0284L35.2127 56.0165ZM36.7257 55.7919C37.1158 55.721 37.4704 55.721 37.7422 55.591C42.1867 53.3806 46.6311 51.1702 51.0401 48.8889C51.8557 48.4633 53.0614 47.7659 53.1205 47.0922C53.3687 44.539 53.2151 41.9503 53.2151 39.2553C52.7068 39.409 52.3758 39.4562 52.0921 39.5981C49.0425 41.0638 45.9574 42.4941 42.955 44.0662C42.2103 44.4562 41.8203 44.338 41.4066 43.8298C40.5082 42.7305 39.6453 41.5957 38.7588 40.4846C38.1796 39.7518 37.5768 39.0307 36.7257 37.9905V55.7919ZM16.6902 28.487C15.4255 30.1536 14.2434 31.9031 12.8486 33.4752C11.9385 34.5035 12.3285 34.8581 13.286 35.3073C16.6784 36.8794 20.0709 38.4752 23.4515 40.0591C25.5909 41.0638 27.7304 42.0804 29.9172 43.1087C31.4893 40.6974 32.9905 38.3924 34.598 35.9338C28.5815 33.4397 22.7422 31.0047 16.702 28.4988L16.6902 28.487ZM53.8415 28.4161C53.4515 28.6525 53.2032 28.8652 52.9077 28.9953C48.0614 31.0993 43.215 33.2151 38.3451 35.2837C37.5176 35.6383 37.3404 36.1347 37.8368 36.773C39.1843 38.5224 40.5791 40.2482 42.0212 41.9267C42.2221 42.1513 42.8486 42.2458 43.1441 42.1158C44.5271 41.4893 45.851 40.7565 47.2222 40.0827C49.338 39.0425 51.4656 38.0378 53.5697 36.9976C55.0827 36.2411 56.5602 35.4373 58.156 34.5981C56.643 32.435 55.26 30.4492 53.8533 28.4161H53.8415Z" fill="white"/>
<path fill-rule="evenodd" clip-rule="evenodd" d="M49.6101 19.208C49.0309 18.3805 48.4635 17.5413 47.8843 16.7021C47.1751 15.6619 46.4422 14.6335 45.7566 13.5933C45.4848 13.1796 45.1538 13.0259 44.6692 13.0259C41.7259 13.0378 38.7708 13.0259 35.8276 13.0259C32.837 13.0259 29.8583 13.0259 26.8678 13.0259C26.5132 13.0259 26.2058 13.1087 26.0049 13.4278C24.6455 15.4136 23.2862 17.3876 21.9387 19.3735C21.7023 19.7162 21.7259 20.0472 21.9978 20.3664C22.5415 21.0047 23.0852 21.6311 23.6408 22.2576C25.402 24.2789 27.1633 26.312 28.9245 28.3333C29.7756 29.3025 30.6148 30.2836 31.4659 31.2529C31.7614 31.3711 34.0191 32.2576 34.3146 32.3876C34.3619 32.3876 35.1656 32.3049 35.5439 32.3049C35.603 32.3049 35.6503 32.3049 35.7094 32.3049C34.3855 28.4278 33.0498 24.5508 31.7023 20.6028H39.9647C38.6172 24.5389 37.2815 28.4278 35.9458 32.3167C36.0994 32.3167 36.8205 32.3167 37.0569 32.3167C37.3524 32.1749 39.35 31.3238 40.0711 31.2174C40.2011 31.111 40.3429 31.0047 40.4848 30.9101C42.1869 28.9597 43.8772 27.0094 45.5793 25.0472C46.915 23.5106 48.2507 21.9857 49.5746 20.4491C49.9765 19.9881 49.9765 19.6926 49.6337 19.1962L49.6101 19.208ZM26.6668 15.2482C27.5061 16.5366 28.2862 17.7423 29.1018 19.007H24.09C24.9529 17.7423 25.7921 16.5248 26.6668 15.2482ZM33.6408 31.1465C33.6408 31.1465 33.5581 31.1938 33.5108 31.2292C30.4611 27.7186 27.3997 24.208 24.2791 20.6264H30.0238C31.2295 24.1252 32.4351 27.6359 33.6408 31.1583V31.1465ZM30.6857 18.5106C29.8347 17.2103 29.0072 15.9456 28.1562 14.6335H34.0545C32.9198 15.9456 31.8205 17.2103 30.6857 18.5106ZM32.3524 19.007C33.5344 17.6477 34.6574 16.3593 35.8157 15.0354C36.9741 16.3711 38.0971 17.6595 39.2791 19.007H32.3642H32.3524ZM37.5652 14.6335H43.4635C42.6006 15.9574 41.785 17.2103 40.9458 18.5106C39.8347 17.234 38.7354 15.9692 37.5652 14.6335ZM38.0971 31.2292C38.0971 31.2292 38.0262 31.1701 37.9907 31.1465C38.2626 30.3309 38.5344 29.5153 38.8181 28.7115C39.4801 26.7612 40.142 24.8226 40.8158 22.8723C41.0522 22.1867 41.2886 21.5129 41.5132 20.8274C41.5841 20.6146 41.7259 20.5791 41.9269 20.5791C42.8016 20.5791 43.6644 20.5318 44.5392 20.52C45.4375 20.52 46.3358 20.52 47.2224 20.52C47.2342 20.5673 47.2578 20.6264 47.2696 20.6737C44.2082 24.1843 41.1467 27.7068 38.0852 31.2174L38.0971 31.2292ZM42.5297 18.9952C43.3335 17.7541 44.1255 16.5366 44.9529 15.2482C45.8276 16.5129 46.655 17.7186 47.5297 18.9952H42.5179H42.5297Z" fill="white"/>
<path fill-rule="evenodd" clip-rule="evenodd" d="M36.4305 9.31445C36.4305 9.79908 36.4305 10.2719 36.4305 10.7565C36.4305 11.2412 36.1941 11.4894 35.7922 11.4894C35.4021 11.4894 35.2012 11.2412 35.2012 10.7565C35.2012 9.78726 35.2012 8.81799 35.2012 7.84873C35.2012 7.43501 35.4494 7.16315 35.8158 7.16315C36.1822 7.16315 36.4305 7.43501 36.4305 7.84873C36.4305 8.34518 36.4305 8.82981 36.4305 9.32627V9.31445Z" fill="white"/>
<path fill-rule="evenodd" clip-rule="evenodd" d="M32.1398 11.4775C32.057 11.4066 31.8324 11.2884 31.7142 11.0993C31.2532 10.3428 30.8277 9.56262 30.4022 8.79429C30.2131 8.4515 30.284 8.13236 30.5913 7.96687C30.9105 7.78957 31.2533 7.87231 31.4306 8.19146C31.8797 8.9716 32.3289 9.73992 32.7781 10.5319C33.0499 11.0047 32.7899 11.4775 32.1398 11.4775Z" fill="white"/>
<path fill-rule="evenodd" clip-rule="evenodd" d="M39.4802 11.4776C38.8537 11.4776 38.5819 11.0284 38.8064 10.6265C39.2438 9.84634 39.6812 9.0662 40.1303 8.28606C40.3431 7.90781 40.7213 7.78961 41.0405 7.97873C41.3478 8.16786 41.4187 8.52247 41.2178 8.8889C40.7804 9.65722 40.3313 10.4255 39.8584 11.1702C39.7639 11.3357 39.5511 11.4303 39.4802 11.4776Z" fill="white"/>
</svg>
