<svg width="70" height="70" viewBox="0 0 70 70" fill="none" xmlns="http://www.w3.org/2000/svg">
<path d="M35 70C54.33 70 70 54.33 70 35C70 15.67 54.33 0 35 0C15.67 0 0 15.67 0 35C0 54.33 15.67 70 35 70Z" fill="#9DD9DB"/>
<path fill-rule="evenodd" clip-rule="evenodd" d="M51.5126 35.2956C51.5126 41.383 51.5126 47.4705 51.5126 53.558C51.5126 56.6312 50.366 57.8015 47.3636 57.8015C39.1249 57.8015 30.8861 57.8015 22.6592 57.8015C19.8105 57.8015 18.7112 56.8204 18.7112 53.948C18.6757 41.3594 18.6757 28.7589 18.7112 16.1703C18.7112 13.558 19.6332 12.6833 22.1745 12.6833C30.7679 12.6596 39.3613 12.6596 47.9547 12.6833C50.4842 12.6833 51.5126 13.7471 51.5126 16.3239C51.5362 22.6478 51.5126 28.9717 51.5126 35.3074M49.4558 35.1537C49.4558 28.948 49.4204 22.7424 49.4795 16.5249C49.4913 15.1419 48.9594 14.5272 47.6237 14.5272C39.2667 14.5272 30.9097 14.5272 22.5528 14.5272C21.1816 14.5272 20.496 15.1064 20.5079 16.584C20.5315 28.948 20.5315 41.3003 20.5079 53.6525C20.5079 55.1182 21.0161 55.8038 22.6119 55.792C30.8506 55.7447 39.0894 55.7329 47.3282 55.792C48.9949 55.792 49.5031 55.1892 49.4913 53.5816C49.4322 47.435 49.4677 41.2885 49.4677 35.1301" fill="white"/>
<path fill-rule="evenodd" clip-rule="evenodd" d="M40.1179 35.2128C38.5694 35.2128 37.0209 35.2837 35.4843 35.1655C35.0469 35.1301 34.6569 34.5627 34.2432 34.2317C34.6332 33.8889 35.0233 33.2625 35.4252 33.2507C38.5694 33.1679 41.7254 33.1679 44.8815 33.2507C45.3188 33.2507 45.7325 33.8417 46.1581 34.1608C45.6971 34.5154 45.2479 35.1183 44.7633 35.1537C43.2266 35.2837 41.6782 35.201 40.1297 35.201" fill="white"/>
<path fill-rule="evenodd" clip-rule="evenodd" d="M40.0476 24.5509C38.4992 24.5509 36.9507 24.6218 35.414 24.5036C35.0122 24.4681 34.6575 23.8653 34.2793 23.5343C34.6694 23.2624 35.0476 22.7542 35.4377 22.7423C38.5937 22.6832 41.7497 22.6714 44.9058 22.7542C45.3313 22.7542 45.745 23.3215 46.1706 23.6289C45.745 23.9362 45.3313 24.4681 44.8821 24.5036C43.2864 24.61 41.667 24.5509 40.0594 24.5509H40.0476Z" fill="white"/>
<path fill-rule="evenodd" clip-rule="evenodd" d="M40.2959 43.889C41.9035 43.889 43.5111 43.8417 45.1068 43.9244C45.4614 43.9481 45.7924 44.3973 46.1352 44.6455C45.8279 44.9528 45.5442 45.5084 45.2368 45.5202C41.8562 45.5911 38.4756 45.5911 35.095 45.5202C34.8113 45.5202 34.5394 44.9292 34.2676 44.5982C34.6222 44.3618 34.9532 43.9363 35.3078 43.9126C36.9744 43.8417 38.6411 43.8772 40.2959 43.8772" fill="white"/>
<path d="M23.7588 25.071C24.3971 26.2058 25.2954 27.1632 26.0992 28.1798C26.3474 28.4989 26.9621 28.4753 27.2103 28.1798C29.0661 25.9694 30.2008 23.298 31.7611 20.8866C32.3167 20.0356 30.9573 19.2554 30.4018 20.0947C28.9124 22.3878 27.8604 24.9646 26.0992 27.0687H27.2103C26.4893 26.1467 25.6855 25.2956 25.1181 24.2791C24.6216 23.3925 23.2741 24.1845 23.7588 25.071Z" fill="white"/>
<path d="M22.8134 33.4752C24.9056 34.8109 26.8087 36.4303 28.96 37.6596C29.8347 38.156 30.6266 36.8085 29.7519 36.3002C27.5888 35.0709 25.6975 33.4515 23.6053 32.1159C22.7543 31.5721 21.9623 32.9314 22.8134 33.4752Z" fill="white"/>
<path d="M28.8065 31.2531C27.0453 33.2034 24.8821 34.7046 22.8963 36.4186C22.128 37.0805 23.2509 38.1916 24.0074 37.5297C25.9932 35.8157 28.1564 34.3146 29.9176 32.3642C30.5913 31.6195 29.4802 30.4966 28.8065 31.2531Z" fill="white"/>
<path d="M23.2502 43.6407C25.6261 44.2081 27.2809 46.2175 29.645 46.844C30.6261 47.104 31.0398 45.591 30.0587 45.331C27.7183 44.7163 26.0635 42.7069 23.6639 42.1395C22.6828 41.9031 22.2691 43.4161 23.2502 43.6525" fill="white"/>
<path d="M28.9598 40.4847C26.0638 42.3878 23.7234 44.941 21.1702 47.2459C20.4255 47.9315 21.5367 49.0308 22.2813 48.357C24.7281 46.1348 26.974 43.6644 29.7518 41.844C30.591 41.2885 29.8109 39.9291 28.9598 40.4847Z" fill="white"/>
</svg>
