<svg width="70" height="70" viewBox="0 0 70 70" fill="none" xmlns="http://www.w3.org/2000/svg">
<path d="M35 70C54.33 70 70 54.33 70 35C70 15.67 54.33 0 35 0C15.67 0 0 15.67 0 35C0 54.33 15.67 70 35 70Z" fill="#9DD9DB"/>
<path fill-rule="evenodd" clip-rule="evenodd" d="M36.9389 32.5768C37.2344 33.1678 37.5063 33.7116 37.8136 34.3026H15.5677V36.8794C15.6859 36.8794 15.816 36.903 15.9342 36.903C22.8018 36.903 29.6812 36.903 36.5488 36.903C36.9034 36.903 37.128 37.0212 37.3053 37.3404C37.5535 37.7659 37.8372 38.156 38.18 38.6643H15.5441V39.1134C15.5441 42.0567 15.5677 45 15.5323 47.9314C15.5205 48.7707 16.407 49.8936 17.4472 49.8345C18.4637 49.7754 19.4803 49.8227 20.4968 49.8227C28.2746 49.8227 36.0405 49.8227 43.8183 49.8345C44.7521 49.8345 45.745 48.948 45.6859 47.9787C45.6623 47.565 45.6859 47.1513 45.6859 46.6194C46.0996 46.9149 46.4424 47.1631 46.7852 47.4113C46.9271 47.5177 47.0925 47.6241 47.2108 47.7541C47.3053 47.8605 47.4117 48.0142 47.3999 48.1442C47.2699 49.7754 46.0878 51.2056 44.362 51.4657C44.0784 51.5012 43.7947 51.5484 43.5228 51.5484C35.6741 51.5484 27.8254 51.5484 19.9767 51.5603C19.2202 51.5603 18.4519 51.5366 17.6954 51.5603C15.4732 51.6075 13.8301 49.9172 13.842 47.695C13.8656 43.1324 13.842 38.5697 13.842 34.0071C13.842 33.0378 13.842 32.0685 13.8301 31.0993C13.8183 29.1253 15.485 27.4468 17.4708 27.4468H37.2935C37.4944 28.0023 37.6836 28.5579 37.8963 29.1725H37.3053C32.6599 29.1725 23.2746 29.1725 18.6292 29.1962C18.0973 29.1962 17.5654 29.1607 17.0453 29.2553C16.1115 29.409 15.4968 30.2482 15.5323 31.182C15.5441 31.643 15.5323 32.0922 15.5323 32.6004H36.9389V32.5768Z" fill="white"/>
<path fill-rule="evenodd" clip-rule="evenodd" d="M62.4114 24.9645C62.2222 24.7635 61.9386 24.6453 61.6431 24.6453H60.2482H57.9551C57.3286 24.6453 57.1395 24.4562 57.1395 23.8416V22.364C57.1395 21.2529 57.1395 20.13 57.1395 19.0189C57.1277 17.565 56.7376 16.2529 56.0048 15.1181C54.9646 13.5224 53.5343 12.4586 51.7613 11.9503C50.4847 11.5839 49.1844 11.572 47.9196 11.8912C45.6029 12.494 43.9125 13.9125 42.8842 16.0992C42.4705 16.9858 42.2577 17.9787 42.2577 19.0543V20.13C42.2577 21.3711 42.2577 22.6122 42.2577 23.8534C42.2577 24.0307 42.2341 24.2671 42.0568 24.4444C41.8795 24.6217 41.6431 24.6453 41.4776 24.6453C40.8866 24.6453 40.331 24.6453 39.7636 24.6453H37.8369C37.0804 24.6453 36.7021 25.0354 36.7021 25.7919V28.1914V41.513C36.7021 42.6359 36.9267 43.5815 37.3877 44.4207C38.5816 46.5839 40.4137 47.6832 42.8369 47.7068C44.4445 47.7068 46.052 47.7186 47.6596 47.7186H54.3854C55.3074 47.7186 56.3475 47.7068 57.3523 47.6477C58.2979 47.6004 59.2199 47.2458 60.0828 46.6193C61.8322 45.3427 62.6714 43.6761 62.6596 41.5248C62.6478 39.1489 62.6596 36.773 62.6596 34.4089V31.1465C62.6596 30.4846 62.6596 28.8534 62.6596 27.9787C62.6596 27.6713 62.6596 27.3758 62.6596 27.0921C62.6596 26.5957 62.6596 26.1111 62.6714 25.6146C62.6832 25.3073 62.5532 25.0945 62.435 24.9645H62.4114ZM44.1253 18.8297C44.2553 16.643 45.3901 14.9763 47.4114 14.0425C49.4681 13.085 52.0568 13.5697 53.6289 15.1772C54.6927 16.2647 55.2364 17.5531 55.2364 19.0307V19.9172C55.2364 21.2411 55.2364 22.565 55.2364 23.8888C55.2364 24.0543 55.2128 24.2907 55.0355 24.468C54.8582 24.6453 54.6218 24.669 54.4563 24.669C52.5769 24.669 50.6856 24.669 48.8062 24.669H46.3948C46.2766 24.669 46.182 24.669 46.0993 24.6808C45.9929 24.6808 45.8865 24.7044 45.7565 24.7044C45.4965 24.6808 45.2955 24.6808 45.0946 24.6808H44.7518C44.3263 24.6572 44.0899 24.4089 44.0899 23.9834C44.0899 23.4278 44.0899 22.8605 44.0899 22.3049C44.078 21.1702 44.0662 19.9999 44.1253 18.8534V18.8297ZM60.3665 41.5484C60.3665 43.156 59.6454 44.3262 58.2151 45.0591C57.7187 45.3191 57.175 45.4137 56.6194 45.4137C52.0095 45.4137 47.3995 45.4373 42.7896 45.4137C41.1111 45.4137 39.9409 44.5508 39.2672 43.026C39.0662 42.565 39.0189 42.0803 39.0308 41.5721C39.0308 38.8061 39.0308 36.052 39.0308 33.286C39.0308 31.312 39.0308 29.338 39.0308 27.3758C39.0308 26.9858 39.0308 26.9858 39.409 26.9858H49.6927C53.1324 26.9858 56.5721 26.9858 60.0118 26.9858C60.2837 26.9858 60.3783 27.0449 60.3665 27.3285C60.3428 27.9077 60.3665 28.4869 60.3665 29.0661C60.3665 33.2387 60.3665 37.4113 60.3665 41.5721V41.5484Z" fill="white"/>
<path d="M47.1865 38.5224C47.0683 38.5224 46.9501 38.5106 46.8437 38.4869C46.0517 38.286 45.508 37.6122 45.4962 36.8203C45.4843 35.9929 45.4843 35.1773 45.4962 34.3498C45.5198 33.3924 46.2881 32.6477 47.2692 32.6477C48.2739 32.6713 49.0305 33.4397 49.0305 34.3971V35.2482V36.052C49.0305 36.3947 49.0541 36.7494 49.0068 37.104C48.9122 37.9196 47.9666 38.5342 47.1865 38.5342V38.5224ZM47.2929 33.4869C46.761 33.4869 46.3472 33.877 46.3354 34.3735C46.3236 35.1891 46.3236 36.0047 46.3354 36.8085C46.3354 37.2222 46.6309 37.5768 47.0564 37.6832C47.4583 37.7895 48.1321 37.364 48.1794 37.0094C48.2149 36.7021 48.203 36.3948 48.1912 36.0874C48.1912 35.9338 48.1912 35.7919 48.1912 35.6382V34.4208C48.1912 33.9125 47.8011 33.5106 47.3047 33.4988L47.2929 33.4869Z" fill="white"/>
<path d="M51.9856 38.5224C51.8674 38.5224 51.7492 38.5106 51.6428 38.4869C50.8508 38.286 50.3071 37.6122 50.2953 36.8203C50.2953 35.9929 50.2835 35.1773 50.2953 34.3498C50.3189 33.3924 51.0873 32.6477 52.0683 32.6477C53.0731 32.6713 53.8296 33.4397 53.8296 34.3971V36.0401C53.8296 36.3829 53.8532 36.7375 53.8059 37.0921C53.7114 37.9078 52.7658 38.5224 51.9856 38.5224ZM52.092 33.4869C51.5601 33.4869 51.1464 33.877 51.1345 34.3735C51.1227 35.1891 51.1227 36.0047 51.1345 36.8085C51.1345 37.2222 51.4301 37.5768 51.8556 37.6832C52.2575 37.7895 52.9312 37.364 52.9785 37.0094C53.014 36.7021 53.0021 36.3948 52.9903 36.0874C52.9903 35.9338 52.9903 35.7919 52.9903 35.6382V34.4208C52.9903 33.9125 52.6003 33.5106 52.1038 33.4988L52.092 33.4869Z" fill="white"/>
</svg>
