<svg width="70" height="70" viewBox="0 0 70 70" fill="none" xmlns="http://www.w3.org/2000/svg">
<path d="M35 70C54.33 70 70 54.33 70 35C70 15.67 54.33 0 35 0C15.67 0 0 15.67 0 35C0 54.33 15.67 70 35 70Z" fill="#9DD9DB"/>
<path fill-rule="evenodd" clip-rule="evenodd" d="M27.4706 25.3901C27.5534 23.7116 27.4233 22.3286 27.7425 21.0756C28.5226 17.9905 32.5652 16.7849 35.0947 18.8416C35.8276 19.4326 36.3359 19.338 36.9032 18.747C38.2744 17.3286 39.9647 17.8487 41.4304 18.286C43.0616 18.7825 44.35 19.9291 44.35 21.8912C44.35 22.9314 44.2082 23.9716 44.1018 25.26C44.8583 25.26 45.7449 25.3073 46.6196 25.2482C47.7188 25.1773 48.2271 25.6856 48.2508 26.7376C48.2744 28.0496 48.3335 29.3735 48.2153 30.6737C48.168 31.1584 47.6952 31.9031 47.2933 31.9858C46.3004 32.2104 46.3122 32.8014 46.3122 33.5461C46.324 36.5839 46.2886 39.6217 46.3122 42.6477C46.324 43.9716 45.8512 44.5153 44.4328 44.5035C38.6645 44.4326 32.8962 44.4444 27.1396 44.5035C25.733 44.5035 25.2366 43.9007 25.2484 42.6005C25.272 39.5626 25.2484 36.5366 25.2602 33.4988C25.2602 32.7423 25.2839 32.0804 24.2673 31.9976C24.0073 31.974 23.5581 31.6785 23.5581 31.5012C23.5344 29.6099 23.5463 27.7068 23.6526 25.8156C23.6526 25.6501 24.4092 25.4373 24.8229 25.4137C25.8158 25.3546 26.8205 25.3901 27.4943 25.3901H27.4706ZM27.3879 37.1867C27.3879 38.5461 27.3997 39.9172 27.3879 41.2766C27.3761 42.1749 27.7543 42.5295 28.6645 42.5059C30.2839 42.4468 31.9032 42.4468 33.5108 42.5059C34.4683 42.5414 34.7638 42.0804 34.7638 41.2293C34.7638 38.6052 34.7638 35.9692 34.7756 33.3451C34.7756 32.4704 34.4801 32.0449 33.5344 32.0685C31.8678 32.1158 30.2011 32.104 28.5344 32.0685C27.6716 32.0449 27.3524 32.4113 27.3642 33.2388C27.3879 34.5508 27.3642 35.8629 27.3642 37.1749L27.3879 37.1867ZM44.22 32.104C41.9505 32.104 39.882 32.0685 37.8252 32.1513C37.5179 32.1631 36.9978 32.7423 36.986 33.0614C36.9151 35.8865 36.9151 38.7234 36.986 41.5484C36.986 41.8676 37.5297 42.435 37.837 42.4468C39.6574 42.5295 41.4777 42.5295 43.2862 42.4468C43.6054 42.435 44.1609 41.9031 44.1727 41.6075C44.2437 38.5343 44.2082 35.4492 44.2082 32.104H44.22ZM32.6243 25.2955C33.0262 25.2955 33.4281 25.2955 33.83 25.2955C34.681 25.3191 35.0238 24.8936 34.9292 24.0662C34.8465 23.3688 34.8347 22.6477 34.6574 21.9622C34.2909 20.5083 33.3217 19.87 31.7969 19.7872C30.3075 19.7045 29.8465 20.6383 29.4801 21.7139C28.7354 23.9125 30.0238 25.3428 32.6125 25.2955H32.6243ZM36.9387 23.1442C36.9229 24.5705 37.6322 25.2758 39.0664 25.26C39.3737 25.26 39.6692 25.2719 39.9765 25.2364C41.3004 25.0473 42.4351 23.6879 42.376 22.3759C42.3051 20.9811 41.1467 19.8936 39.6928 19.8581C37.4943 19.8109 36.9742 20.4373 36.9387 23.1442ZM30.1775 29.9882V30.0118C31.3831 30.0118 32.5888 30 33.7945 30.0118C34.7756 30.0354 34.7874 29.3735 34.7756 28.6879C34.7638 28.0378 34.8465 27.3168 33.83 27.3286C31.3713 27.3404 28.9245 27.3522 26.4659 27.3286C25.4612 27.3168 25.4848 27.9787 25.4848 28.6525C25.4848 29.2908 25.3666 30.0236 26.4068 30C27.6597 29.9763 28.9127 30 30.1657 30L30.1775 29.9882ZM46.0049 27.435H37.0451V29.87H46.0049V27.435Z" fill="white"/>
<path fill-rule="evenodd" clip-rule="evenodd" d="M24.9531 53.6525C25.2368 54.2081 25.5205 54.7518 25.816 55.3074C26.3361 56.2885 26.868 57.2577 27.3763 58.2388C27.5536 58.5816 27.329 59.149 26.9625 59.3499C26.4779 59.61 25.9696 59.5036 25.6978 59.0308C25.3195 58.357 24.9767 57.6714 24.6103 56.9859C23.9129 55.6738 23.2155 54.3736 22.5181 53.0615C22.2226 52.5059 21.8916 51.9504 21.6316 51.3712C21.3597 50.7565 21.5252 50.1182 22.3881 49.9409C23.0027 49.8227 23.6292 49.7282 24.2557 49.6218C25.0713 49.4918 25.8987 49.3617 26.7261 49.2199C27.8845 49.0308 29.0547 48.8416 30.2131 48.6525C30.8396 48.558 31.2297 49.0544 31.3006 49.4445C31.3834 49.8937 30.9696 50.4019 30.4614 50.4847C29.3148 50.662 28.1682 50.8866 27.0216 51.0875C26.4661 51.1821 25.9105 51.2412 25.3668 51.3357C25.2841 51.3476 25.2131 51.4067 25.1304 51.4303C25.1895 51.4894 25.2486 51.5721 25.3195 51.6076C26.9625 52.4941 28.7001 53.1561 30.5205 53.5698C32.6954 54.0662 34.894 54.279 37.128 54.149C39.2912 54.0189 41.407 53.5934 43.4164 52.8133C46.1469 51.7613 48.5819 50.2246 50.6978 48.1679C52.3172 46.5958 53.6529 44.8227 54.7049 42.8487C55.5323 41.3003 56.1469 39.6691 56.5488 37.9551C57.0098 36.0166 57.2462 34.0544 57.1517 32.0686C57.0926 31.0048 56.9507 29.9409 56.7616 28.8889C56.5961 27.9433 56.3715 26.9977 56.0642 26.0875C55.7569 25.1537 55.3786 24.2199 54.9176 23.3452C54.3148 22.2223 53.5938 21.1702 52.9082 20.0946C52.7072 19.7873 52.6836 19.2317 52.8845 18.9953C53.1091 18.7234 53.8538 18.5225 54.0902 18.7471C54.4212 19.0426 54.7285 19.3736 54.9531 19.7518C55.5086 20.6502 56.0524 21.5603 56.5488 22.4941C57.2226 23.7471 57.7191 25.0828 58.1091 26.4539C58.5701 28.0733 58.8538 29.7163 58.972 31.383C59.102 33.2152 58.972 35.0237 58.6765 36.844C58.4165 38.4634 57.9673 40.0355 57.3526 41.5603C56.5606 43.5107 55.5086 45.331 54.232 47.0095C53.0618 48.5461 51.7143 49.9055 50.2131 51.0993C49.1257 51.9622 47.9436 52.7187 46.7025 53.3688C45.5559 53.9717 44.3739 54.4445 43.1682 54.8818C41.8443 55.3546 40.485 55.6738 39.102 55.8393C37.4472 56.052 35.7687 56.2175 34.102 56.0048C32.7545 55.8393 31.3952 55.6974 30.0831 55.3901C28.8656 55.1064 27.6836 54.6336 26.4897 54.2081C25.9933 54.0308 25.5205 53.7944 25.0358 53.5816C25.0122 53.5934 24.9886 53.6171 24.9649 53.6289L24.9531 53.6525Z" fill="white" stroke="white" stroke-width="0.63" stroke-miterlimit="10"/>
<path fill-rule="evenodd" clip-rule="evenodd" d="M46.9737 12.1631C46.7136 11.6312 46.4891 11.182 46.2645 10.7447C45.8153 9.86995 45.3661 8.99524 44.9288 8.12054C44.7515 7.75411 44.9761 7.16309 45.3425 6.98579C45.8035 6.7612 46.3827 6.91487 46.5954 7.32858C47.6829 9.45624 48.7704 11.5957 49.8578 13.7234C49.9997 13.9952 50.1888 14.2553 50.2479 14.539C50.3779 15.2009 49.9761 15.6028 49.3496 15.6974C48.0139 15.8983 46.6782 16.0756 45.3543 16.2766C44.2195 16.4421 43.073 16.6075 41.9382 16.8321C41.359 16.9385 40.6734 16.4184 40.768 15.7919C40.8153 15.461 41.1581 15.0473 41.5127 14.9882C42.8484 14.7872 44.1841 14.5626 45.5316 14.3617C45.8744 14.3144 46.229 14.2908 46.5836 14.2553C46.5836 14.2198 46.6073 14.1844 46.6191 14.1489C46.3354 13.9952 46.0753 13.8298 45.7798 13.6997C43.7586 12.7659 41.6664 12.0922 39.4441 11.8321C38.5103 11.7257 37.5647 11.7021 36.6309 11.6075C35.3543 11.4775 34.0777 11.5721 32.8248 11.773C31.6545 11.9621 30.4961 12.234 29.3614 12.5768C26.6782 13.3806 24.2787 14.7399 22.151 16.5366C20.177 18.2033 18.534 20.1655 17.2692 22.435C16.3354 24.1134 15.6143 25.8629 15.1652 27.7186C14.7278 29.539 14.5269 31.3948 14.5505 33.2742C14.5742 34.669 14.7278 36.0283 14.9997 37.3877C15.3307 38.9716 15.8035 40.5082 16.5482 41.9503C17.1392 43.0969 17.8248 44.1844 18.4867 45.2955C18.7349 45.721 18.664 46.2293 18.2503 46.5484C17.9548 46.7848 17.3283 46.7612 17.0801 46.4302C16.6191 45.8156 16.1581 45.2009 15.8035 44.5272C15.2125 43.4042 14.6687 42.2577 14.1841 41.0874C13.8295 40.2246 13.5813 39.3144 13.3448 38.4042C13.0021 37.104 12.8248 35.7801 12.742 34.4208C12.6593 32.9432 12.6593 31.4775 12.8366 30.0236C13.1084 27.6714 13.7704 25.4255 14.7278 23.2742C15.4252 21.7257 16.2881 20.2718 17.3165 18.9243C18.5103 17.364 19.8697 15.9692 21.43 14.7517C22.7775 13.6997 24.1723 12.7423 25.6971 12.0094C26.8555 11.4539 28.0375 10.9456 29.2905 10.6501C30.0588 10.461 30.8153 10.2009 31.5954 10.0591C32.411 9.90541 33.2385 9.82267 34.0777 9.75175C34.7515 9.69264 35.437 9.63354 36.1108 9.68082C37.3874 9.75174 38.6876 9.83449 39.9524 10.0354C41.2763 10.2482 42.5884 10.5555 43.8649 10.9338C44.846 11.2293 45.7798 11.7021 46.7255 12.104C46.7727 12.1276 46.82 12.1276 46.9737 12.1631Z" fill="white" stroke="white" stroke-width="0.63" stroke-miterlimit="10"/>
</svg>
