<svg width="70" height="70" viewBox="0 0 70 70" fill="none" xmlns="http://www.w3.org/2000/svg">
<path d="M35 70C54.33 70 70 54.33 70 35C70 15.67 54.33 0 35 0C15.67 0 0 15.67 0 35C0 54.33 15.67 70 35 70Z" fill="#9DD9DB"/>
<path fill-rule="evenodd" clip-rule="evenodd" d="M34.9644 15.9457C34.397 15.9457 33.8297 15.9102 33.2741 15.9457C32.4467 16.0166 31.6193 16.0875 30.8155 16.253C29.9171 16.4421 29.0306 16.6785 28.1677 16.9859C27.3403 17.2814 26.5483 17.6833 25.7564 18.097C24.3852 18.8062 23.1677 19.7282 22.033 20.7684C20.9455 21.7731 19.9644 22.8724 19.1488 24.1017C18.6405 24.87 18.1559 25.6502 17.7304 26.4658C17.3521 27.175 17.0684 27.9433 16.7375 28.688C16.442 29.3499 16.2174 30.0355 16.2883 30.7802C16.3356 31.2766 16.4183 31.7613 16.4892 32.2459C16.572 32.8842 16.6666 33.5225 16.7375 34.1726C16.8202 34.8109 16.8911 35.4492 16.9502 36.0993C16.9857 36.5249 16.9857 36.9504 17.033 37.3641C17.0803 37.7542 17.163 38.1442 17.2103 38.5461C17.293 39.2672 17.3521 39.9882 17.4231 40.6974C17.4585 41.0757 17.4822 41.4658 17.5767 41.8322C17.7186 42.3759 17.163 42.9669 16.6547 42.9906C15.7564 43.026 16.0401 43.1797 15.1417 43.2861C14.4325 43.3807 13.7351 43.3807 13.2978 42.7187C12.955 42.1868 12.6595 41.6076 12.4231 41.0166C12.1748 40.3665 11.9975 39.6927 11.8202 39.0071C11.5365 37.9078 11.3829 36.7967 11.3592 35.6502C11.3356 34.7045 11.3829 33.7707 11.5483 32.8487C11.6666 32.175 11.8439 31.5012 11.9857 30.8275C12.1394 30.1419 12.494 29.87 13.1205 29.7164C13.1559 29.5036 13.1914 29.3972 13.2268 29.3145C13.4396 28.7589 13.6287 28.1915 13.8415 27.636C14.0779 26.9977 14.3025 26.3357 14.5862 25.7211C14.9881 24.8582 15.4372 24.019 15.9101 23.1797C16.2292 22.6123 16.572 22.0568 16.9502 21.5367C18.0614 20 19.1134 19.0544 20.5791 17.8369C21.7138 16.8913 22.9313 16.0639 24.2316 15.3428C25.4136 14.6809 26.6311 14.1135 27.9077 13.6998C28.9479 13.3688 30.0235 13.1324 31.0992 12.9078C33.1086 12.4705 34.6689 12.5887 36.6902 12.6123C37.4703 12.6123 38.2623 12.766 39.0306 12.9197C39.9881 13.1206 40.9573 13.3452 41.8911 13.6407C42.6949 13.9007 43.4869 14.2317 44.2434 14.61C45.2008 15.0828 46.0164 15.5792 46.9266 16.1466C48.6169 17.2104 50.1063 18.5107 51.4301 20.0119C52.5413 21.2766 53.5223 22.636 54.3143 24.1135C54.8935 25.1773 55.3781 26.3003 55.8628 27.4232C56.1583 28.1088 56.1346 28.5698 56.3356 29.2908C56.4656 29.7282 56.2765 29.6218 56.6074 29.7164C56.9975 29.8346 57.4585 29.8937 57.6831 30.2837C57.884 30.6383 58.0259 31.0402 58.1086 31.4421C58.416 32.9197 58.6878 34.3972 58.5696 35.9102C58.5105 36.714 58.4041 37.5178 58.2741 38.3216C58.0732 39.5154 57.6949 40.6738 57.2103 41.7849C56.9502 42.3759 56.6429 42.9788 56.0046 43.2152C55.6618 43.3452 55.2363 43.3334 54.858 43.2979C54.0779 43.2388 54.4916 43.1206 53.7115 43.026C53.4632 42.9906 53.1914 43.0024 52.955 42.9197C52.4822 42.7424 52.3048 42.2932 52.3758 41.7494C52.4822 40.9811 52.5649 40.201 52.6476 39.4208C52.754 38.4279 52.8722 37.435 52.9786 36.4421C53.0495 35.8156 53.0968 35.1892 53.1796 34.5627C53.2978 33.6171 53.4278 32.6833 53.5578 31.7376C53.6996 30.7565 53.7233 29.7991 53.2859 28.8653C52.8959 28.0497 52.6122 27.175 52.1748 26.383C51.6429 25.4138 51.0519 24.4799 50.4136 23.5816C49.5625 22.3759 48.5578 21.3121 47.423 20.3546C46.3592 19.4563 45.2245 18.6525 43.9833 18.0024C43.0141 17.4823 42.0212 17.045 40.981 16.7258C39.8344 16.3594 38.6524 16.0875 37.4467 16.0166C36.6193 15.9693 35.7918 15.9575 34.9644 15.922C34.9644 15.922 34.9644 15.9457 34.9644 15.9575V15.9457Z" stroke="white" stroke-width="1.42" stroke-miterlimit="10"/>
<path fill-rule="evenodd" clip-rule="evenodd" d="M49.7041 38.7588C49.5622 39.7636 49.4558 40.7092 49.3022 41.6548C49.1012 42.9196 48.6402 44.1134 48.061 45.26C47.5409 46.3002 46.879 47.2458 46.1225 48.1324C44.905 49.5508 43.4629 50.6619 41.8199 51.5248C40.7679 52.0803 39.6568 52.4941 38.4984 52.7305C37.009 53.0378 35.496 53.2269 33.9594 52.9905C33.1556 52.8605 32.3282 52.7896 31.5599 52.5532C30.9452 52.3522 30.4724 52.4822 29.9287 52.7186C29.3022 52.9905 28.6166 53.1442 27.9547 53.3215C26.8672 53.6052 25.7561 53.6524 24.6331 53.5933C24.0421 53.5579 23.4629 53.416 23.0729 52.8959C22.7537 52.4822 22.7419 51.7966 23.1556 51.2647C23.7466 50.4964 24.314 49.7163 24.8932 48.948C25.0232 48.7825 25.0114 48.6643 24.8577 48.4988C23.6757 47.2222 22.7419 45.7801 22.0918 44.1607C21.8435 43.5579 21.7135 42.9078 21.5244 42.2695C21.4298 41.9503 21.3353 41.643 21.2762 41.3238C21.0634 40.0945 20.9216 38.8652 21.0989 37.6241C21.2171 36.7967 21.3235 35.9692 21.5362 35.1654C21.7608 34.3144 22.08 33.4751 22.4346 32.6595C22.9074 31.5957 23.5575 30.6264 24.3022 29.7281C25.2005 28.6524 26.2407 27.7068 27.4109 26.9267C28.4984 26.2056 29.6568 25.6383 30.8861 25.2364C31.8672 24.9172 32.8837 24.7163 33.9121 24.6099C34.9287 24.5035 35.9334 24.5035 36.9381 24.6335C38.0965 24.7872 39.2194 25.0591 40.3187 25.4728C41.5362 25.9219 42.671 26.513 43.6875 27.2931C44.5031 27.9078 45.2478 28.6406 45.957 29.3735C46.7844 30.2364 47.4582 31.2411 47.9901 32.3049C48.3802 33.0732 48.6402 33.9125 48.9476 34.7163C49.0421 34.9763 49.1367 35.2364 49.184 35.5082C49.3613 36.6075 49.5031 37.7068 49.6568 38.7588H49.7041ZM25.5197 51.5721C25.957 51.5366 26.3589 51.513 26.7608 51.4657C27.8246 51.3357 28.8294 51.0047 29.7986 50.5673C30.2951 50.3309 30.8034 50.1891 31.3589 50.3428C31.7844 50.461 32.21 50.6264 32.6355 50.7092C33.2383 50.8392 33.853 50.9692 34.4558 51.0047C35.1651 51.0402 35.8861 51.0047 36.5953 50.9574C37.7655 50.8747 38.9003 50.5792 39.9759 50.13C41.2762 49.5863 42.47 48.8416 43.522 47.8959C44.4204 47.0803 45.2005 46.1702 45.8152 45.13C46.4771 44.0189 46.9972 42.8487 47.2454 41.5721C47.3755 40.9338 47.5055 40.2836 47.5528 39.6335C47.6 38.9716 47.5764 38.2978 47.4937 37.6359C47.3991 36.8676 47.2454 36.0993 47.0563 35.3546C46.7017 33.9125 46.0043 32.6241 45.1178 31.4539C43.7112 29.5981 41.9145 28.2269 39.7277 27.3877C38.3684 26.8676 36.9618 26.5839 35.496 26.5839C35.0114 26.5839 34.5149 26.5839 34.0421 26.6548C33.2502 26.7848 32.4464 26.9149 31.6781 27.1394C30.6615 27.4349 29.7159 27.9196 28.8057 28.4633C27.1272 29.4799 25.8506 30.8865 24.8341 32.5413C24.1485 33.6643 23.6521 34.8699 23.4038 36.1584C23.262 36.8794 23.1556 37.6241 23.1201 38.3569C23.0492 39.6808 23.2265 40.9929 23.6048 42.2695C23.9121 43.3097 24.3495 44.2907 24.905 45.2127C25.4133 46.0401 26.0279 46.7967 26.7017 47.4941C27.1391 47.9432 27.2336 49.0425 26.7963 49.7163C26.4062 50.3309 25.957 50.9219 25.496 51.5839L25.5197 51.5721Z" fill="white"/>
<path fill-rule="evenodd" clip-rule="evenodd" d="M26.6077 39.0306C26.5604 38.1796 27.3523 37.3639 28.298 37.3876C29.22 37.4112 30.0237 38.1914 29.941 39.2079C29.8701 40.0472 29.1845 40.7564 28.2507 40.7564C27.3405 40.7564 26.5367 39.9881 26.5958 39.0306H26.6077Z" fill="white"/>
<path fill-rule="evenodd" clip-rule="evenodd" d="M33.7825 39.0306C33.7352 38.1796 34.5271 37.3639 35.4728 37.3876C36.3948 37.4112 37.1985 38.1914 37.1158 39.2079C37.0449 40.0472 36.3593 40.7564 35.4255 40.7564C34.5153 40.7564 33.7115 39.9881 33.7706 39.0306H33.7825Z" fill="white"/>
<path fill-rule="evenodd" clip-rule="evenodd" d="M40.9456 39.0306C40.8983 38.1796 41.6902 37.3639 42.6359 37.3876C43.5578 37.4112 44.3616 38.1914 44.2789 39.2079C44.208 40.0472 43.5224 40.7564 42.5886 40.7564C41.6784 40.7564 40.8746 39.9881 40.9337 39.0306H40.9456Z" fill="white"/>
</svg>
