<svg width="70" height="70" viewBox="0 0 70 70" fill="none" xmlns="http://www.w3.org/2000/svg">
<g clip-path="url(#clip0_3195_1700)">
<path d="M35.0059 70.0118C54.3391 70.0118 70.0118 54.3391 70.0118 35.0059C70.0118 15.6727 54.3391 0 35.0059 0C15.6727 0 0 15.6727 0 35.0059C0 54.3391 15.6727 70.0118 35.0059 70.0118Z" fill="#9DD9DB"/>
<path d="M25.4297 27.9953C25.4533 27.8416 25.4888 27.6761 25.5479 27.4988C25.607 27.3214 25.7489 27.0614 25.9972 26.6949C26.2454 26.3402 26.4109 26.021 26.5173 25.7609C26.3045 25.8318 26.1627 25.8673 26.0917 25.8791C26.0208 25.8909 25.9735 25.8555 25.938 25.7491C25.9026 25.6545 25.9144 25.5717 25.9617 25.5126C26.009 25.4535 26.1154 25.3944 26.2691 25.3471C26.4228 25.2998 26.5883 25.2407 26.7656 25.1698C27.0257 24.7796 27.2385 24.4604 27.3922 24.224C27.5577 23.9875 27.735 23.7275 27.9242 23.4555C28.1134 23.1836 28.2907 22.9472 28.468 22.758C28.6454 22.5689 28.8109 22.4506 28.9527 22.427C29.0591 22.5452 29.0119 22.758 28.7991 23.0654C28.5862 23.3728 28.4207 23.6211 28.3025 23.822C28.1843 24.023 28.0661 24.2122 27.9597 24.3895C27.8533 24.5787 27.7232 24.7915 27.5814 25.0397C27.806 24.9688 28.137 24.8624 28.5862 24.7324C29.0355 24.6023 29.4847 24.4723 29.9576 24.3422C30.4305 24.2122 30.8916 24.094 31.3763 23.9757C31.8492 23.8575 32.3221 23.7629 32.7832 23.6683C33.2442 23.5856 33.729 23.5028 34.2373 23.4319C34.7457 23.361 35.1476 23.3255 35.4787 23.3019C35.7979 23.29 36.0698 23.361 36.2826 23.5147C36.1052 23.6211 35.9279 23.6683 35.7742 23.6683C35.6087 23.6683 35.4432 23.6683 35.254 23.692C35.0649 23.7038 34.8521 23.7393 34.6038 23.7866C34.3555 23.8339 34.0482 23.893 33.6817 23.9757C33.327 24.0467 32.9369 24.1176 32.5349 24.1885C32.1211 24.2595 31.7073 24.354 31.2936 24.4604C30.8798 24.5668 30.4896 24.6851 30.1113 24.7915C29.7448 24.8979 29.3547 25.0043 28.9527 25.1107C28.5508 25.2171 28.267 25.288 28.0897 25.3353C27.9242 25.3708 27.7823 25.4181 27.6759 25.4535C27.5695 25.489 27.475 25.5363 27.4158 25.5836C27.3449 25.6427 27.2858 25.7136 27.2149 25.8082C27.1439 25.9028 27.0612 26.0328 26.9666 26.1983C26.872 26.3638 26.7538 26.5766 26.6237 26.8367C26.4937 27.0968 26.3755 27.3214 26.2809 27.4988C26.1745 27.6879 26.1154 27.8535 26.0799 28.0071C26.0444 28.1608 26.0563 28.2909 26.1272 28.3973C26.1863 28.5037 26.2809 28.551 26.3991 28.5628C26.5173 28.5628 26.7301 28.48 27.0375 28.2909C27.3449 28.1017 27.5577 27.948 27.6878 27.818C27.806 27.6879 27.9124 27.6052 27.9715 27.5697C28.0424 27.5342 28.1015 27.5342 28.1488 27.5934C28.1961 27.6525 28.1488 27.7707 28.0306 27.948C27.9006 28.1254 27.7823 28.2672 27.6759 28.3618C27.5695 28.4682 27.4395 28.5628 27.2976 28.6574C27.1557 28.7519 26.9902 28.8347 26.8011 28.8938C26.6829 28.9411 26.5646 28.9648 26.4464 28.9884C26.3755 28.9884 26.3045 29.012 26.2454 29.012C26.0681 29.012 25.9144 29.0002 25.808 28.9411C25.7016 28.882 25.6188 28.7992 25.5597 28.681C25.5006 28.5746 25.4652 28.48 25.4533 28.3973C25.4533 28.3973 25.4533 28.3855 25.4533 28.3736C25.4415 28.2791 25.4533 28.1608 25.4652 28.0071L25.4297 27.9953Z" fill="white" stroke="white" stroke-width="0.2" stroke-miterlimit="10"/>
<path d="M28.4209 27.9479C28.5154 27.8179 28.6218 27.6169 28.7401 27.3686C28.2435 27.7588 27.9361 27.9597 27.8061 27.9834C27.676 28.007 27.5815 27.9479 27.5342 27.8061C27.5578 27.7351 27.6642 27.6405 27.8534 27.5105C28.0425 27.3805 28.2317 27.2386 28.4327 27.0967C28.6337 26.9549 28.8346 26.7775 29.0474 26.5647C29.2602 26.3519 29.5203 26.0445 29.8159 25.6189C30.1114 25.2051 30.3834 24.8032 30.6198 24.4249C30.8563 24.0466 31.0218 23.7628 31.14 23.5618C31.2582 23.3727 31.341 23.2072 31.4001 23.089C31.4592 22.9589 31.5301 22.8761 31.6365 22.8289C31.8966 22.8761 32.0385 22.9707 32.074 23.1008C32.0976 23.2308 32.074 23.3963 31.9676 23.5973C31.8612 23.7983 31.6602 24.1175 31.341 24.5667C31.0218 25.016 30.7026 25.4652 30.3834 25.9027C30.0642 26.3401 29.8514 26.6356 29.7213 26.7893C29.6031 26.9312 29.5203 27.0967 29.4612 27.2741C29.8632 26.9076 30.1469 26.6711 30.2888 26.5529C30.4306 26.4347 30.5843 26.3519 30.7262 26.281C30.8681 26.2219 30.9981 26.1982 31.1045 26.2337C31.2109 26.2692 31.2937 26.3519 31.3291 26.4938C31.3646 26.6356 31.3528 26.7893 31.2937 26.9548C31.2346 27.1204 31.1873 27.2504 31.1518 27.3213C31.1163 27.4041 31.1163 27.4632 31.1518 27.4987C31.1873 27.546 31.2819 27.5341 31.4592 27.4632C31.6365 27.4041 31.802 27.3095 31.9676 27.1795C32.1449 27.0494 32.2749 26.943 32.3813 26.8603C32.4877 26.7775 32.5705 26.742 32.6296 26.7657C32.6887 26.7893 32.7478 26.8839 32.8069 27.0613C32.4168 27.3805 32.1449 27.5814 32.003 27.6642C31.8612 27.7469 31.7075 27.8179 31.5419 27.877C31.3883 27.9361 31.2582 27.9716 31.1755 27.9834C31.0572 28.007 30.9272 27.9952 30.7971 27.9716C30.6671 27.9479 30.5725 27.8533 30.5252 27.7115C30.4779 27.5578 30.5252 27.4041 30.6435 27.2149C30.7735 27.0376 30.8326 26.9194 30.8208 26.8603C30.8208 26.8012 30.7499 26.8248 30.6435 26.9194C30.537 27.014 30.3952 27.1204 30.2415 27.2504C30.0878 27.3805 29.9578 27.4869 29.8395 27.5814C29.7213 27.676 29.5913 27.7824 29.4376 27.9125C29.2839 28.0425 29.142 28.1489 29.012 28.2435C28.8819 28.3381 28.7519 28.3972 28.5982 28.4326C28.48 28.4563 28.3972 28.409 28.3381 28.3026C28.279 28.1962 28.3026 28.078 28.3972 27.9361L28.4209 27.9479Z" fill="white" stroke="white" stroke-width="0.2" stroke-miterlimit="10"/>
<path d="M32.547 26.1983C32.7479 25.8791 32.9371 25.6427 33.1263 25.4772C33.3154 25.3117 33.4691 25.1816 33.5755 25.1107C33.6819 25.0279 33.8474 24.957 34.0484 24.8979C34.3203 24.8624 34.5213 24.8742 34.6277 24.9333C34.7341 24.9925 34.8168 25.0634 34.8523 25.158C34.8996 25.2526 34.9232 25.359 34.9351 25.4772C34.9469 25.5954 34.9942 25.6427 35.0888 25.5954C35.1833 25.5481 35.2424 25.5954 35.2661 25.7254C35.2897 25.8555 35.2661 26.0092 35.1952 26.1629C35.1242 26.3166 35.0651 26.4348 35.0178 26.5057C34.9705 26.5767 34.9705 26.6358 34.9942 26.7067C35.0296 26.7776 35.1006 26.8131 35.207 26.8249C35.3134 26.8367 35.4434 26.8131 35.5853 26.7422C35.7272 26.6712 35.8572 26.5767 35.9518 26.4702C36.0464 26.3638 36.1409 26.3047 36.2355 26.2811C36.3301 26.2574 36.3892 26.2811 36.4365 26.3757C36.4601 26.5412 36.4365 26.6712 36.3537 26.7895C36.271 26.9077 36.1409 27.0141 35.9754 27.1087C35.7981 27.2032 35.6562 27.2623 35.5498 27.286C35.4434 27.3096 35.3725 27.3215 35.3488 27.3215C35.0888 27.3687 34.876 27.3451 34.7223 27.286C34.5568 27.2151 34.4149 27.1087 34.3203 26.955C34.143 27.0495 33.9775 27.1559 33.8474 27.2742C33.7174 27.3924 33.5755 27.4988 33.4455 27.5697C33.3154 27.6407 33.1617 27.688 32.9844 27.7234C32.8662 27.7471 32.7361 27.6998 32.5824 27.5934C32.4406 27.487 32.3342 27.2623 32.275 26.9077C32.2514 26.7658 32.346 26.5294 32.547 26.222V26.1983ZM33.2327 26.1983C33.0908 26.3993 33.008 26.5648 32.9726 26.7067C32.9489 26.8486 32.9726 26.9431 33.0671 27.0023C33.1499 27.0614 33.2681 27.0495 33.4218 26.9668C33.5755 26.884 33.7292 26.7658 33.8947 26.6358C34.0484 26.5057 34.1903 26.3638 34.3085 26.222C34.4267 26.0801 34.4976 25.9619 34.4976 25.8555C34.4976 25.7491 34.4858 25.6545 34.4267 25.5481C34.3676 25.4417 34.273 25.4181 34.1193 25.4535C33.9775 25.489 33.8238 25.5836 33.6701 25.7136C33.5164 25.8437 33.3627 26.0092 33.2208 26.2102L33.2327 26.1983Z" fill="white" stroke="white" stroke-width="0.2" stroke-miterlimit="10"/>
<path d="M36.0582 26.1036C36.1409 26.0445 36.271 25.8908 36.4247 25.678C36.5784 25.4534 36.7793 25.2406 37.0158 25.0515C37.2522 24.8505 37.4296 24.7086 37.5714 24.6022C37.7015 24.4958 37.8552 24.4249 38.0325 24.3894C38.198 24.4249 38.3044 24.5195 38.3635 24.6613C38.4227 24.8032 38.4345 24.9687 38.4108 25.146C38.3872 25.3234 38.2335 25.6426 37.9734 26.1036C38.4463 25.6544 38.7773 25.347 38.9547 25.1697C39.132 24.9923 39.2857 24.8859 39.4039 24.8387C39.5221 24.7795 39.6403 24.815 39.7467 24.9214C39.8532 25.0278 39.8886 25.2051 39.8295 25.4534C39.7822 25.7017 39.7822 25.879 39.8295 25.9854C39.8768 26.0918 40.1014 26.0445 40.4916 25.8436C40.8817 25.6426 41.1773 25.4652 41.3664 25.3234C41.3901 25.5362 41.3664 25.6899 41.2955 25.7963C41.2245 25.9027 40.9999 26.0682 40.598 26.2928C40.196 26.5174 39.8886 26.6238 39.664 26.5884C39.4394 26.5529 39.2975 26.4701 39.2147 26.3401C39.132 26.21 39.1083 26.0564 39.1202 25.879C39.132 25.7135 39.0256 25.7726 38.7655 26.0564C38.5172 26.3401 38.2926 26.5647 38.1034 26.742C37.9143 26.9076 37.7606 27.0376 37.666 27.1085C37.5242 27.1322 37.4059 27.1204 37.3114 27.0731C37.2168 27.0258 37.1577 26.9312 37.1222 26.7893C37.0867 26.6475 37.1222 26.4938 37.2404 26.3519C37.3586 26.21 37.465 26.0564 37.5596 25.9027C37.666 25.749 37.7133 25.5953 37.7251 25.4534C37.7251 25.3115 37.6542 25.2761 37.4887 25.3588C37.3232 25.4416 37.1222 25.6189 36.8621 25.9027C36.602 26.1864 36.4365 26.3756 36.3419 26.4465C36.2592 26.5174 36.1291 26.5765 35.9636 26.6238C35.94 26.3519 35.9636 26.1746 36.0582 26.1155V26.1036Z" fill="white" stroke="white" stroke-width="0.2" stroke-miterlimit="10"/>
<path d="M40.551 25.9263C40.5274 25.7844 40.5865 25.6662 40.7047 25.5598C40.8348 25.4534 41.0358 25.2643 41.3195 25.0042C41.6032 24.7441 41.8633 24.4485 42.0998 24.1175C42.3362 23.7865 42.5372 23.4554 42.6909 23.1481C42.8446 22.8407 43.0101 22.5333 43.1874 22.2377C43.3647 21.9422 43.5303 21.6821 43.6603 21.4457C43.7904 21.2092 43.9322 21.0555 44.0623 20.9609H44.145C44.2514 21.1737 44.2278 21.4457 44.0504 21.7649C43.8731 22.0841 43.6603 22.4978 43.4239 22.9944C43.1874 23.4909 42.9628 23.9165 42.7618 24.2948C42.5608 24.6613 42.4663 24.9332 42.4781 25.0869C42.9037 24.7441 43.2702 24.4249 43.5776 24.1057C43.8849 23.7865 44.1687 23.5264 44.4051 23.3372C44.6416 23.1481 44.8189 23.0417 44.9135 23.0417C45.0081 23.0417 45.1026 23.1008 45.1854 23.219C45.2681 23.3372 45.28 23.4791 45.2327 23.6564C45.1854 23.8338 45.0672 23.9283 44.8662 23.952C44.677 23.9756 44.4997 24.0347 44.3578 24.1411C44.216 24.2475 44.0623 24.3658 43.9086 24.4958C43.7549 24.6259 43.6485 24.7441 43.5894 24.8387C43.5303 24.9332 43.5421 25.0515 43.6248 25.1933C43.7194 25.3234 43.8495 25.4061 44.0386 25.4298C44.2278 25.4534 44.4642 25.4298 44.7361 25.3825C45.0081 25.3352 45.2563 25.2761 45.4573 25.1933C45.6583 25.1224 45.8238 25.0396 45.9538 24.9569C46.0839 24.8741 46.1666 24.7795 46.2258 24.685C46.2849 24.5904 46.3322 24.5431 46.3913 24.5549C46.4386 24.5549 46.4977 24.614 46.545 24.7323C46.545 24.8978 46.4858 25.0396 46.3676 25.1815C46.2494 25.3234 46.0839 25.4416 45.8593 25.548C45.6346 25.6544 45.3509 25.7372 44.9844 25.8081C44.6179 25.879 44.2869 25.9263 43.9913 25.95C43.684 25.9736 43.4593 25.95 43.2938 25.8672C43.1401 25.7844 43.0455 25.5716 43.0219 25.217C42.8564 25.4061 42.6791 25.5953 42.5017 25.7844C42.3244 25.9618 42.1471 26.1509 41.9697 26.3401C41.8515 26.4701 41.7451 26.5411 41.6505 26.5529C41.6032 26.5529 41.5559 26.5529 41.5086 26.5293C41.3668 26.4583 41.3077 26.3637 41.3077 26.2219C41.3077 26.08 41.4614 25.7253 41.7333 25.146C41.4141 25.5007 41.154 25.7608 40.9294 25.9145C40.7165 26.0682 40.5865 26.08 40.551 25.95V25.9263Z" fill="white" stroke="white" stroke-width="0.2" stroke-miterlimit="10"/>
<path d="M28.917 33.5518C29.0234 33.4218 29.1771 33.2326 29.3899 33.008C29.6027 32.7715 29.8273 32.5351 30.0756 32.2986C30.312 32.0622 30.5485 31.8849 30.7613 31.7548C30.8795 31.6839 30.9977 31.6366 31.0805 31.6248C31.1514 31.6129 31.2223 31.6248 31.2814 31.6248C31.4115 31.6721 31.5061 31.7548 31.5652 31.8612C31.6243 31.9676 31.6243 32.1095 31.5652 32.2986C31.5061 32.4878 31.3878 32.6769 31.2223 32.8661C31.0568 33.0553 30.9031 33.2208 30.7613 33.3626C30.6194 33.5045 30.5603 33.6109 30.5721 33.6818C30.5839 33.7528 30.6667 33.8119 30.8085 33.8474C30.9504 33.8828 31.1632 33.8474 31.4351 33.7528C31.707 33.6582 31.9317 33.54 32.1208 33.3863C32.31 33.2444 32.4637 33.138 32.5819 33.0671C32.7001 32.9962 32.7947 33.0316 32.842 33.1735C32.8893 33.3154 32.8893 33.4927 32.842 33.7173C32.7947 33.9419 32.6765 34.1547 32.4755 34.3794C32.2745 34.5922 32.0499 34.8404 31.778 35.1242C31.5179 35.4079 31.246 35.668 30.9859 35.9163C30.7258 36.1645 30.5248 36.4364 30.3829 36.732C30.2411 37.0394 30.2293 37.134 30.3593 37.0157C30.4893 36.8975 30.6549 36.7438 30.8558 36.5547C31.0568 36.3655 31.2814 36.1291 31.5297 35.8572C31.778 35.5734 32.1799 35.1123 32.7238 34.4385C33.2676 33.7764 33.6814 33.3272 33.9651 33.0789C34.2488 32.8306 34.438 32.7242 34.5089 32.7242C34.5562 32.7242 34.5917 32.7597 34.6035 32.8188C34.6035 32.8543 34.6035 32.8898 34.6035 32.9489C34.5208 33.0553 34.3789 33.2208 34.1543 33.4454C33.9296 33.67 33.6341 34.001 33.2558 34.4148C32.8775 34.8404 32.511 35.2779 32.1563 35.7153C31.8016 36.1645 31.447 36.5429 31.0923 36.8739C30.7376 37.2049 30.4302 37.5005 30.1701 37.7724C30.0519 37.8551 29.9455 37.9024 29.8509 37.9142C29.7918 37.9142 29.7445 37.9142 29.6973 37.9142C29.5672 37.8788 29.5436 37.7014 29.6027 37.3941C29.6736 37.0867 29.78 36.8029 29.9219 36.5428C30.0756 36.2828 30.2411 36.0345 30.4302 35.8099C30.6194 35.5852 30.8085 35.3843 31.0214 35.1951C31.2223 35.0178 31.4115 34.8168 31.6006 34.6276C31.778 34.4267 31.8844 34.273 31.9198 34.1429C31.9553 34.0129 31.908 33.9774 31.7662 34.0483C31.6243 34.1193 31.4351 34.1902 31.1987 34.273C30.9622 34.3557 30.7494 34.403 30.5603 34.4267C30.3829 34.4503 30.2056 34.4267 30.0519 34.3321C29.8982 34.2375 29.8273 34.1075 29.8391 33.9183C29.8391 33.7291 29.9101 33.5518 30.0165 33.3745C30.1229 33.1971 30.2647 33.0316 30.4421 32.8543C30.6194 32.6769 30.7258 32.5469 30.7849 32.4641C30.844 32.3696 30.8677 32.2986 30.8677 32.2395C30.8677 32.1804 30.7849 32.2159 30.6194 32.3459C30.4539 32.476 30.2765 32.6415 30.0756 32.8306C29.8864 33.0198 29.6736 33.2799 29.449 33.6109C29.2244 33.9419 28.8697 34.1902 28.3613 34.3675C28.4086 34.0838 28.4914 33.9183 28.586 33.8474C28.6924 33.7764 28.7988 33.6818 28.8933 33.5518H28.917Z" fill="white" stroke="white" stroke-width="0.2" stroke-miterlimit="10"/>
<path d="M34.6751 32.9134C34.7696 33.0316 34.876 33.0907 34.9824 33.067C35.0888 33.0552 35.1952 32.9961 35.278 32.9134C35.3608 32.8188 35.4672 32.736 35.5854 32.6414C35.7036 32.5469 35.8218 32.4405 35.9282 32.3222C36.0346 32.204 36.0819 32.0621 36.0583 31.9085C36.0346 31.7548 35.9637 31.6484 35.8573 31.5774C35.7509 31.5065 35.6918 31.4119 35.68 31.2701C35.68 31.14 35.7154 31.0454 35.7864 30.9745C35.8691 30.9154 35.9992 30.8563 36.2001 30.8208C36.4129 30.8326 36.5666 30.939 36.6494 31.1282C36.7321 31.3173 36.7558 31.4947 36.7321 31.672C36.7085 31.8493 36.7913 31.9912 37.0041 32.0976C37.2169 32.204 37.3824 32.2158 37.5242 32.1449C37.6661 32.074 37.7607 32.1094 37.7962 32.2631C37.7962 32.4286 37.7725 32.535 37.7252 32.5705C37.6779 32.6178 37.5715 32.6651 37.4178 32.7124C37.2641 32.7715 37.0513 32.736 36.8031 32.6296C36.5548 32.5232 36.3775 32.5232 36.2947 32.6296C36.212 32.736 36.0819 32.8661 35.9046 33.0434C35.7272 33.2089 35.5617 33.3508 35.3844 33.469C35.2071 33.5754 35.0061 33.6582 34.7578 33.6936C34.5214 33.6463 34.344 33.5399 34.214 33.3626C34.0958 33.1971 34.013 33.0079 33.9775 32.7833C33.9775 32.6296 34.0485 32.4405 34.1903 32.2395C34.3322 32.0267 34.4741 31.8493 34.6041 31.7075C34.746 31.5656 34.8879 31.4474 35.0297 31.3646C35.1834 31.2819 35.3016 31.27 35.3726 31.3292C35.4553 31.3883 35.5144 31.471 35.5499 31.5774C35.5854 31.6838 35.5972 31.7666 35.5617 31.8375C35.5263 31.9085 35.479 31.9676 35.408 31.9912C35.3371 32.0267 35.2307 32.074 35.1007 32.1331C34.9706 32.1922 34.8406 32.2986 34.7105 32.4641C34.5805 32.6296 34.5568 32.7715 34.6514 32.8897L34.6751 32.9134Z" fill="white" stroke="white" stroke-width="0.2" stroke-miterlimit="10"/>
<path d="M37.5473 32.0976C37.8311 31.6602 38.0557 31.3174 38.2094 31.0691C38.3631 30.8208 38.4813 30.6553 38.5641 30.5607C38.6468 30.4662 38.7177 30.3952 38.7887 30.3598C38.8714 30.3598 38.9424 30.3716 38.9778 30.3834C39.0133 30.3952 39.0724 30.4425 39.1434 30.5134C39.2143 30.5844 39.2143 30.7144 39.167 30.9154C39.1197 31.1164 39.0251 31.2819 38.8714 31.4356C38.7296 31.5893 38.5995 31.7193 38.4931 31.8375C38.3867 31.9558 38.2921 32.0622 38.2212 32.1686C38.1385 32.275 38.1148 32.3696 38.1385 32.4405C38.1621 32.5232 38.2212 32.5469 38.3276 32.5351C38.434 32.5232 38.5641 32.4641 38.7177 32.3577C38.8714 32.2632 39.0724 32.1095 39.297 31.9085C39.5335 31.7075 39.7463 31.5302 39.9354 31.3883C40.1364 31.2464 40.2783 31.1282 40.3965 31.0336C40.5147 30.939 40.5857 30.8208 40.6211 30.679C40.6566 30.5489 40.7157 30.4543 40.7867 30.3952C40.8576 30.3361 40.9285 30.3479 40.9876 30.4307C41.0467 30.5134 41.0822 30.6435 41.094 30.8326C41.094 31.0218 41.0586 31.1755 40.9876 31.2937C40.9167 31.4119 40.8339 31.5183 40.763 31.6366C40.6921 31.7548 40.6448 31.8375 40.6448 31.9203C40.6448 32.0031 40.6684 32.074 40.7275 32.1686C40.7867 32.2631 40.9758 32.2395 41.2832 32.1213C41.5906 32.0031 41.8034 31.873 41.9452 31.7784C42.0753 31.672 42.2526 31.5775 42.4891 31.4829L42.6309 31.6247C42.6073 31.7548 42.5009 31.8848 42.3236 32.0385C42.1462 32.1922 41.8861 32.3341 41.5551 32.4878C41.2241 32.6415 40.9403 32.736 40.6921 32.7833C40.4438 32.8306 40.2546 32.8188 40.1482 32.7715C40.0418 32.7242 39.9591 32.6296 39.9236 32.5114C39.8882 32.3932 39.9354 32.1686 40.0773 31.8257C39.8054 32.074 39.569 32.2631 39.368 32.4168C39.167 32.5705 38.966 32.7124 38.765 32.8543C38.5641 32.9961 38.3394 33.1025 38.103 33.1616C38.0439 33.1735 37.9729 33.1853 37.9138 33.1971C37.7601 33.2208 37.6183 33.2208 37.5119 33.1971C37.3582 33.1498 37.2636 33.0434 37.2281 32.8779C37.2045 32.7242 37.2991 32.4641 37.5355 32.0976H37.5473Z" fill="white" stroke="white" stroke-width="0.2" stroke-miterlimit="10"/>
<path opacity="0.5" d="M22.1665 22.9827C22.1665 22.9827 22.1311 23.0063 22.1074 23.0181C22.1902 23.1245 22.2848 23.2191 22.3675 23.3255C22.2966 23.2073 22.2375 23.1009 22.1665 22.9945" fill="#61C6C3"/>
<path fill-rule="evenodd" clip-rule="evenodd" d="M35.3964 52.0892C29.3788 52.0892 20.9968 52.0892 14.991 52.0892C12.201 52.0892 11.066 50.9424 11.0542 48.105C11.0542 41.7564 11.0897 35.4197 11.0187 29.0829C11.0069 27.6169 11.5626 26.7421 12.7448 26.0327C14.66 24.8742 18.8451 23.5619 20.784 22.4624C22.0017 21.7767 22.4982 20.9137 22.3564 19.5541C22.2263 18.3719 22.6637 17.2251 23.976 17.4616C28.2202 18.1827 31.2586 15.7946 34.4269 13.7139C35.3018 13.1346 35.9639 13.0755 36.7796 13.7021C37.4771 14.2222 38.2929 14.5769 38.9785 15.1207C41.213 16.9059 43.672 17.7689 46.5685 17.4261C48.1645 17.2369 48.9093 18.0408 48.7083 19.6723C48.5665 20.7718 48.9921 21.5048 49.9733 22.0841C52.0422 23.3018 56.381 24.6732 58.4381 25.8909C59.5849 26.5647 60.176 27.416 60.1642 28.7755C60.1287 35.2305 60.1878 41.6855 60.1287 48.1287C60.105 51.0843 58.9583 52.0892 55.9672 52.0892C49.9024 52.0892 41.4612 52.0892 35.3964 52.0892ZM58.0361 29.8632C57.5514 30.1233 57.2677 30.2415 57.0076 30.407C51.0728 34.2847 42.7617 38.1506 36.8505 42.052C36.023 42.5958 35.3609 42.7732 34.4742 42.182C30.9867 39.8412 26.5887 38.1152 23.0775 35.8098C20.3111 34.001 16.0669 31.6247 13.0049 29.6386C12.9458 30.5489 12.8748 31.1282 12.8748 31.6956C12.8748 36.9447 12.8748 42.1939 12.8748 47.443C12.8748 49.772 13.2177 50.1266 15.523 50.1266C27.3336 50.1266 43.873 50.1266 55.6835 50.1266C57.8824 50.1266 58.178 49.8311 58.178 47.6912C58.1898 42.3357 58.178 36.9802 58.178 31.6247C58.178 31.1045 58.0952 30.5843 58.0361 29.8868V29.8632ZM48.7793 23.5501C48.6729 24.3185 48.7201 24.8505 48.7083 25.217C48.6847 26.5884 48.7438 27.948 48.6492 29.3075C48.6256 29.6858 47.136 29.7568 46.935 29.343C46.7576 28.9883 46.864 28.48 46.864 28.0425C46.864 25.6899 46.8404 23.3373 46.864 20.9964C46.864 20.0743 46.5803 19.5659 45.5636 19.5659C38.9549 19.5778 32.3462 19.5896 25.7257 19.5659C24.6381 19.5659 24.2952 20.0979 24.307 21.091C24.3307 22.7343 24.307 24.3658 24.307 26.0091C24.307 27.0968 24.3307 28.1962 24.2006 29.2839C24.1533 29.6622 22.581 29.6858 22.4155 29.2602C22.2381 28.7755 22.3327 28.1844 22.3327 27.6406C22.3327 26.482 22.3327 25.3116 22.3327 23.7747C20.0628 25.2288 15.8541 26.4111 13.8916 27.676C14.3763 28.0898 14.6837 28.409 15.0265 28.6455C20.7249 32.3695 28.8113 36.0581 34.4742 39.8294C35.3136 40.385 35.8338 40.3732 36.6259 39.853C40.4327 37.3112 45.8828 34.6985 49.7014 32.1922C51.9595 30.7026 54.9742 29.3312 57.4923 27.6642C55.3406 26.2928 50.9427 24.9214 48.7674 23.5382L48.7793 23.5501ZM39.6524 17.2842C36.3658 14.967 35.2782 14.3523 31.6487 17.2842H39.6524Z" fill="white"/>
</g>
<defs>
<clipPath id="clip0_3195_1700">
<rect width="70" height="70" fill="white"/>
</clipPath>
</defs>
</svg>
