<svg width="70" height="70" viewBox="0 0 70 70" fill="none" xmlns="http://www.w3.org/2000/svg">
<path d="M35 70C54.33 70 70 54.33 70 35C70 15.67 54.33 0 35 0C15.67 0 0 15.67 0 35C0 54.33 15.67 70 35 70Z" fill="#9DD9DB"/>
<path fill-rule="evenodd" clip-rule="evenodd" d="M11.4063 34.4563C11.4772 33.0143 11.359 31.8204 11.6309 30.7447C12.3047 28.0852 15.7798 27.0568 17.9548 28.818C18.5813 29.3263 19.0186 29.2436 19.5032 28.7471C20.6853 27.5296 22.1392 27.9788 23.3921 28.357C24.7987 28.7826 25.898 29.7755 25.898 31.454C25.898 32.3523 25.768 33.2506 25.6853 34.3499C26.3354 34.3499 27.0919 34.3972 27.8484 34.3499C28.794 34.2908 29.2314 34.7282 29.2432 35.6265C29.2668 36.7613 29.3141 37.8961 29.2077 39.019C29.1723 39.4327 28.7586 40.071 28.4158 40.1537C27.5529 40.3429 27.5647 40.8511 27.5765 41.5012C27.5765 44.1135 27.5647 46.7258 27.5765 49.3263C27.5765 50.4611 27.1865 50.9339 25.9571 50.922C20.9926 50.8629 16.0399 50.8748 11.0753 50.922C9.86967 50.922 9.44414 50.402 9.44414 49.279C9.46778 46.6667 9.44414 44.0544 9.44414 41.4421C9.44414 40.792 9.46778 40.2246 8.58125 40.1537C8.35667 40.1301 7.97842 39.8819 7.97842 39.7282C7.95477 38.097 7.97842 36.4658 8.06116 34.8346C8.06116 34.6927 8.71128 34.5154 9.06589 34.4918C9.91695 34.4445 10.7798 34.48 11.359 34.48L11.4063 34.4563ZM11.3472 44.61C11.3472 45.7802 11.3472 46.9622 11.3472 48.1325C11.3472 48.9008 11.6545 49.2081 12.4465 49.1845C13.8413 49.1372 15.2243 49.1372 16.6191 49.1845C17.4347 49.2081 17.6947 48.818 17.6947 48.0852C17.6947 45.8275 17.6947 43.5698 17.6947 41.3003C17.6947 40.5438 17.4347 40.1774 16.6309 40.201C15.2006 40.2365 13.7586 40.2365 12.3283 40.201C11.5954 40.1774 11.3117 40.4965 11.3236 41.2057C11.3472 42.3405 11.3236 43.4634 11.3236 44.5982L11.3472 44.61ZM25.8271 40.2365C23.8649 40.2365 22.0919 40.201 20.3307 40.2719C20.0706 40.2719 19.6214 40.7802 19.6096 41.0521C19.5505 43.4871 19.5505 45.9221 19.6096 48.357C19.6096 48.6289 20.0706 49.1135 20.3425 49.1254C21.9028 49.1963 23.4749 49.1963 25.0352 49.1254C25.307 49.1135 25.7917 48.6525 25.7917 48.4043C25.8508 45.7566 25.8271 43.1088 25.8271 40.2246V40.2365ZM15.8508 34.3736C16.1935 34.3736 16.5482 34.3736 16.8909 34.3736C17.6238 34.3854 17.9193 34.0308 17.8366 33.3216C17.7657 32.7187 17.7538 32.1041 17.6002 31.5131C17.281 30.2601 16.4536 29.7164 15.1415 29.6336C13.8649 29.5627 13.463 30.3665 13.1557 31.2885C12.5174 33.1797 13.6167 34.4091 15.8508 34.3618V34.3736ZM19.5623 32.5296C19.5466 33.7511 20.1573 34.3578 21.3945 34.3499C21.6545 34.3499 21.9146 34.3618 22.1746 34.3263C23.3094 34.1726 24.2905 32.9906 24.2432 31.8677C24.1841 30.662 23.1912 29.7282 21.9382 29.7046C20.047 29.6691 19.5978 30.201 19.5742 32.5296H19.5623ZM13.7349 38.4161V38.4398C14.7751 38.4398 15.8153 38.428 16.8555 38.4398C17.6947 38.4516 17.7184 37.8842 17.6947 37.2932C17.6829 36.7377 17.7538 36.1112 16.8909 36.123C14.7751 36.1348 12.6711 36.1466 10.5552 36.123C9.69236 36.1112 9.70418 36.6786 9.716 37.2577C9.716 37.8133 9.60962 38.4398 10.508 38.4161C11.5836 38.3925 12.6711 38.4161 13.7467 38.4161H13.7349ZM27.3638 36.2176H19.6569V38.3216H27.3638V36.2176Z" fill="white"/>
<path fill-rule="evenodd" clip-rule="evenodd" d="M52.8136 30.721C52.1634 29.4444 51.5251 28.2151 50.9223 26.9622C50.5677 26.2175 50.284 25.4373 49.9412 24.6808C49.6693 24.1016 49.3266 23.5579 49.0783 22.9669C48.6173 21.9031 48.18 20.8392 47.7663 19.7636C47.4353 18.8889 47.128 18.0023 46.8798 17.0922C46.667 16.3239 46.6433 15.5201 46.7734 14.7163C47.0452 13.0615 47.8727 11.7258 49.2084 10.7565C50.4968 9.81086 51.9743 9.42078 53.6055 9.62173C55.3668 9.84631 56.7734 10.6856 57.8254 12.104C58.7828 13.4042 59.2084 14.8818 58.9128 16.5012C58.7828 17.2104 58.5582 17.896 58.3218 18.5815C58.05 19.3735 57.7308 20.1418 57.4235 20.922C57.0571 21.8321 56.7143 22.7541 56.3242 23.6643C55.8396 24.7636 55.3195 25.851 54.7994 26.9385C54.2084 28.1442 53.5937 29.338 52.9909 30.5319C52.9554 30.591 52.9081 30.6383 52.8254 30.7328L52.8136 30.721ZM52.849 11.643C50.6032 11.5248 48.641 13.5697 48.7001 15.851C48.7592 17.9905 50.5559 19.8936 52.8608 19.8818C55.1067 19.87 56.9861 18.0733 56.998 15.7565C56.998 13.487 55.154 11.5721 52.849 11.643Z" fill="white"/>
<path fill-rule="evenodd" clip-rule="evenodd" d="M19.0065 56.9149C18.9474 56.4775 18.8883 56.0874 18.8174 55.6383C18.9829 55.6028 19.1838 55.5555 19.3848 55.5201C20.3304 55.3309 21.2878 55.13 22.2335 54.9527C23.1318 54.7754 24.0301 54.6099 24.9285 54.4326C25.7086 54.2789 26.4888 54.1253 27.2689 53.9598C28.1791 53.7825 29.1011 53.6052 30.0112 53.4279C30.8623 53.2624 31.7134 53.0969 32.5644 52.9196C32.659 52.8959 32.7536 52.7659 32.8127 52.6595C33.38 51.7612 33.9592 50.8629 34.5148 49.9645C35.1885 48.8889 35.8387 47.7896 36.5124 46.7139C37.198 45.6146 37.9072 44.5153 38.6046 43.416C39.3611 42.2222 40.1058 41.0283 40.8505 39.8345C41.1696 39.3262 41.477 38.8179 41.7843 38.3097C41.938 38.0496 42.1744 38.0023 42.3989 37.9314C43.971 37.4113 45.5431 36.903 47.1153 36.3948C48.25 36.0283 49.3848 35.6383 50.5195 35.26C50.5668 35.2364 50.6259 35.2482 50.6614 35.2482C50.7677 35.6619 50.8741 36.052 50.9923 36.4775C50.484 36.643 49.9521 36.8203 49.4202 36.9976C48.3682 37.3522 47.328 37.7068 46.276 38.0496C45.1531 38.416 44.0301 38.7706 42.919 39.1489C42.8008 39.1844 42.6708 39.2789 42.6117 39.3735C42.0089 40.3191 41.4297 41.2884 40.8268 42.234C40.4131 42.8959 39.9876 43.5342 39.5857 44.1844C39.0656 45 38.5692 45.8392 38.0609 46.6548C37.5644 47.4468 37.068 48.2151 36.5715 49.0071C36.146 49.6926 35.7205 50.39 35.2949 51.0756C34.7985 51.8676 34.2902 52.6595 33.7819 53.4515C33.7583 53.487 33.7346 53.5224 33.7228 53.5579C33.5455 54.0898 33.12 54.1725 32.6826 54.2553C31.7134 54.4326 30.7441 54.6335 29.7748 54.8227C29.0183 54.9645 28.25 55.0945 27.4817 55.2482C26.5479 55.4373 25.6259 55.6383 24.6921 55.8274C23.6519 56.0283 22.5999 56.2174 21.5597 56.4184C20.7677 56.5721 19.9876 56.7375 19.1956 56.903C19.1247 56.9149 19.0538 56.9149 19.0065 56.9267V56.9149Z" fill="white"/>
<path fill-rule="evenodd" clip-rule="evenodd" d="M16.4776 54.2907C17.8961 54.5862 18.6644 55.9928 18.3689 57.3049C18.0734 58.6524 16.6549 59.5035 15.3074 59.1725C13.9244 58.8297 13.1206 57.494 13.4398 56.1465C13.7589 54.799 15.0946 53.9243 16.4776 54.2907Z" fill="white"/>
<path fill-rule="evenodd" clip-rule="evenodd" d="M54.149 32.4822C55.5202 32.4585 56.6786 33.5697 56.6668 34.9881C56.6668 36.4538 55.5438 37.5058 54.1372 37.5177C52.7542 37.5295 51.5959 36.3593 51.6195 34.9763C51.6431 33.6051 52.6951 32.4822 54.1372 32.4822H54.149Z" fill="white"/>
</svg>
