<svg width="70" height="70" viewBox="0 0 70 70" fill="none" xmlns="http://www.w3.org/2000/svg">
<g clip-path="url(#clip0_3195_1716)">
<path d="M35.0059 70.0118C54.3391 70.0118 70.0118 54.3391 70.0118 35.0059C70.0118 15.6727 54.3391 0 35.0059 0C15.6727 0 0 15.6727 0 35.0059C0 54.3391 15.6727 70.0118 35.0059 70.0118Z" fill="#9DD9DB"/>
<path d="M34.8521 39.794C34.1664 39.9004 33.5043 40.0068 32.8423 40.125C31.7428 40.3142 30.6433 40.5033 29.5557 40.728C29.3429 40.7752 29.1064 40.9407 28.9764 41.1181C28.6808 41.52 28.4089 41.9575 28.1843 42.4067C27.9478 42.8678 27.6168 43.1042 27.1085 43.2225C25.7962 43.5298 25.7489 43.5062 25.808 42.1348C25.8316 41.7328 25.808 41.3191 25.8789 40.9171C25.9617 40.3142 25.7607 39.8176 25.4297 39.3329C25.0987 38.8364 24.7913 38.328 24.4839 37.8078C24.2475 37.4059 24.3657 37.134 24.8267 36.9921C25.1105 36.9093 25.406 36.8029 25.6898 36.7793C25.9735 36.7556 26.2927 36.7793 26.541 36.8857C27.073 37.134 27.5459 37.4768 28.0661 37.7369C28.267 37.8315 28.5626 37.8788 28.7636 37.8078C30.3714 37.2758 31.9793 36.7202 33.5871 36.1645C33.6698 36.1291 33.7408 36.07 33.8945 35.9872C33.528 35.4552 33.1733 34.9468 32.8186 34.4385C31.6009 32.7006 30.3714 30.9745 29.1537 29.2366C28.8582 28.811 28.9764 28.5037 29.4729 28.3381C29.4966 28.3381 29.532 28.3263 29.5675 28.3145C31.2463 27.9244 30.7024 27.7825 32.0147 28.7992C32.464 29.1421 32.9132 29.4967 33.3388 29.8632C33.6107 30.0879 33.8708 30.147 34.2019 30.0524C34.923 29.8514 35.0412 29.9342 35.2186 30.6553C35.2659 30.8208 35.2895 30.9982 35.3368 31.1637C35.4787 31.7784 35.8333 31.9912 36.4363 31.8376C37.6067 31.5302 37.7367 31.5184 37.8431 32.6888C37.9259 33.67 38.6707 33.8355 39.2382 34.2493C39.3446 34.3202 39.5692 34.2611 39.7229 34.2257C41.0233 33.8592 42.312 33.4454 43.6242 33.1025C44.9602 32.7597 46.0951 33.2917 47.1237 34.0956C47.431 34.3321 47.5138 34.7104 47.3483 35.0887C46.8045 36.3892 45.9532 37.3586 44.5109 37.6896C43.3169 37.9615 42.1228 38.2453 40.9288 38.5054C40.5977 38.5763 40.3495 38.7063 40.2194 39.0374C40.1485 39.2265 40.0303 39.4038 39.9239 39.5694C39.7229 39.8767 39.6047 40.1841 39.9002 40.5151C39.9357 40.5624 39.9475 40.6334 39.9712 40.6925C40.3495 41.8747 40.3376 41.9102 39.1318 42.2294C38.5643 42.3831 38.3515 42.785 38.5288 43.3643C38.5643 43.4707 38.5761 43.5771 38.6116 43.6835C38.8598 44.6057 38.8362 44.6411 37.9495 44.9249C37.7604 44.984 37.5594 45.1731 37.4766 45.3623C37.0865 46.1899 36.7318 47.0293 36.389 47.8686C36.2471 48.1878 36.0343 48.3652 35.6915 48.4243C35.3841 48.4834 35.0885 48.5898 34.7811 48.6607C34.2373 48.779 34.0009 48.578 34.0482 48.0105C34.1427 47.0411 34.2491 46.0716 34.3555 45.1022C34.5329 43.4353 34.722 41.7565 34.8994 40.0895C34.8994 40.0186 34.8875 39.9359 34.8757 39.8176L34.8521 39.794ZM26.7301 42.2767C26.7301 42.2767 26.8365 42.3476 26.8957 42.3831C27.073 42.2294 27.2858 42.0875 27.404 41.8984C27.7232 41.4255 28.0188 40.9408 28.2789 40.4324C28.4798 40.0541 28.7636 39.9004 29.1655 39.8295C30.6079 39.5812 32.062 39.3329 33.4925 39.0374C37.0865 38.3044 40.6687 37.5359 44.2508 36.7911C45.2794 36.5783 45.8823 35.8926 46.3316 35.0296C46.3907 34.9232 46.3316 34.6631 46.2488 34.604C45.4685 34.0838 44.6528 33.7055 43.6715 34.001C41.3071 34.7222 38.9426 35.4197 36.59 36.1764C33.9891 37.0157 31.4 37.9024 28.8109 38.7773C28.4207 38.9073 28.0897 38.8955 27.735 38.659C27.2503 38.3398 26.742 38.0443 26.2218 37.7842C26.0444 37.6896 25.8198 37.7133 25.6188 37.6896C25.607 37.7369 25.5834 37.7842 25.5597 37.8315C25.8435 38.2926 26.1272 38.7654 26.4228 39.2265C26.7065 39.6521 26.8365 40.0777 26.7774 40.5979C26.7183 41.1536 26.7301 41.721 26.7065 42.2767H26.7301ZM30.2887 29.012C30.2887 29.012 30.2296 29.1066 30.1941 29.1539C30.2177 29.1894 30.2532 29.2248 30.2768 29.2721C31.6009 31.14 32.9014 33.0198 34.2373 34.8877C34.8639 35.7744 34.8875 35.7626 35.9279 35.4315C36.6491 35.2069 37.3702 34.9705 38.2214 34.6986C37.7249 34.3675 37.3348 34.1074 36.9446 33.8592C36.5545 33.5991 36.1644 33.3508 36.6373 32.6651C35.857 33.1025 35.3841 32.7361 34.9703 32.3459C34.6038 31.9912 33.859 31.8257 34.261 30.9627C33.5989 31.3765 33.2206 30.9627 32.795 30.6317C32.1921 30.147 31.5891 29.6622 30.9625 29.213C30.7852 29.083 30.5133 29.083 30.2768 29.0238L30.2887 29.012ZM39.2027 38.8482C38.2451 39.0374 37.3229 39.2502 36.3772 39.4039C35.9516 39.4748 35.8215 39.6758 35.786 40.0777C35.6205 41.8156 35.4196 43.5417 35.2304 45.2795C35.1476 46.0362 35.0767 46.7928 35.0058 47.5494C35.0531 47.5849 35.0885 47.6085 35.1358 47.644C35.3132 47.5258 35.5732 47.443 35.6442 47.2775C35.9752 46.58 36.2589 45.8707 36.5309 45.1377C36.72 44.6175 36.8855 44.0973 37.4648 44.0382C37.4057 43.7899 37.252 43.5298 37.3111 43.3761C37.6303 42.6432 37.5712 41.6383 38.5643 41.3782C38.0559 40.3496 39.049 39.7349 39.2027 38.8482Z" fill="white"/>
<path d="M22.6047 52.101C23.6569 51.7936 46.9587 46.6627 47.7745 46.4736C49.6542 46.048 51.2148 45.7879 53.3901 44.984C54.5487 44.7948 55.0925 43.3998 54.8797 42.4895C54.1112 39.1083 53.2364 35.2424 52.4679 31.8494C51.8768 29.213 51.0847 26.8958 50.5409 24.2476C50.3636 23.4319 49.5124 23.1127 48.6257 23.3136C38.3521 25.6308 28.0666 27.9007 17.793 30.1824C17.6512 30.2179 17.1192 30.0524 16.9773 29.745C16.5753 28.811 17.0719 28.4918 17.8758 28.3263C19.1171 28.078 20.4294 27.9716 21.588 27.4988C23.8579 26.5766 26.0923 25.5362 28.244 24.3895C35.361 20.5945 42.4426 16.7168 49.5478 12.8864C51.534 11.8223 53.0472 12.2716 54.0876 14.2341C57.0432 19.8734 59.9988 25.5126 62.9189 31.1637C63.8174 32.8897 63.3681 34.2848 61.6539 35.2542C59.8451 36.2709 58.0362 37.2876 56.2038 38.2689C55.6481 38.5644 55.4353 38.8482 55.6245 39.5221C55.9555 40.6688 56.2038 41.8511 56.3693 43.0333C56.6412 44.913 55.8373 46.0362 53.9339 46.4736C51.002 47.1475 48.0582 47.7859 45.1263 48.4479C43.4002 48.8381 24.6027 52.7631 22.9594 53.4015C21.387 54.0162 21.1624 52.2902 22.5811 52.0655L22.6047 52.101ZM55.2816 37.1576C57.3624 35.999 59.2539 34.9941 61.0982 33.8828C61.9376 33.6464 61.8549 32.7242 61.6893 32.3932C58.8165 26.8367 55.5536 20.6182 52.6926 15.0617C52.0187 13.7494 50.6473 13.9385 49.938 14.3287C47.4789 15.6882 44.9726 16.9651 42.5254 18.3601C38.7895 20.4881 30.8212 24.6732 26.6598 26.9904C26.8726 26.683 32.6655 25.0752 33.032 24.9924C38.0329 23.8811 43.0455 22.7462 48.0464 21.6585C50.6473 21.0911 51.7586 21.9068 52.3024 24.4959C53.1182 28.3736 54.3477 32.9488 55.2816 37.1576Z" fill="white"/>
<path d="M19.8497 52.8813C20.3698 53.2478 20.5235 53.969 20.0861 54.2763C18.2773 54.7374 16.1611 55.3285 14.3641 55.695C12.9809 55.9787 11.5386 54.7138 11.1721 53.2241C10.4036 50.0676 9.71793 46.8992 9.00859 43.7426C8.29925 40.5861 7.61355 37.4177 6.89239 34.2611C6.40768 32.1568 7.23524 30.7617 9.32779 30.277C10.711 29.9578 12.1179 29.6859 13.5011 29.343C14.3996 29.1184 14.6597 29.5795 14.8252 30.3243C14.9907 31.0809 14.7779 31.1046 13.9503 31.2583C12.5908 31.4947 10.9356 32.0858 9.56424 32.3223C8.68939 32.476 8.59481 32.9489 8.7485 33.6346C9.62335 37.5123 10.4391 41.591 11.3139 45.4687C11.7987 47.6204 12.378 49.8902 12.8036 52.0537C12.9927 52.9995 13.7139 54.3709 14.8725 54.0281C16.4212 53.567 18.0172 53.3069 19.8497 52.9049V52.8813Z" fill="white"/>
<path d="M17.3667 40.326C17.3076 40.2196 17.1657 40.0541 17.1184 39.8413C16.9529 39.0373 16.811 38.2098 16.681 37.394C16.5273 36.4483 17.1894 36.5665 17.5086 36.401C17.7214 36.2946 18.1706 36.4601 18.2534 36.6965C18.4662 37.3113 18.5253 38.0206 18.6317 38.7063C18.7736 39.593 18.147 40.456 17.3549 40.3378L17.3667 40.326Z" fill="white"/>
<path d="M18.1945 45.9888C18.0172 45.0312 17.8162 44.1327 17.6625 43.1988C17.5324 42.3712 18.0053 42.2175 18.4782 41.9811C19.0102 41.721 19.223 41.9338 19.3294 42.5485C19.3885 42.9387 19.4713 43.3288 19.5304 43.7308C19.7353 44.9445 19.2861 45.7012 18.1827 46.0007L18.1945 45.9888Z" fill="white"/>
<path d="M19.4481 51.4153C19.2826 50.505 19.0934 49.6656 18.9752 48.8025C18.8688 47.975 19.4245 47.774 19.8146 47.7031C20.0865 47.644 20.3939 47.3248 20.6185 48.2232C20.6658 48.4242 20.7131 48.708 20.7604 48.9562C21.0205 50.233 20.583 51.0527 19.4481 51.4153Z" fill="white"/>
<path d="M15.8773 35.0059C15.7117 34.1902 15.5226 33.3508 15.3807 32.4996C15.2152 31.4238 15.9718 31.5184 16.3856 31.2346C16.8703 30.8799 16.9649 31.3647 17.0358 31.8257C17.0831 32.1095 17.1304 32.405 17.1895 32.6769C17.556 34.4503 17.4733 34.6158 15.8773 35.0059Z" fill="white"/>
</g>
<defs>
<clipPath id="clip0_3195_1716">
<rect width="70" height="70" fill="white"/>
</clipPath>
</defs>
</svg>
